<svg xmlns="http://www.w3.org/2000/svg" viewBox="0 0 64 64"><path d="M22.325 64c-6.137 0-6.654-.427-7.326-1.48-.554-.866-.554-.866.048-9 .067-.913.145-1.97.22-3.017-1.53 1.218-2.207 1.53-3.078 1.53-.086 0-.188-.004-.274-.013C9.993 51.818 6.36 48.15 6 47.68c-.524-.687-.726-1.413-.602-2.16.164-.983.52-1.453 4.773-6.28.62-.705 1.268-1.44 1.91-2.176.228-.26 1.186-1.344 2.406-2.538-.476-.02-.912-.04-1.307-.06-2.725-.14-4.525-.23-4.85-2.345-.008-.044-.206-5.296.5-6.53.16-.276.16-.276 1.904-2.276 1.607-1.842 5.747-6.586 6.63-7.845.046-.32.02-.845-.15-1.102-.398.174-1.097.825-1.283 1.4-.203.634-.654 1.158-1.25 1.455-.347.173-.726.26-1.107.26-.273 0-.547-.045-.81-.135C4.99 14.668 4 14.208 4 12.194c0-1.28 1.787-6.042 4.605-8.774 2.02-1.957 5.48-3.173 9.032-3.173 1.858 0 3.61.338 5.145.987l.046-.054C23.508.397 24.292 0 25.155 0c.103 0 .223.007.325.02 1.453.18 3.615 2.098 4.363 3.87.63 1.49.887 2.522.446 3.695-.2.528-.57 1.006-1.03 1.375.18.848.263 1.726.24 2.62 1.587-3.173 3.868-3.423 4.54-3.423.1 0 .277.01.38.023.112.014.226.035.342.064 1.922-1.984 5.186-4.72 10.977-4.72.23 0 .47.004.71.013 6.72.242 10.978 4.575 12.722 8.55 1.85 4.21.493 10.552-3.022 14.14-2.477 2.528-6.422 4.037-10.552 4.037-1.558 0-3.045-.22-4.422-.656-1.613-.51-3.067-1.137-4.336-1.86.134 2.416-.01 4.71-.016 4.75-.286 1.518-1.274 2.04-1.837 2.214-.4.124-.6.157-2.93.157-.608 0-1.3-.004-2.055-.01l.002.524c.097 26.148-.235 26.5-1.122 27.435-.692.735-1.48 1.18-6.557 1.18zm3.483-42.473c2.45.05 4.22.09 5.514.137-.086-.268-.158-.54-.214-.815-.127-.62-.212-1.244-.257-1.87-.87-.163-1.84-.6-2.277-1.688-.095-.235-.163-.53-.196-.873-.763 1.8-1.723 3.608-2.57 5.107zM45.053 61.45c-1.34 0-2.624-.222-3.813-.66-4.19-1.542-8.532-4.06-8.95-11.044-.38-6.37 2.842-11.82 5.998-14.19 2.264-1.7 6.873-4.55 12.308-4.55 1.56 0 3.096.236 4.567.7 1.984.628 2.513 3.185 2.513 4.597 0 3.07-.66 5.005-1.964 5.747-.468.267-.993.435-1.536.493.665.618 1.237 1.356 1.7 2.207 3.433 6.306.375 10.63-.63 12.052-1.617 2.285-5.872 4.648-10.193 4.648z" fill="#FFF"/><path d="M12.583 7.06c-.41 0-2.115 2.89-2.15 3.025-.068.272 1.33 1.36 1.842 1.36s.682-.85.785-1.292c.102-.442-.34-.238-.682-.51s.853-1.666 1.058-2.04c.205-.374-.443-.544-.853-.544zm25.35 10.167c.206-.102.41-1.802.922-3.06s2.968-2.448 3.31-2.72c.34-.272 0-.782-.444-.918-.443-.137-1.74.27-3.513 2.447s-1.615 3.967-1.5 4.25c.067.17 1.023.102 1.227 0zm3.993-2.245c-1.98 2.992-.41 5.237 2.593 5.543s5.185-1.428 4.128-4.42c-1.058-2.993-5.293-3.282-6.722-1.123zm2.355.715c.613-.295 2.56.102 2.492 1.802-.068 1.7-2.08 1.29-2.798.747-.717-.544-.75-2.04.307-2.55zm-25.623 22.68c.102.58.512.58.785.58s2.593-2.415 2.593-2.415-.785-.136-1.092-.136c-.307 0-2.316 1.805-2.286 1.972zm13.375-21.796c.137-.067.102-1.223.444-2.38.34-1.155 2.047-2.753 2.252-2.957.205-.204-.34-.578-.614-.612-.273-.033-1.467.103-2.457 2.177-.99 2.074-.848 3.413-.785 3.57.068.17 1.023.272 1.16.204zM49.98 38.89c1.876-.17 3.07 1.02 3.274 1.122.205.102.75.17 1.228-.102s.717-2.618.717-3.605c0-.986-.39-2.12-.786-2.244-6.142-1.94-11.874 1.393-14.637 3.468-2.764 2.074-5.323 6.937-5.016 12.072.308 5.135 2.9 7.243 7.337 8.875 4.436 1.632 9.656-1.02 11.123-3.094 1.467-2.073 2.866-5.066.478-9.452-2.388-4.387-7.575-2.958-7.916-2.992-.34-.034-.478-.578-.137-1.088.342-.51 2.457-2.79 4.334-2.96zm-6.723 6.903c.717.24 2.08-1.665 5.016-.815 2.934.85 4.026 3.265 4.026 3.265s-.376-.102-.547-.034c-.17.068-.614.646-.41.816.206.17 1.025.544 1.16.952.138.408.41 1.666.172 1.802-.24.136-.955-.578-1.058-.544-.102.034-.648.68-.648.782 0 .102 1.398 1.326 1.364 1.496-.034.17-.375.85-.614.748-.24-.102-1.194-1.054-1.297-1.054-.102 0-.82.374-.648.68.17.306.75 1.122.75 1.122s-.477.306-.58.306-.443-.646-.613-.68c-.17-.034-.887.068-.887.306s.273.884.205.986c-.068.102-.82.238-.82.238s-.306-.85-.545-.884-.99-.068-.955.136c.034.204.648.986.307 1.02-.34.034-5.698 1.054-7.745-2.482-2.047-3.537-2.115-7.753-.648-11.052 1.467-3.298 6.926-8.263 14.808-6.87.32.057-.068 1.09-.068 1.09s-3.105-.647-4.88.237c-1.773.884-3.957 2.38-4.708 4.32-.753 1.938-.855 3.876-.14 4.114zm-9.724-25.435c.648 3.162 4.197 5.577 8.394 6.903 4.197 1.326 9.622.136 12.454-2.754 2.833-2.89 3.96-8.16 2.526-11.426-1.433-3.264-4.88-6.87-10.543-7.073-5.664-.204-8.38 2.38-10.543 4.727-2.287 2.482-2.935 6.46-2.287 9.623zm5.22-9.52c1.566-1.83 3.685-3.334 7.54-2.72 3.856.61 5.528 1.8 6.28 2.65s1.057 1.803 1.057 1.803-1.33-.884-1.604-.85c-.273.034-.785.714-.375.918.41.204 2.97 1.938 3.004 2.074.034.136.478 2.244.375 2.244-.103 0-2.97-2.686-3.14-2.618-.17.068-.614.442-.34.816.272.374 3.343 2.89 3.377 3.13s-.307 1.563-.444 1.597c-.137.033-2.252-2.21-2.49-2.21-.24 0-.615.68-.41.917.205.238 2.56 1.836 2.56 2.176 0 .34-.547 1.428-.65 1.326-.1-.103-1.91-2.075-2.217-2.11-.307-.033-.785.51-.512.817.273.306 2.32 1.904 2.184 2.108-.137.204-.887.884-1.024.884s-2.08-2.075-2.252-2.075c-.17 0-.82.544-.785.748.034.204 2.013 1.904 1.91 2.074-.1.17-.716.476-.818.374-.103-.1-1.98-1.7-1.98-1.7s-.955.24-.682.647 1.194 1.292 1.058 1.462c-.136.17-5.357.645-8.19-1.055-2.83-1.7-4.4-4.013-4.64-7.005s2.218-5.27 3.207-6.426zM20.056 33.276c-.41 0-3.14 2.006-6.107 5.407-2.97 3.4-6.03 6.77-6.108 7.243-.068.408 3.685 3.57 4.333 3.64.648.067 5.46-4.456 5.8-4.49.34-.034-1.126 15.744-.887 16.118.24.374 9.417.544 9.997-.068.58-.612.444-25.368.444-26.252-.002-.884-7.065-1.598-7.474-1.598zm5.083 9.862s-1.332-1.7-1.536-1.6c-.205.103-.75.715-.546.92.205.203 2.08 2.107 2.08 2.31 0 .205-.033 2.007-.033 2.007s-1.843-1.598-1.98-1.564c-.136.034-.545.748-.34.918.205.17 2.32 2.11 2.32 2.245 0 .136-.102 2.346-.102 2.346s-1.842-1.767-2.013-1.733c-.17.034-.375.952-.24 1.122.137.17 2.32 2.107 2.32 2.21 0 .1.137 1.597-.067 1.563-.205-.034-1.945-1.938-2.115-1.938-.17 0-.512.952-.307 1.224.206.27 2.253 2.21 2.32 2.345.07.136.035 1.462.035 1.462s-1.57-1.938-1.877-1.938c-.307 0-.58.815-.375 1.12.205.307 2.047 2.04 2.08 2.245.035.204 0 .986 0 .986s-.067.07-.17 0c-.102-.067-2.457-2.277-2.695-2.277-.24 0-.82.816-.648.952.17.136 1.535 1.292 1.433 1.292-.102 0-3.24 0-3.24-.136 0-.135.545-11.29.613-14.28.068-2.994.102-3.266-.444-3.47-.546-.204-1.433.476-3.514 2.516-2.08 2.04-3.446 3.333-3.617 3.264-.17-.068-1.978-1.768-1.84-2.312.088-.357 4.64-4.795 6.414-6.53 1.774-1.733 3.344-2.583 3.72-2.583s4.503-.034 4.503.306-.138 7.01-.138 7.01zm.92-38.325c.683.646.99 2.176 1.093 2.38.102.204.717-.204.82-.476.1-.273.136-.58-.41-1.87-.546-1.293-2.115-2.347-2.388-2.38-.273-.035-.843.75-.82.917.034.238 1.023.782 1.706 1.428zm-4.4 19.077c-.206-.068 2.9-4.625 4.605-8.84 1.706-4.218.546-8.638-3.412-11.02-3.958-2.38-10.03-1.257-12.522 1.157-2.49 2.413-3.855 6.63-3.855 7.004 0 .374 7.097 2.822 7.097 2.822.58-1.802 3.037-3.91 4.777-2.89 1.74 1.02 1.637 3.367 1.33 4.285-.307.92-8.564 10.17-8.7 10.407-.138.238-.274 4.49-.206 4.93.068.443 22.93.783 23.475.613.545-.17-.035-7.753-.376-8.025-.34-.273-12.01-.375-12.215-.443zm10.645 6.12c-.137.035-1.433-.033-1.433-.033s-.853-2.313-1.33-2.28c-.48.035-1.093.34-.99.51.102.17 1.058 1.803.853 1.803h-1.228s-.955-2.38-1.16-2.414c-.205-.035-1.33.033-1.16.34.17.305 1.024 2.073 1.024 2.073l-1.364-.102-1.262-2.243s-1.024.136-1.024.272c0 .135.92 1.937.92 1.937l-11.054-.34s0-1.802.034-1.904c.034-.102 6.824-7.72 8.086-10.032s.784-4.556-.546-6.426-4.845-1.292-5.937-.68c-1.092.612-1.91 2.108-1.91 2.108S9.41 11.48 9.17 11.276c-.22-.19 1.093-3.4 3.618-5.067 2.525-1.667 7.336-2.45 9.656.407s3.105 5.95.614 10.542-4.81 7.446-4.81 7.956c0 .51-.206.918.545 1.088.75.17 13.136-.17 13.24.034.1.204.408 3.74.272 3.775zM50.218 50.86c-.184-4.252-5.673-3.577-6.756-1.598-.82 1.496-.58 2.618.17 3.64 1.13 1.535 6.756 1.903 6.586-2.042zm-4.334-1.122c.85-.37 2.115-.204 2.286.986.17 1.19-1.535 1.836-2.32 1.292-.785-.544-1.057-1.802.034-2.278zm-3.24-10.746c-.24-.034-.308.034-1.468 1.292s-1.842 2.754-1.877 2.856c-.138.408 1.057.986 1.296.204.24-.782 2.115-2.754 2.525-3.4.41-.646-.238-.918-.477-.952z"/></svg>