<svg xmlns="http://www.w3.org/2000/svg" viewBox="0 0 64 64"><path d="M35.73 64c-3.76 0-3.868-2.74-3.868-3.05-.008-.36-.2-4.298-.36-7.572-1.348-.583-2.666-1.536-2.666-3.24 0-.51 0-.962 1.454-3.976-.27-.166-.55-.342-.83-.525-.006.31-.057.524-.102.71-.27 1.13-.968 1.924-1.816 2.446.372 9.823.244 10.383.156 10.76-.176.758-.907 2.518-3.902 2.518-.806 0-1.574-.112-1.66-.125-1.315-.2-2.298-1.31-2.33-2.637l-.25-9.92c-1.35-.373-2.203-.88-2.633-1.958-.335-.826-.296-1.055.343-4.874l.124-.742c-3.83-.67-8.82-2.178-11.636-5.568-4.483-5.4-8.062-11.894-3.934-22.776C6.17 2.003 16.137.296 19.09.045 19.412.018 19.805 0 20.252 0c3.988 0 8.486 1.216 10.92 4.412 2.58-1.293 6.767-2.88 11.762-2.88 3.652 0 7.19.846 10.515 2.517 13.567 6.818 10.607 27.297 9.463 31.046-1.16 3.794-9.015 13.518-20.213 14.316.054 3.414-.556 4.165-1.434 4.8-.558.406-1.18.573-1.732.64.6 6.293.335 6.732-.1 7.455C38.765 63.414 37.485 64 35.73 64z" fill="#FFF"/><path d="M52.214 6.493C40.51.61 30.016 8.253 30.016 8.253c-1.26-5.18-8.324-5.682-10.695-5.48-2.37.2-11.098 1.558-14.932 11.665-3.834 10.107-.15 15.688 3.48 20.062s12.462 4.928 12.613 4.978c.152.05-1.11 6.688-1.008 6.94.1.25 2.775.753 2.775.753l.303 12.07s2.32.35 2.472-.303c.15-.654-.303-12.068-.303-12.068s1.714-.102 1.967-1.158c.252-1.056-2.674-6.587-2.674-6.587l1.816-.2s1.815 1.81 3.48 3.217c1.665 1.408 4.59 2.916 4.59 2.916s-2.32 4.576-2.32 5.078c0 .503 2.573 1.257 2.573 1.257s.454 9.15.454 9.554c0 .402 2.17.453 2.472-.05.302-.503-.606-9-.606-9s2.623.502 3.178.1c.555-.402.15-5.33.15-5.33 11 .905 19.424-8.9 20.483-12.37 1.06-3.467 3.633-21.92-8.07-27.804zM16.736 36.16c-4.578-1.17-9.12-4.563-10.632-9.503-1.513-4.94.15-12.068 3.443-15.99 3.292-3.922 5.146-4.3 7.72-5.016 1.716-.477 6.09-.452 7.945.454 1.854.905 3.065 2.678 3.14 3.243.076.566-.68 1.433-.68 1.433s-3.217-1.622-3.52-1.622c-.303 0-.795.566-.605.83s2.99 1.66 2.95 1.81c-.037.15-.756 1.094-.945 1.094s-2.724-1.66-3.027-1.66c-.303 0-.72.454-.568.83.15.378 2.838 1.924 2.838 1.924s-.265.98-.68.943c-.417-.04-2.385-1.623-2.687-1.623s-.68.716-.605.867c.076.15 2.573 1.886 2.535 2.074-.038.19-.227.905-.416.905s-2.384-1.433-2.65-1.433-.718.83-.49 1.056c.226.226 2.496 1.395 2.496 1.395s.265.982-.265.982-2.686-1.245-2.876-1.17c-.19.076-.568.906-.378 1.057s2.912 1.32 2.912 1.47c0 .15-.227 1.772-.378 1.697s-2.27-1.32-2.422-1.244c-.15.075-.416.528-.114 1.056.303.527 2.346 1.357 2.384 1.545.038.19-.265 1.245-.265 1.245l-2.195-.943s-.416 1.018-.114 1.17c.303.15 2.27.98 2.384 1.093.114.113.114 1.433-.076 1.395-.19-.038-2.346-.716-2.346-.716s-.34.942.038 1.13c.378.19 2.27 1.056 2.384 1.13s.643 2.377.492 2.377c-.15 0-2.573-1.358-2.686-1.358s-.492.753-.19 1.017c.304.264 3.596 1.923 3.71 2.15.113.226.15 1.245.15 1.245s-3.027-1.32-3.216-1.32-.795.603-.19 1.018c.606.415 3.785 2.074 3.785 2.074s-1.513 1.055-6.09-.114zm6.848 8.26c-.227.188-1.513.527-1.513.15s.304-1.47.493-1.735c.207-.29 1.248 1.395 1.02 1.584zm13.66 5.052c-.304 0-2.46-.264-2.574-.68s.87-2.337 1.022-2.6c.056-.1.908.074 1.173.376s.68 2.904.378 2.904zm21.63-21.207c-.253-.15-4.794-4.475-5.147-4.475s-.605.905-.605.905 5.65 4.978 5.65 5.167c0 .19-.53 2.263-.643 2.187-.115-.076-5.298-5.356-5.412-5.356s-.832.943-.605 1.17c.227.225 5.676 5.316 5.638 5.694-.037.377-.83 2-1.096 1.81s-5.07-5.167-5.373-5.204c-.302-.038-.87.943-.756 1.056.114.113 5.6 5.09 5.297 5.58-.302.49-.794 1.472-1.096 1.283-.303-.19-4.503-4.563-4.767-4.64-.265-.074-1.21.416-1.135.718.076.303 5.108 4.866 4.92 5.054-.19.19-1.666 1.207-1.893 1.018-.228-.19-4.24-4.412-4.428-4.412-.19 0-1.022.792-.795 1.018.227.226 4.465 4.525 4.35 4.6s-1.702.906-1.815.83c-.114-.074-3.897-4.562-4.086-4.6-.19-.038-1.097.19-.946.566.15.377 3.897 4.903 3.67 4.903s-1.778.34-1.93.264-3.897-5.015-4.124-5.09c-.227-.075-.984.113-.984.415s4.01 5.053 3.595 5.13c-.416.074-1.74.188-2.08-.076-.342-.265-3.066-4.564-3.406-4.64s-1.134.226-1.134.453c0 .226 2.838 4.3 2.573 4.3s-1.325.3-1.514-.04c-.19-.338-2.043-2.94-2.346-2.94-.303 0-.795.566-.605.98.19.415 1.097 1.886.908 1.886-.19 0-3.784-1.36-6.697-3.96-2.913-2.603-6.886-7.656-6.62-14.52.264-6.864 3.783-10.735 4.918-12.118 2.5-3.045 6.407-6.99 14.328-6.386 7.92.603 9.636 2.766 10.947 3.822 1.31 1.056 2.32 3.872 2.168 3.82-.15-.05-1.463-.954-1.463-.954s-.656.905-.454 1.106c.203.2 3.028 2.062 3.23 2.414.202.352.757 1.358.605 1.408-.15.05-2.32-1.508-2.522-1.508-.202 0-.757.805-.404 1.106.352.302 3.58 2.615 3.732 2.866.15.25.202 1.86.202 1.86l-3.885-2.513s-.86.603-.506.905c.353.302 4.59 3.067 4.742 3.32.15.247.05 3.968-.203 3.817zM15.183 10.14c-.454-.076-1.627.15-4.124 2.752S8.237 17.8 8.298 18.134c.15.83 1.968 1.13 2.232.905.265-.227.53-1.51 1.816-3.47s3.595-3.244 3.632-3.584c.04-.34-.34-1.772-.794-1.847zm24.064.45c-.492-.074-3.292.567-6.016 2.68-2.724 2.11-4.066 5.937-3.973 6.184.113.302 1.36 1.207 1.853.792.492-.415.946-1.32 3.595-4.488s4.73-2.45 5.07-2.828c.34-.378-.038-2.263-.53-2.34z"/></svg>