<svg xmlns="http://www.w3.org/2000/svg" viewBox="0 0 64 64"><path d="M45.09 64c-6.884 0-18.48-.22-24.71-.34-2.338-.044-3.947-.075-4.308-.075-2.166 0-8.128-1.69-8.725-5.496-.173-1.11-.283-1.63-.346-1.87-1.52-1.95-1.845-3.798-1.845-5.035 0-.218-.008-.93-.022-2.026-.46-39.84.372-41.537.924-42.66.67-1.365 2.806-2.42 4.53-2.65.11-1.18.487-1.667.713-1.96.518-.667 1.292-1.09 2.125-1.16.477-.04 1.65-.114 2.673-.114.8 0 1.792 0 2.658.4.375-.382.888-.655 1.586-.77.357-.06 1.842-.22 3.045-.22 1.263 0 2.153.24 2.777.598.26-.153.565-.272.917-.35C27.66.144 29.12 0 30.2 0c.696 0 2.08 0 3.09.908.268-.23.6-.42 1.016-.558.905-.302 3.52-.305 3.63-.305.938 0 2.523 0 3.465 1.087.206-.117.436-.215.692-.293.37-.112.783-.162 1.334-.162 2.088 0 5.62.427 5.9 3.276 3.176.36 7.16 1.533 7.917 5.094.796 3.73 1.768 47.91 1.756 48.25-.118 3.175-3.897 6.128-8.427 6.582-.516.05-1.646.12-5.483.12z" fill="#FFF"/><path d="M54.51 9.63c-.67-3.133-7.76-3.03-7.915-3.03-.154 0 0-1.746-.05-2.363-.052-.616-3.136-.873-3.65-.72-.514.155-.257 2.723-.308 2.93-.05.204-3.186-.36-3.186-.36s0-2.775-.102-3.083c-.103-.308-3.803-.103-4.11 0-.31.103.05 2.414.05 2.722 0 .308-2.878.103-3.392 0-.514-.103-.05-2.31-.41-2.722-.36-.41-3.29-.103-3.752 0-.462.103-.257 2.67-.257 3.082s-1.953.103-2.26.103c-.31 0-.36-2.415-.36-3.032 0-.616-3.7-.205-4.01-.154-.307.05-.152 2.876-.152 2.876s-2.364-.103-2.724-.154c-.36-.05 0-1.746-.256-2.106-.257-.36-3.392-.154-4.008-.103-.617.05-.103 3.03-.103 3.03s-1.13 0-2.364.052c-1.234.05-2.51.898-2.622 1.13-1.233 2.516-.617 41.554-.617 43.454 0 1.9 1.183 3.236 1.44 3.544.257.308.462 1.284.72 2.928.256 1.644 4.264 3.133 5.96 3.133 1.696 0 30.627.667 34.224.307 3.597-.36 5.858-2.517 5.91-3.904.052-1.386-1.027-44.43-1.695-47.563zM43.96 5.058c.25-.25 1.118-.116 1.272.116.154.23-.154 5.547-.154 5.547s-1.31.386-1.387 0c-.078-.384.115-5.508.27-5.662zm-7.323-.5c.078-.14 1.232 0 1.232 0s.077 5.007-.116 5.046c-.193.038-.964.038-1.04-.116-.077-.154-.23-4.66-.077-4.93zm-7.71-.31c.034-.228 1.388 0 1.388 0s.04 4.778-.116 4.778c-.154 0-1.426-.077-1.426-.077s.116-4.43.155-4.7zm-7.09.31s1.464-.155 1.58.038c.115.193.384 4.392.115 4.584-.27.193-1.465.077-1.465.077s-.385-4.546-.23-4.7zm-6.822.54c.056-.225 1.233-.27 1.31-.04.077.23.23 4.353.077 4.43-.154.077-1.08.154-1.118.04-.038-.117-.308-4.277-.27-4.43zm33.53 50.427c-.27.116-1.62.154-1.85.077-.23-.077-1.233-2.12-1.387-2.12-.153 0-.73.386-.654.54s1.35 1.58 1.118 1.695c-.23.116-3.93.077-4.085-.077-.155-.154 1.695-1.117 2.58-1.965.887-.848 1.388-1.387 1.543-1.54.377-.38 3.005 3.274 2.735 3.39zm-5.396-4.854c.154-1.04.27-2.31.462-2.465.09-.072 1.542 0 2.197-.077.656-.077 1.273-.116 1.273-.116s-.54 1.08-2.274 3.005c-1.735 1.926-1.967 2.12-2.16 2.08-.19-.038.348-1.386.502-2.426zm6.63 4.43c-.27-.037-3.16-3.813-3.16-3.813s.384-.732.616-.81c.11-.036 2.775 2.62 2.89 3.006.116.385-.077 1.656-.347 1.618zm.616-3.042c-.23-.04-2.582-2.35-2.582-2.35s.732-1.002.964-1.04c.476-.08 1.773 1.58 1.773 1.85 0 .268.076 1.578-.155 1.54zm.077-3.583c-.116-.04-1.118-.81-1.118-1.04s.81-1.387 1.08-1.618c0 0 .115.116.192.578.076.462-.04 2.118-.155 2.08zm.154-11.98c-.27-.117-4.973-6.743-5.127-6.743-.154 0-.462 1.08-.154 1.27.307.194 5.01 6.32 5.01 6.59s-.155 1.848-.155 1.848-4.548-5.74-4.818-5.78c-.27-.038-.54.54-.308.926.23.385 4.778 5.856 4.817 6.125.04.27-.154 2.274-.385 2.235-.23-.04-3.777-4.854-4.047-4.893-.27-.04-.77.925-.424 1.31.348.385 4.01 4.276 4.01 4.584 0 .308-.54 1.387-.695 1.194-.154-.193-2.274-3.236-2.62-3.197s-.81.424-.502.77c.308.348 2.66 3.12 2.544 3.276-.116.153-1.696.692-3.353.73-1.657.04-2.12 0-2.35.502-.232.5.153 2.774-.772 5.085-.925 2.31-2.12 3.313-3.315 3.39-1.195.077-21.93.04-24.165-.732-2.235-.77-3.315-2.85-3.392-5.2-.077-2.35.154-40.22.27-40.875.062-.35 3.122-.385 3.122-.116 0 .27-.077 2.157.462 2.31.54.155 3.507.27 3.507-.038s-.115-3.43.232-3.698c.347-.27 2.66-.154 2.66.04 0 .192-.155 2.542 0 2.85.153.308 4.393.54 4.354.193-.036-.345.118-2.695.118-2.695s2.274-.27 2.312.077c.04.347-.347 2.466.077 2.58.424.117 4.2.502 4.24.04.038-.462-.23-2.85.077-2.928.308-.077 3.392.077 3.392.193s-.193 2.504.116 2.735c.308.23 3.66.693 3.816.23.154-.46-.154-2.81.077-2.81.232 0 3.084-.117 3.084.115s-.154 4.084.04 4.122c.192.037 4.123.115 4.277-.04.155-.154.117-3.66.232-3.66.116 0 2.004-.077 2.235 1.04.23 1.117.77 6.395.732 8.167-.04 1.772-.117 2.196-.117 2.196s-2.08-2.466-2.274-2.388c-.194.077-.54.925-.463 1.08.077.153 2.66 3.196 2.813 3.428.154.23.462 3.43.347 3.39-.116-.038-3.97-4.854-3.97-4.854s-.77 1.27-.54 1.386c.23.116 4.51 5.2 4.51 5.432 0 .23.115 3.775.115 3.775s-4.586-5.663-4.74-5.625c-.155.04-.463 1.002-.31 1.194.155.193 5.32 6.434 5.32 6.55 0 .114.347 3.427.077 3.312zM12.59 13.57c-.154.23-.193 6.087-.193 6.087s1.387.076 1.58 0c.193-.078.077-6.126.077-6.126s-1.358-.122-1.464.038zm8.016 15.41c.308.424 3.7 3.698 4.008 3.775.308.077 2.968-3.39 3.16-3.39s-.04 17.837.23 18.03 7.054.192 7.247 0c.194-.194.232-29.01.232-29.01s-5.55-1.156-6.012-1.156-9.058 11.485-8.864 11.752zm9.75-10.055c.695 0 3.662.54 3.817.886.154.347-.04 25.85-.23 25.927-.194.077-4.472.04-4.472-.077 0-.116.04-19.146-.076-19.262-.116-.115-1.35-.307-1.465-.153-.117.154-3.007 4.392-3.393 4.276-.385-.116-1.81-1.657-1.927-1.965-.043-.114 7.053-9.63 7.747-9.63z"/></svg>