<svg xmlns="http://www.w3.org/2000/svg" viewBox="0 0 64 64"><path d="M54.41 59c-1.542 0-3.454-.004-4.142-1.737-.13-.327-.29-.735-.406-5.71-.114-5.013-.04-5.974 1.12-6.825.11-.08.3-.218.65-.364-.176-4.4-.407-9.836-.575-13.35-1.08.472-2.383.91-3.864 1.145-2.498.396-4.615.517-5.878.55-1.842 2.125-5.66 6.018-8.906 6.018-3.132-.035-6.017-3.146-8.486-6.087-.55.034-1.28.068-2.128.068-4.1 0-7.743-.77-10.83-2.29-7.147-3.52-9.038-8.084-10.018-12.492C.106 14.14-.38 9.206.375 7.516c.49-1.094 1.636-1.772 2.99-1.772.726 0 1.476.192 2.17.554.528.26 4.282 1.486 7.843 1.486.29 0 .577-.008.86-.026 1.867-.118 4.493-.54 7.03-.95 2.773-.445 5.166-.83 6.607-.83.232 0 .44.01.62.027 1.62.158 3.14 1.11 4.236 1.998 1.23-.764 3.014-1.61 5.184-1.89.56-.072 1.157-.107 1.826-.107 1.4 0 2.875.154 4.436.316 1.628.17 3.312.345 4.966.345.59 0 1.134-.022 1.66-.067 2.997-.257 5.16-.844 6.453-1.195.803-.218 1.288-.35 1.786-.37l.178-.01c.218-.012.46-.025.712-.025 2.63 0 3.786 1.587 3.99 3.072.22 1.596.25 9.2-3.714 14.552-1.522 2.053-2.51 3.365-3.22 4.203.17 5.685.425 13.6.574 17.048.785.317 1.516.88 1.784 1.868.024.086 1.06 10.293-.213 11.96-.626.82-1.6 1.297-4.71 1.297h-.01z" fill="#FFF"/><path d="M25 15.905c-.724-.498-2.174-.066-5.272.1-3.098.166-7.226-.116-7.383.1-.363.498-.395 1.693 1.45 3.253s3.89 2.357 7.844 2.39c3.954.033 5.37-.432 5.47-1.162.1-.73-1.384-4.183-2.11-4.68zm.363 4.15c-.165.1-4.812 1.328-7.81.066s-3.79-2.455-3.528-2.754c.307-.347 4.482-.1 6.757-.1s3.197-.332 3.494-.133c.296.2 1.252 2.822 1.087 2.922zm32.926 1.128C61.782 16.47 61.716 9.6 61.55 8.403c-.165-1.194-1.648-.995-2.406-.962-.758.034-3.494 1.163-8.14 1.56-4.648.4-9.427-.928-12.79-.497-3.36.432-5.668 2.622-5.668 2.622s-2.24-2.523-4.285-2.722c-2.043-.2-9.657 1.494-13.876 1.76-4.22.265-9.064-1.262-9.954-1.727-.89-.465-1.715-.3-1.88.066-.296.664-.263 4.448.726 8.896.988 4.448 2.8 7.933 8.733 10.854s12.59 1.826 12.92 1.925c.33.1 4.515 6.107 7.45 6.14 2.932.034 7.81-6.007 7.81-6.007s2.867.066 6.625-.53c3.757-.598 6.262-2.79 6.394-2.69.132.1.89 19.186.89 19.186s-1.35.133-1.714.398c-.363.266-.033 9.36.1 9.692s4.415.3 4.745-.133c.33-.432-.1-9.493-.198-9.858-.1-.365-1.615-.498-1.747-.498-.132 0-.725-19.982-.725-19.982s.233.002 3.726-4.712zM55.85 47.76l.088 7.48s-1.934.043-1.978-.09c-.044-.132-.483-7.036-.264-7.346l2.154-.044zm-1.68-24.884c-.1 0-1.32-1.726-1.484-1.726-.165 0-.99.432-.824.664.165.232 1.945 1.958 1.78 2.09-.165.134-.758.864-.923.83-.166-.032-2.11-2.323-2.308-2.323s-.99.532-.79.764c.197.232 2.14 2.224 2.108 2.324-.033.1-1.483 1.095-1.68.996-.2-.1-1.715-2.09-1.98-2.19-.263-.1-1.12.364-.922.53.198.166 1.747 2.124 1.615 2.257-.132.134-1.55.632-1.88.565-.33-.066-1.713-2.556-1.878-2.556-.165 0-.99.065-.857.464.132.398 1.384 2.49 1.384 2.49s-1.813.43-2.076.198c-.264-.232-1.88-2.655-2.11-2.69-.23-.032-1.25-.032-1.186.3.066.332 1.747 2.622 1.747 2.622s-1.747.232-1.846 0c-.098-.232-4.976-6.506-5.305-6.605-.33-.1-.758.497-.626.696.13.2 5.305 6.108 5.14 6.174-.164.066-.79.2-.79.2s-3.658-4.084-3.955-4.117c-.297-.033-.79.697-.56.83.23.133 3.89 3.884 3.823 4.05-.066.166-.494.564-.593.63-.1.067-3.263-3.152-3.395-3.152-.132 0-.725.598-.494.864.23.266 3.197 2.888 3.032 3.12-.165.232-.923.697-.923.697s-1.846-1.99-2.043-1.99-.395.83-.297.895c.1.066 1.582 1.626 1.55 1.826-.034.2-.66.93-.76.764-.098-.166-.625-1.03-.856-1.03-.232 0-.396.532-.265.764.132.232.626.797.593.896-.033.1-.593.266-.857.266-.263 0-6.525-6.273-7.052-6.273s-7.152 1.46-12.162-1.195c-5.01-2.655-8.8-7.7-8.404-16.198 0 0 4.614 1.76 9.36 1.36 4.746-.397 12.722-2.223 14.14-1.79s3.493 3.65 4.185 3.65c.692 0 2.637-2.888 4.977-3.32 2.34-.43 10.744.73 14.04.432 3.296-.3 7.548-1.36 7.745-1.162.197.2-.166 3.253-.364 3.22-.198-.033-2.373-2.158-2.57-2.025-.2.132-.693.73-.495.928.2.2 2.704 2.224 2.67 2.39-.032.166-.394 1.726-.526 1.693-.132-.032-2.67-2.688-2.933-2.688-.263 0-.592.697-.56.863.034.166 3.23 2.954 3.23 3.054 0 .1-.592 1.327-.592 1.327s-1.978-2.158-2.24-2.124c-.265.033-.594.797-.495.93.1.132 2.24 2.19 2.24 2.29 0 .1-.493.862-.592.796-.098-.067-1.68-1.56-1.812-1.495-.132.066-.758.63-.56.83.198.2 1.846 1.56 1.747 1.726-.1.168-1.187 1.396-1.286 1.396zm-4.91-6.672c-.957 0-9.982-.483-10.647.3-.198.23-.758 5.21-.132 5.575.627.364 3.66.1 6.428-.3 2.77-.398 4.22-1.494 5.438-2.722 1.22-1.228 1.252-2.655.923-2.888-.33-.23-1.056.034-2.01.034zm-4.154 4.183c-3.593.697-5.405.83-5.57.697-.165-.133.198-3.253.363-3.452.21-.256 9.458-.332 9.69-.2.23.133-.892 2.258-4.484 2.955z"/></svg>