<svg xmlns="http://www.w3.org/2000/svg" viewBox="0 0 64 64"><path d="M58.78 63c-1.334 0-3.35 0-4.125-1.673-.387-.834-1.238-9.49-.345-11.22.28-.54.802-.992 1.382-1.2-.113-3.626-.367-11.685-.577-18.35-1.983 1.55-4.522 3.052-7.186 3.374-1.236.15-2.53.226-3.847.226-4.157 0-8.078-.742-10.49-1.985-1.296-.668-2.304-1.302-3.043-1.82-2.042 1.268-5.977 3.083-11.758 3.083l-.444-.004c-10.385-.164-14.417-6.74-15.743-8.9C.36 20.87-.853 14.87.745 9.76.116 8.92-.196 7.86.13 6.694.62 4.937 2.4 2.947 3.447 2.157 4.24 1.557 5.126 1 6.206 1c.652 0 1.274.21 1.8.608.365.276 1.47 1.11 1.206 2.572.122.136.23.278.316.418.454.74.5 1.634.125 2.39l-.28.526c1.333.8 3.474 1.843 5.452 2.04.354.034.7.05 1.04.05 1.424 0 2.824-.27 4.178-.53 1.334-.258 2.713-.524 4.096-.524.26 0 .518.01.775.03 3.053.233 5.854 1.472 7.325 3.15 1.328-1.012 3.124-2.034 5.13-2.24.427-.044.914-.065 1.487-.065 1.305 0 2.86.11 4.507.227 1.687.12 3.43.244 4.9.244 1.372 0 2.06-.11 2.393-.204 1.618-.45 3.27-1.488 4.163-2.18-.072-.16-.147-.31-.214-.43-.776-.595-1.21-1.443-1.182-2.352.03-1.012.625-1.885 1.586-2.338.438-.206.897-.31 1.364-.31.38 0 .747.07 1.094.2.114-.058.234-.11.358-.15.367-.124.73-.15.97-.15.94 0 1.8.363 2.43 1.02.243.257.508.62.7 1.108.586.12 1.135.468 1.486.948.68.934.696 2.312.42 3.197-.004.018-.365 1.083-.98 2.07.14 1.02.253 2.797-.24 5.34-.58 2.992-1.278 5.103-1.61 6.018L61.965 49c.815.567 1.427 1.28 1.427 2.35l.013.415c.3 9.67.196 9.96-1.26 10.758-.258.143-.865.477-3.365.477z" fill="#FFF"/><path d="M22.91 17.51c-2.44-.742-4.364-.096-5.97.518-1.603.614-1.796.452-2.15.42-.352-.032-1.122-2.165-1.154-2.424-.032-.26-.513-.323-.642-.26-.128.066-.225.26-.257.97-.032.712.48 1.488.385 1.488-.096 0-.93-.388-1.38-1.1-.45-.71-.032-1.777-.032-2.067 0-.29-.546-.29-.77-.226-.225.064-.385.387-.45 1.163s.418 1.745.514 1.907c.096.162-.385.517-.578.485-.193-.032-.738-.517-1.027-.937-.29-.42-.514-1.52-.514-1.52-.32-.42-1.027-.258-1.06-.096-.03.162.258 1.616 1.028 2.747.77 1.13 1.605.775 1.893.872s.61.194 1.476 1.422 2.824 3.006 6.74 3.523c3.914.517 6.995-1.616 7.22-2.812.225-1.198-.834-3.33-3.273-4.074zm-3.145 5.72c-3.658.033-5.263-1.712-6.675-3.62 0 0 2.054.26 3.273-.128 1.22-.388 3.787-1.55 5.744-1.034 1.957.517 2.888 2.1 2.824 2.65-.063.55-1.507 2.1-5.165 2.133zm5.298-8.07c-.918.185-.99.924-.44 1.257.55.333 1.43.296 1.65-.48.222-.777-.518-.917-1.21-.777zm2.596 7.877c-.418.55.03 1.52.512 1.616.48.097 1.575-.094 1.284-1.228-.224-.872-1.532-.737-1.797-.388zm-4.156 2.653c-.297.392.023 1.083.366 1.152.343.07 1.123-.067.915-.875-.16-.622-1.092-.526-1.28-.277zm4.187-7.274c-.416.55.033 1.52.514 1.616.48.097 1.575-.094 1.284-1.228-.224-.873-1.532-.738-1.797-.388zM8.968 21.553c-.297.392.023 1.083.366 1.152.343.07 1.123-.067.915-.875-.16-.622-1.092-.526-1.28-.277zm10.638-5.432c.48.292 1.252.26 1.444-.42.192-.678-.455-.8-1.06-.678-.803.162-.867.808-.385 1.1zm31.384 2.65c.77-.354 1.315-1.486 1.507-1.938.193-.453-.16-.485-.385-.485s-.48.68-1.316 1.422c-.834.742-1.894.345-1.99.355-.32.032-.32.646 0 .84.322.194 1.413.162 2.183-.194zm-31.4 7.696c-.298.392.022 1.083.365 1.152.343.07 1.123-.067.915-.875-.16-.623-1.092-.526-1.28-.277zm-8.376-2.392c-.297.392.023 1.083.366 1.152.343.07 1.123-.067.915-.875-.16-.62-1.092-.525-1.28-.276zm3.562 1.81c-.297.392.023 1.083.366 1.152.343.07 1.123-.067.915-.875-.16-.62-1.092-.525-1.28-.276zm35.395-.775c-.296.39.024 1.082.367 1.15.343.07 1.123-.066.915-.874-.16-.623-1.092-.526-1.28-.277zM46 27.144c-.297.392.023 1.083.366 1.152s1.123-.067.915-.875c-.16-.623-1.09-.526-1.28-.277zm6.867-3.91c-.297.39.023 1.082.366 1.15.343.07 1.123-.066.915-.874-.16-.622-1.092-.525-1.28-.276zm-15.5 3.134c-.297.39.023 1.082.366 1.15.343.07 1.123-.066.915-.874-.16-.622-1.092-.526-1.28-.277zm3.947 1.13c-.297.392.023 1.083.366 1.152.343.07 1.123-.067.915-.875-.16-.622-1.092-.526-1.28-.277zm13.814-8.31c-.16 0-1.605 1.165-1.925 1.294-.32.13-1.027.097-1.187-.162-.16-.26.225-.194 1.123-1.067.897-.873 2.213-2.94 2.213-3.103 0-.162-.45-.26-.578-.26-.128 0-.385.518-1.187 1.552s-1.958 1.972-2.15 2.068c-.193.097-1.444.356-1.7.323-.258-.032-.996-.42-2.15-1.067-1.156-.646-4.11-1.55-6.74-.614-2.63.937-4.07 4.01-3.915 4.3.642 1.195 2.47 3.134 6.964 3.328 4.493.194 7.413-4.04 7.413-4.04s.866-.032 1.733-.194c.866-.162 2.278-1.487 2.535-1.745.256-.256-.29-.612-.45-.612zm-11.263 5.496c-4.01-.13-4.974-1.745-5.487-2.683-.177-.323 2.696-3.394 5.295-3.33 2.6.066 6.065 2.716 6.065 2.716s-1.862 3.425-5.873 3.296zM61.61 7.556c.16-.517-.03-1.26-.16-1.13-.127.128-1.25 2.035-1.41 2.068-.16.032-.194-.26-.226-.71-.032-.454 0-.357.064-1.973.064-1.615-1.123-1.518-1.316-1.453-.192.064-.032.516.32 1.033.354.517-.512 1.584-.61 1.584s-.545-1.13-.93-1.81c-.385-.68-.866-.873-1.348-.646-.48.226-.16.614.193.808.353.194 1.252 2.165 1.252 2.747s-3.146 3.038-6.162 3.878c-3.017.84-10.526-.45-13.67-.128-3.145.323-5.905 3.588-5.905 3.588s-.193-.26-.834-1.584c-.643-1.325-3.178-2.683-6.13-2.91-2.952-.225-6.225 1.358-10.14.97S6.64 8.59 6.512 8.333c-.13-.26.995-2.263 1.06-2.392.063-.13-.418-.517-.643-.517-.226 0-1.253 2.198-1.638 1.94-.385-.26-.192-.42.097-1.78.288-1.356 1.315-1.744 1.443-1.777.128-.032.16-.032-.225-.323-.385-.29-.866-.13-1.765.55S2.66 6.295 2.373 7.33c-.29 1.034 1.122 1.745 1.122 1.745C1.28 13.89 2.565 20 4.585 23.295s5.65 7.66 13.8 7.79c8.15.13 12.226-3.652 12.226-3.652s1.285 1.228 4.044 2.65c2.76 1.422 8.183 2.1 12.997 1.52 4.815-.583 9.628-6.336 9.628-6.336s.802 25.436.802 25.565c0 .13-1.09.194-1.637.29-.546.098.096 8.728.32 9.212s3.916.323 4.27.13c.352-.195.03-8.857.03-9.115 0-.26-1.38-.97-1.38-.97l-1.026-29.09s.93-2.26 1.67-6.075c.737-3.814-.065-5.462.095-5.527.162-.064 1.028-1.615 1.19-2.132zM4.138 7.233c.16.55-.225.873-.385.873 0 0-.642-.68-.32-1.293.32-.614.833-.97.833-.97s-.288.84-.128 1.39zM57.6 16.96c-.58 2.328-1.38 7.596-5.103 9.988-3.722 2.392-5.584 3.846-11.617 2.877s-7.54-2.586-7.958-3.07c-.417-.485-1.38-1.648-1.733-1.745-.354-.097-1.83.84-2.408 1.357-.578.517-6.77 3.555-11.84 2.586-5.07-.97-8.44-3.458-10.366-6.787 0 0-2.952-7.983-1.444-11.96.057-.15 3.05 2.425 6.996 2.91 3.947.485 5.873.388 7.766 0 1.893-.388 4.525-1.034 7.06.065 2.535 1.1 3.21 4.687 3.498 5.043.29.355 1.925.517 2.118.065.193-.452 1.22-2.424 3.177-3.75 1.958-1.324 4.974-1.324 8.73-.775 3.754.55 6.77-.097 8.086-.355 1.316-.26 4.974-2.36 5.39-2.36.417 0 .224 3.586-.354 5.913zm2.31 35.1c.128.163.32 7.24.16 7.24s-2.214.13-2.31-.03c-.096-.163-.385-7.015-.193-7.208.138-.14 2.215-.163 2.343 0zM47.118 17.05c.432.304 1.123.27 1.296-.44.173-.71-.407-.836-.95-.71-.72.17-.778.846-.346 1.15zm-8.986-.017c.55.334 1.432.297 1.652-.48.22-.777-.52-.916-1.212-.777-.917.185-.99.925-.44 1.258zm4.718-.678c.55.333 1.432.296 1.652-.48.22-.778-.52-.917-1.212-.778-.918.186-.99.925-.44 1.258zm-9.607 6.815c-.417.55.032 1.52.513 1.616s1.575-.095 1.284-1.228c-.225-.873-1.532-.738-1.797-.388zm.866-4.72c-.418.55.03 1.52.512 1.617s1.575-.095 1.284-1.228c-.224-.873-1.53-.737-1.797-.388z"/></svg>