<svg xmlns="http://www.w3.org/2000/svg" viewBox="0 0 64 64"><path d="M34.168 64c-1.694 0-6.34-.035-7.47-.195-2.23-.315-4.914-2.137-5.54-5.395l-.278-1.445c-.794-4.11-2.445-12.66-2.74-14.706-.21-1.457-.528-7.838 1.947-10.128 1.337-1.238 4.303-4.608 4.97-6.37.615-1.618.873-7.174.816-10.395-.022-1.25-.15-2.45-.25-3.238-.58-.483-1.204-1.203-1.44-2.183-.083-.343-.792-6.275.42-8.02C25.493.646 28.26 0 32.828 0l.374.004c1.62.038 5.604 1.05 6.59 2.186 1.213 1.4.713 7.996.7 8.054-.107.476-.354 1.07-1.22 1.74-.05 4.854.328 11.646 1.415 13.616.868 1.575 2.1 3.11 3.186 4.468 1.45 1.81 2.595 3.24 2.95 4.71.61 2.517-.518 19.7-.917 22.61-.604 4.396-4.313 6.257-7.306 6.515-.946.08-2.93.097-4.432.097z" fill="#FFF"/><path d="M44.616 35.3c-.46-1.9-3.92-4.994-5.922-8.624-2.002-3.63-1.668-15.927-1.668-15.927s1.168-.62 1.25-.99c.084-.372.043-5.82-.207-6.108S34.9 2.29 33.147 2.25s-6.214.288-6.672.948-.292 5.364-.083 6.23c.21.866 1.335 1.403 1.335 1.403s.375 2.147.417 4.498c.042 2.352-.083 8.912-.96 11.223s-4.253 6.025-5.545 7.222c-1.293 1.197-1.585 5.86-1.25 8.17.333 2.31 2.543 13.657 3.002 16.05.46 2.393 2.46 3.425 3.628 3.59 1.168.165 9.466.248 11.385.082 1.918-.165 4.796-1.238 5.255-4.58.455-3.342 1.414-19.887.956-21.785zM28.726 4.187c.152-.18 3.13-.536 4.296-.495 1.168.04 2.96.578 3.17.95.207.37.25 3.836 0 4.208-.25.372-1.42 1.115-3.713 1.033-2.293-.083-3.67-.372-3.795-.743-.125-.372-.166-4.704.042-4.952zm6.715 18.238c-.166.124-5.128.743-5.254.33-.125-.413-.125-11.8-.125-11.8.25.123 1.42.205 2.837.247 1.418.04 2.294-.165 2.294-.165s.418 11.264.25 11.388zm7.216 16.67s-1.835-1.363-2.085-1.28c-.25.083-.458.784-.29.908.166.124 2.168 1.32 2.293 1.527.125.207 0 1.486 0 1.486L40.53 40.58s-.375.99-.167 1.115c.208.124 2.17.99 2.17 1.114 0 .123.082 1.237.082 1.237L40.53 42.81s-.334.742-.167.907c.167.165 2.17 1.362 2.17 1.485 0 .124-.084 2.022-.084 2.022l-1.96-1.403s-.21 1.156-.043 1.28c.167.124 1.918 1.444 1.918 1.444s-.063 1.96-.156 1.93c-.095-.032-1.19-.775-1.283-.713-.094.063-.313.837-.125 1.053.188.217 1.282.928 1.282 1.083 0 .155.03 1.795-.156 1.795-.188 0-1-.68-1-.68s-.282.62-.22.805c.063.186 1 .99 1.063 1.207.064.217-.218 1.826-.343 1.764s-1.188-.99-1.188-.99-.752.433-.658.588c.094.155 1.44 1.547 1.44 1.64 0 .093-.752.774-.846.743-.094-.03-1.908-2.042-2.002-2.042-.094 0-.938.278-.657.712.28.433 1.97 1.857 1.908 2.01-.063.156-1.157.527-1.25.372-.095-.156-1.596-2.043-1.72-2.074-.126-.03-.94.155-.846.37.093.218 1.438 1.827 1.344 1.858-.094.03-10.01-.093-10.478-.464-.47-.37-2.627-8.355-3.44-14.018-.814-5.663-.814-8.788-.282-10.026.532-1.238 3.628-3.187 5.192-6.034s2.116-5.477 2.116-5.477c.46 0 5.672-.248 5.672-.248s-.375 2.764 2.71 6.684c3.087 3.92 3.587 4.21 3.796 4.58.207.37.207 1.03.207 1.03s-1.585-1.32-1.75-1.197c-.168.124-.585.866-.335 1.032.25.165 2.002.908 2.21 1.238.21.33.084 2.022.084 2.022zM39.518 49.42c-.563-.34-1.877-.31-3.503-.062-1.626.248-3.41 0-4.848-.03-1.44-.032-3.478-.602-3.878.092-.25.433-.19 5.477.155 5.725.344.248 3.315.248 5.223.124 1.908-.125 6.474-.032 7.006-.34.532-.31.688-2.88.532-3.807s-.125-1.362-.688-1.703zm-.69 4.673c-.25.062-10.04.65-10.414.155-.375-.495-.25-3.868.063-3.868.495 0 3.315.464 5.473.31 2.158-.156 4.598-.465 4.785-.31.188.154.345 3.65.094 3.713zm-12.447-18.69c-.374-.156-1.47 0-2.22 1.144-.75 1.145-.27 3.527-.125 3.713.22.28 1 .28 1.22.093.22-.186-.25-1.362-.188-2.445.063-1.083 1.282-1.33 1.595-1.578.314-.247.095-.773-.28-.928zm6.663-.682c3.315-.247 4.44-1.268 4.348-2.475-.093-1.207-1.406-2.94-4.41-2.692-3.002.248-4.733 2.027-4.69 2.754.062 1.084 1.438 2.662 4.753 2.414zm.25-4.022c1.97-.062 2.94 1.02 2.94 1.362 0 .34-.407 1.393-3.003 1.454s-3.472-.557-3.534-1.27c-.013-.153 1.627-1.484 3.597-1.546zm-2.19-16.927c-.25.28 0 6.16 0 6.407 0 .248.595.093.877-.03.282-.125 0-6.128-.063-6.314-.062-.186-.813-.062-.813-.062zm-.218-6.064c.063-.124.094-2.723 0-2.816-.094-.093-.87-.32-1.063 0-.094.155 0 2.63.094 2.878.093.247.907.062.97-.062z"/></svg>