<svg xmlns="http://www.w3.org/2000/svg" viewBox="0 0 64 64"><path d="M16.993 64c-1.705 0-4.087-.354-5.925-.88-2.795-.8-4.884-2.777-5.642-4.273-.58-1.144-.46-2.045-.26-2.6.296-.816 1.076-1.787 3.106-1.787.63 0 1.364.087 2.03.196 1.565-4.36 3.468-9.676 4.137-11.58l-.175-.39c-1.285-2.89-1.935-4.59-1.918-5.846.023-1.626 5.564-19.365 7.693-21.132.666-.555 1.417-.555 1.665-.555 1.294 0 4.464.797 6.45 1.51-.133-.566-.126-.763-.118-.94.027-.65.226-1.155.69-1.61-.964-.572-1.52-1.42-1.733-2.61-.433.183-.9.28-1.388.28-.27 0-.542-.03-.808-.09-2.367-.546-3.468-1.71-3.686-3.89-.097-.982.32-2.125 1.09-2.98.78-.868 1.835-1.347 2.967-1.347.522 0 1.048.1 1.57.3.07-.838.462-1.73 1.092-2.43C28.614.48 29.667 0 30.8 0c.826 0 1.658.252 2.47.748 1.5.913 2.17 2.73 1.673 4.52-.283 1.02-.875 1.85-1.643 2.385 1.213.8 1.824 2.23 1.62 3.716.15-.053.59-.204.59-.204 1.812-.618 4.062-1.05 5.473-1.05.675 0 1.66.08 2.4.792 1.24 1.196 7.334 18.104 7.38 18.26.854 2.92.005 6.525-.563 8.024-.354.935-.802 1.66-1.15 2.164.463 1.545 1.447 4.694 2.11 6.718 1.252-.387 2.555-.7 3.59-.7 1.508 0 2.3.66 2.696 1.217.552.77.697 1.742.412 2.737-.614 2.138-3.373 4.48-7.027 5.966-1.986.808-4.803 1.77-6.94 1.77-1.408 0-2.437-.438-3.058-1.303-.48-.668-.626-1.514-.414-2.385.376-1.552 1.897-3.133 3.548-4.298-.973-2.566-2.12-5.584-2.723-7.145-2.644-.618-4.576-1.81-5.67-3.493-.794-1.217-1.922-4.184-2.945-7.144-.634 2.316-1.327 4.65-1.905 6.14-1.607 4.148-2.862 5.358-3.464 5.94-.5.48-1.354.936-4.358 2.33l-.532.245c-.905 1.968-3.497 8.673-4.467 11.517 1.844 1.38 3.424 2.74 2.825 4.605C20.108 64 17.845 64 16.993 64z" fill="#FFF"/><path d="M41.974 33.15c-.897-.548-1.372.3-1.34.612.04.41.12.654.832.818.71.164 1.18-1.022.508-1.43zm3.187-1.24c-.568-.348-.87.19-.85.388.026.26.077.415.528.52.452.103.75-.65.323-.91zm-3.057-3.412c-.766-.467-1.172.258-1.145.524.035.35.104.56.71.698.608.14 1.007-.873.435-1.222zm-3.238-1.728c-.897-.547-1.372.302-1.34.613.04.41.12.654.832.818.71.165 1.178-1.02.508-1.43zm4.044-3.313c-.898-.547-1.373.302-1.342.613.04.41.122.654.833.818.712.164 1.18-1.022.51-1.43zm-4.527.68c-.657-.4-1.004.222-.982.45.03.3.09.48.61.6s.863-.75.373-1.05zm-15.898 4.816c.908.21 1.505-1.305.65-1.827-1.146-.698-1.753.386-1.713.783.05.52.155.834 1.063 1.043zm1.34 4.032c-1.073-.654-1.64.36-1.604.733.05.49.147.782.997.977.85.196 1.408-1.22.607-1.71zm2.738-4.435c-.635-.387-.97.214-.95.434.03.29.087.463.59.58.504.114.834-.725.36-1.014zm-6.538 5.208c-.788-.48-1.205.265-1.178.54.036.358.107.574.732.717.623.144 1.034-.898.445-1.257zm1.706 4.29c-.677-.414-1.037.23-1.013.464.03.31.092.495.63.62.537.122.89-.775.384-1.084zm9.19-32.002c1.687.388 2.795-2.424 1.205-3.394-2.128-1.297-3.254.717-3.18 1.455.095.97.288 1.55 1.975 1.94zm.522-2.606c.66.403.2 1.573-.5 1.412-.702-.16-.783-.403-.823-.807-.03-.307.437-1.145 1.322-.605zm24.21 44.452c-.733-1.022-5.67.96-5.834.98-.163.02-3.15-9.63-3.17-9.875-.02-.245.894-1.043 1.484-2.597s1.118-4.52.508-6.605c-.61-2.086-6.32-16.83-6.788-17.28-.467-.45-3.475.02-5.63.758-2.153.736-5.953 2.024-5.974 2.536-.02.51 1.605 5.193 1.605 5.193s-2.073-1.37-4.288-2.188c-2.215-.818-5.816-1.64-6.117-1.39-1.28 1.063-6.87 17.994-6.89 19.446-.02 1.453 2.277 5.93 2.236 6.156-.04.225-5.06 14.19-5.06 14.19s-4.187-1.042-4.49-.204c-.306.838 1.645 3.17 4.43 3.967 2.783.797 6.726 1.103 6.95.408.223-.695-3.03-2.78-3.253-3.067-.222-.285 4.98-13.822 5.407-14.067.427-.245 4.45-2.004 4.938-2.474.488-.47 1.504-1.432 2.947-5.154s3.72-13.29 3.72-13.29 3.495 11.51 5.04 13.883c1.544 2.37 5.364 2.72 5.425 2.76.06.04 3.84 10.04 3.84 10.04-2.742 1.39-4.592 3.7-4.063 4.436.528.736 3.252.45 7.377-1.227 4.127-1.677 6.382-4.315 5.65-5.338zm-29.855-9.1c-1.097 2.066-4.938 3.416-5.59 4.01-.65.592-5.994 14.803-6.075 15.54-.08.735 2.114 1.9 2.114 2.187 0 .285-2.886-.042-4.085-.574-1.198-.532-2.925-2.024-2.885-2.147.04-.124 2.784.633 2.947.51.163-.123 5.954-16.174 5.975-16.277.02-.102-1.504-4.437-1.605-5.48s3.414-11.574 4.37-13.29c.057-.105 1.848-.492 2.682-.267.833.225 1.707.675 2.418.716.71.04 2.398-.348 2.683-.266s1.687.51 1.666.593c-.02.082-3.515 12.678-4.613 14.743zm4.796-15.805s-.224-1.145-2.154-.757-1.87.532-2.623.41c-.752-.124-1.768-.594-2.195-.635-.427-.04-2.337.286-2.337.225 0-.06 1.057-3.64 1.158-3.722.19-.153 2.947.613 4.816 1.33 1.87.715 3.74 1.86 3.74 2.024 0 .164-.407 1.125-.407 1.125zm1.647-6.79c.102-.122 2.46-1.103 4.207-1.676 1.748-.572 4.207-1.083 4.308-.96.102.123 1.666 4.642 1.605 4.867-.06.225-2.642-.184-3.272 0-.63.184-1.89.777-2.46.777-.568 0-1.218-.327-1.645-.286-.427.04-1.524.49-1.524.49-.143-.04-1.322-3.087-1.22-3.21zm11.38 23.025c-1.28-1.595-2.987-1.697-3.84-2.515s-2.887-6.4-4.39-10.53c-1.505-4.13-1.993-6.033-1.505-5.89 0 0 .67-.327 1.463-.245.793.082 1.26.368 1.81.184.548-.184 1.198-.634 1.808-.654.61-.02 2.154.266 2.723.245.568-.02 1.178-.348 1.178-.348s3.963 10.04 4.085 10.918c.122.88-.183 4.744-.793 5.848-.61 1.104-.772 2.372-.71 2.597.06.225 3.494 11.165 3.576 11.328.08.165.264.574.183.737-.082.164-.834.266-.834.266S44.9 40.817 43.62 39.223zm5.792 13.046c-2.642 1.125-5.243 1.78-5.446 1.513-.203-.265 2.154-2.72 3.07-2.923.088-.02.487 1.145.63 1.206.14.06 1.34-.327 1.91-.593.568-.266.873-.532.77-.675-.1-.143-.304-.573-.243-.695.06-.123 3.86-2.045 4.37-1.43.507.613-2.42 2.474-5.06 3.598zM25.292 9.522c1.686.388 2.794-2.424 1.204-3.394-2.128-1.297-3.254.717-3.18 1.455.095.97.288 1.55 1.975 1.94zm.52-2.606c.66.403.2 1.573-.5 1.41-.702-.16-.782-.402-.822-.805-.03-.306.438-1.144 1.322-.604zm3.32 3.9c.088.888.265 1.42 1.808 1.776 1.544.355 2.558-2.22 1.103-3.106-1.947-1.188-2.978.656-2.91 1.33zm1.827.683c-.643-.15-.716-.37-.753-.74-.028-.28.4-1.046 1.21-.553.606.37.184 1.44-.458 1.292z"/></svg>