<svg xmlns="http://www.w3.org/2000/svg" viewBox="0 0 64 64"><path d="M46.065 63c-.233 0-.45-.016-.646-.044-3.136-.45-22.017-18.676-23.33-20.165-3.075-3.48-4.807-6.512-5.983-10.465-.294-.988-.527-1.994-.753-2.967-.508-2.186-.988-4.25-2.008-5.565-1.33-1.712-4.57-5.05-6.116-6.62-.602-.03-1.167-.217-1.643-.548-.052-.036-5.21-4.098-5.562-6.66C-.163 8.603.69 7.4 1.638 6.305 1.685 6.253 6.344 1 8.815 1c.473 0 1.02.162 1.412.426.06.04 5.93 4.247 6.195 6.384.03.24.03.463.01.673 2.082 1.947 5.248 4.652 6.733 5.26 1.03.42 2.95.87 4.808 1.302 2.96.69 6.023 1.404 7.835 2.465 1.72 1.006 6.71 4.318 15.876 13.297 2.23 2.183 4.066 3.97 5.562 5.424 4.185 4.07 5.447 5.298 5.99 6.134 1.207 1.857.966 5.138-.616 8.358-1.717 3.495-4.287 6.57-7.05 8.433C53.368 60.64 48.837 63 46.066 63z" fill="#FFF"/><path d="M22.362 25.43c1.75.53 3.762-1.03 3.4-2.787-.364-1.76-2.547-1.848-3.598-1.03-1.617 1.262-1.55 3.286.198 3.817zm1.22-3.02c.66.05 1.32.498.86 1.427-.463.93-1.948.53-2.047-.332-.1-.862.76-1.128 1.188-1.095zm37.65 21.27c-.56-.862-3.596-3.682-11.218-11.15-7.623-7.465-12.803-11.414-15.41-12.94-2.607-1.527-9.503-2.457-12.34-3.618S13.78 9.27 13.65 9.137c-.132-.133.462-.498.396-1.03-.066-.53-4.554-4.28-5.147-4.678-.595-.4-6.667 5.01-6.502 6.205.165 1.195 4.125 4.712 4.554 5.01.43.3 1.122-.032 1.122-.032s5.28 5.276 7.16 7.7c1.882 2.42 2.212 6.105 3.17 9.324.956 3.22 2.342 6.006 5.477 9.557 3.136 3.55 20.262 19.147 21.88 19.38 1.616.23 5.774-1.594 8.48-3.42 2.705-1.824 4.883-4.744 6.236-7.5 1.35-2.754 1.318-5.11.757-5.973zM8.075 11.99c-.56-.065-2.937-2.156-3.036-2.654-.06-.3 3.07-3.285 3.63-3.086.56.2 2.904 2.49 2.607 2.987-.298.497-2.64 2.82-3.2 2.754zm9.932 10.653c-.726-1.062-1.75-2.29-1.75-2.456 0-.166.496-2.622.298-2.82-.198-.2-.693-.5-.825-.366-.133.134-.034 2.19-.298 2.092-.264-.1-1.254-1.228-1.254-1.427 0-.2.43-2.854.23-3.02-.197-.166-.758-.43-.824-.3-.066.134-.297 2.324-.297 2.324s-.726-.864-.726-1.063c0-.2.298-2.157-.065-2.29s-.924-.265-.957-.066c-.033.2.132 1.627-.132 1.46-.264-.165-1.09-1.16-1.254-1.393-.11-.153 2.013-2.555 2.31-2.39.297.167 5.214 5.012 7.194 6.206s4.95 2.223 6.633 2.588c1.682.366 2.705.532 2.705.532s-2.508 2.82-2.41 3.086c.1.265 1.288 5.243.958 5.177-.33-.066-5.082-1.493-5.412-1.294-.33.2-1.748 1.893-1.913 1.826s-1.485-5.34-2.21-6.403zm40.49 26.182c-.66 1.228-1.09 1.593-1.09 1.593s.33-2.456.132-2.588c-.198-.133-.924 0-.924.232s-.132 4.18-.23 4.347c-.1.165-1.288 1.56-1.42 1.36-.132-.2.33-4.413.132-4.48-.198-.066-.924.365-.957.564-.034.2.032 4.68-.067 4.812-.1.133-1.914 1.427-1.914 1.427s.197-3.916.065-4.015c-.132-.1-1.056.232-1.056.398s.032 4.38-.1 4.48c-.132.1-1.584.995-1.683.83-.1-.166.495-5.144.264-5.177-.23-.034-1.088.032-1.088.298s-.198 5.51-.363 5.51c-.166 0-1.486.23-1.585-.134-.1-.365.396-5.21.23-5.31-.164-.1-.758-.198-.824.1-.065.3-.065 4.58-.395 4.448-.33-.133-1.485-1.195-1.485-1.294 0-.1.264-4.015.033-4.082-.23-.066-.957-.033-.99.133-.033.165.132 2.786 0 2.786s-1.287-.93-1.287-1.095c0-.165.033-2.952.033-2.952s-1.123-.033-1.09.133c.033.167-.066 1.992-.066 1.992s-8.216-6.404-13.2-11.714c-4.982-5.31-6.07-7.135-6.434-8.628-.363-1.493-.627-2.323-.56-2.49.104-.264 1.748-1.89 2.012-1.824.264.066 5.115 1.327 5.676 1.36.56.033.99-.763.792-1.394-.198-.63-1.155-4.68-1.056-5.01.1-.333 2.475-2.722 2.475-2.722s2.31-.033 6.137 2.92C40.445 26.593 48.2 34.657 51.96 37.91c3.763 3.25 6.403 5.508 6.997 6.9.593 1.393.198 2.787-.462 4.015zM35.825 26.36c-.66-.266-2.674 1.56-4.588 3.815-1.914 2.257-5.618 5.08-5.412 5.84.297 1.095 11.846 12.18 12.902 12.743 1.056.564 5.577.664 6.7.465 1.12-.2 2.77-.365 3.266-1.925.495-1.56.43-7.234-.363-9.092-.79-1.858-11.845-11.58-12.505-11.847zm11.45 20.772c-1.024 1.526-7.888.564-8.25.3-.364-.266-11.352-11.018-11.715-11.582-.193-.3 7.624-8.196 8.184-7.898.56.3 11.285 9.856 11.582 10.652.298.797 1.222 7.002.2 8.528zM35.593 32.996c-.198-.033-3.345 2.884-3.234 3.22.066.198.462.795.792.928s2.97-2.887 3.2-3.318c.232-.432-.56-.797-.758-.83zm2.772 2.323c-.264-.067-3.638 3.507-3.597 3.716.032.166.692.962.89.962.198 0 3.432-3.385 3.597-3.717.165-.33-.627-.895-.89-.96zm3.3 2.587c-.165-.033-3.246 2.795-3.07 3.152.1.198.595.928.727.928s3.003-2.854 3.07-3.285c.065-.43-.562-.763-.727-.796z"/></svg>