<svg xmlns="http://www.w3.org/2000/svg" viewBox="0 0 64 64"><path d="M10.347 60c-.31 0-1.134 0-1.865-.6-.833-.68-1.294-1.058-5.06-23.247C1.74 26.26-.213 14.095.02 12.315c.27-2.09.286-2.216 17.96-5.38C22.904 6.052 34.722 4 38.05 4c1.502 0 2.493.547 2.944 1.624.284.677.778 2.994 2.642 12.393l.307 1.545 1.345-2.196c1.303-2.13 2.644-4.32 3.67-5.977 2.298-3.723 2.436-3.946 3.86-3.946.647 0 .865 0 5.6 2.664 4.68 2.632 5.462 3.3 5.568 4.772.078 1.108.078 1.108-8.49 15.1-2.677 4.373-5.94 9.7-6.89 11.397.105.697.313 1.91.49 2.936 1.1 6.416 1.17 6.927.482 7.95-.71 1.06-.802 1.198-18.94 4.517C24.072 57.984 12.704 60 10.35 60z" fill="#FFF"/><path d="M61.535 15.056c-.045-.63-8.582-5.167-8.717-5.167-.136 0-9.892 16.128-10.027 16.173-.134.045-3.612-18.42-4.064-19.5-.452-1.077-36.196 5.5-36.27 6.067-.316 2.426 6.82 44.255 7.588 44.884s37.218-6.2 37.49-6.604c.27-.404-1.49-9.3-1.446-9.974.045-.675 15.492-25.25 15.447-25.88zM11.49 55.582c-.18-.45-7.182-39.268-7.136-41.604.003-.142 32.746-5.302 32.927-5.032.182.27 3.885 19.5 3.84 19.86-.045.358-2.71 3.818-2.846 3.818-.135 0-13.46-10.378-13.776-10.378-.316 0-7.995 8.042-7.86 8.536.136.494 23.307 18.24 23.76 18.466.45.225 4.02-5.48 4.154-5.257.135.226.677 5.662.677 5.662s-33.56 6.38-33.74 5.93zm34.35-18.084c-.17 0-2.643-1.82-2.78-1.82-.134 0-.54 1.01-.54 1.01l2.607 1.854-1.118 1.718s-2.508-1.65-2.677-1.65c-.17 0-.745.707-.508.91s2.71 1.616 2.676 1.785c-.033.168-1.22 2.157-1.32 2.157S38.827 40.8 38.726 40.8s-.88.573-.576.91c.305.337 3.286 2.73 3.252 2.83-.034.102-.644 1.82-.915 1.72-.27-.102-21.274-15.535-21.138-16.074.134-.54 4.888-5.11 5.238-5.335.268-.17 13.144 11.098 13.82 10.65.678-.45 14.906-22.78 15.313-22.69.408.09 4.834 3.1 4.834 3.1L50.65 28.85s-1.423-.787-1.524-.754c-.102.034-.508.775-.34.876.17.1 1.288.74 1.288.74s-.915 2.158-1.016 2.124c-.102-.034-1.524-.91-1.66-.91-.135 0-.542.842-.44.91l1.592 1.045-1.05 1.922s-2.1-1.213-2.202-1.213-.61.942-.474 1.044c.136.1 2 1.348 2 1.348s-.815 1.516-.985 1.516zM35 14.18c-.07-.1-25.514 3.225-25.746 3.572-.068.1-.17 1.078 0 1.213s25.847-3.27 25.982-3.437c.136-.17-.17-1.247-.237-1.348zM20.263 25.064c0-.1-9.52 1.213-9.925 1.415 0 0 .134.91.236 1.11s8.672-1.212 8.875-1.28c.204-.067.814-1.145.814-1.246zm9.247.034s6.607-.944 6.64-1.045c.035-.1-.168-1.213-.27-1.213s-7.453 1.146-7.757 1.213c-.166.037 1.388 1.045 1.388 1.045zm-7.52 12.198c-.168-.067-9.45 1.15-9.687 1.28-.305.17-.068.91.068 1.045.137.136 10.367-1.448 10.604-1.55.237-.1-.813-.707-.983-.774zm6.47 5.358c-.202-.135-15.076 2.514-15.31 2.56-.34.068 0 .742.168.945.17.2 15.82-2.596 15.99-2.697.17-.102-.643-.675-.847-.81zm3.592 4.582c-.237-.1-17.876 2.8-18.157 3-.237.168.034.943.27 1.044.238.1 18.395-3.47 18.395-3.47s-.27-.473-.508-.574zm-9.52-17.15s.44-.742.51-.91c.067-.17-.506-.763-.61-.742-.17.034-1.322 1.584-1.525 1.887-.203.304 3.896 3.067 4.234 3.236.34.17.475-.37.543-.708.068-.337-3.15-2.763-3.15-2.763z"/></svg>