<svg xmlns="http://www.w3.org/2000/svg" viewBox="0 0 64 64"><path d="M33.906 64c-.616 0-1.25-.01-1.902-.033C21.128 63.59 10.44 59.17 10.01 54.87c-.066-.684-.066-.684 7.142-16.917 3.98-8.966 8.493-19.13 9.433-21.4.836-2.02 1.424-3.427 1.904-4.426-.598-.265-1.077-.687-1.373-1.228-.412-.754-.43-1.656-.05-2.476.115-.25.367-.722.635-1.222.03-.058.065-.12.1-.188-.664-.706-1.173-1.533-.858-2.647.238-.846.996-2.817 2.862-2.817.4 0 .785.1 1.13.293C31.563.926 32.467 0 33.573 0c1.308 0 2.703.93 2.865 2.342.67.063.778.09.896.12.898.226 1.582.982 1.827 2.022.25 1.06-.056 2.082-.814 2.737-.108.094-.39.36-.7.654.742 1.962.742 2.185.742 2.542 0 .535-.2 1.066-.53 1.522 1.882 4.337 10.154 24.982 12.084 30.107 1.8 4.78 3.962 11.14 4.048 12.175.068.816-.15 3.3-1.946 4.976C50.13 60.98 44.157 64 33.906 64z" fill="#FFF"/><path d="M51.802 54.405c-.04-.487-1.694-5.687-3.912-11.576-2.218-5.89-11.696-29.45-12.3-30.587-.606-1.137-1.856-1.056-1.977-1.097-.12-.04-.08-1.625-.08-1.625s1.45 1.18 1.733 1.463.928-.325.928-.57c0-.243-1.13-3.127-1.13-3.127S36.64 5.783 36.92 5.54c.282-.245.04-.895-.12-.935-.162-.04-2.22-.203-2.22-.203s-.322-1.625-.322-1.787c0-.162-.403-.406-.686-.406S32.16 4.077 32.04 4.4c-.122.325-1.816-.366-2.14-.61-.322-.243-.765.895-.846 1.18-.08.283 1.37 1.42 1.412 1.583.04.162-1.13 2.193-1.412 2.803-.282.61.403.812.726.853.323.042 2.58-1.096 2.58-1.096l.04 2.153s-.523.162-.967.366c-.444.203-1.008 1.38-2.823 5.768S12.175 54.447 12.195 54.65c.202 2.03 8.147 6.702 19.884 7.108 11.736.406 17.382-3.168 18.47-4.184 1.09-1.014 1.292-2.68 1.252-3.167zm-21.033-46C30.64 8.387 31.98 6.78 32 6.72c.02-.062-.808-1.22-.707-1.26.1-.04 1.05.386 1.25.284.202-.102.585-1.26.686-1.24.1.02.2 1.098.422 1.2.222.1 1.37-.163 1.412-.042.04.122-1.23 1.36-1.25 1.543-.02.183.726 1.178.625 1.3-.102.122-1.453-.67-1.614-.67-.16 0-1.775.61-2.057.57zm1.007 6.235c.565-1.26.928-1.95 1.633-1.868.28.032 1.855 2.153 3.388 6.418 1.533 4.265 3.206 8.53 3.186 8.692-.02.162-2.037.59-3.71-.447-1.675-1.036-2.38-2.376-2.48-2.376-.102 0-1.776 1.603-4.216 1.705-2.44.1-3.005-.487-2.924-.894s4.56-9.97 5.123-11.23zM26.15 27.11c.13-.19 1.554.894 3.59.772 2.038-.122 3.63-1.3 3.732-1.26.1.042 1.674 2.174 4.154 2.5 2.48.324 2.843 0 2.843 0s2.66 6.336 2.64 6.54c-.02.202-1.27 1.725-2.883 1.847-1.613.12-3.166-1.077-3.388-1.118s-.606.06-.626.183c-.02.122-1.23 2.823-3.348 3.33-2.117.51-4.194-.79-4.396-.954-.202-.16-.968-.222-.968.062 0 .284-1.29 3.006-3.67 3.27-2.38.264-4.416.08-4.356-.183.06-.266 5.99-13.995 6.675-14.99zm10.91 32.86c-8.71.426-14.72-.487-18.43-2.62-3.712-2.132-4.438-2.376-4.458-2.782-.02-.406 1.674-4.51 1.815-4.69.203-.264 1.674 1.97 3.852 1.827 2.177-.142 3.387-1.097 3.387-1.097s.807 3.37 4.88 3.838c4.074.467 6.07-2.295 6.19-2.254.122.04 1.634 2.64 5.143 3.067 3.51.425 4.638-1.484 4.638-1.484s1.39 2.112 4.92 2.295c0 0-3.226 3.474-11.937 3.9zm12.725-5.2c-.343.163-2.783-.202-3.348-.547-.565-.345-1.25-1.178-1.573-1.645-.323-.467-.686-.772-1.15-.102-.463.67-2.338 2.803-4.84 1.564-2.5-1.24-3.75-3.128-4.032-3.31-.282-.183-.807-.102-.907.08-.1.184-2.5 3.19-5.364 2.58-2.863-.61-4.294-3.21-4.415-3.513-.12-.305-.665-.772-.907-.67-.242.102-2.097 2.072-4.295 1.198-2.198-.873-2.44-1.747-2.42-2.03.02-.285 2.32-5.16 2.48-5.28 0 0 2.884.994 5.485.14 2.6-.852 3.65-2.68 3.65-2.68s2.763 1.442 5.263.345c2.502-1.097 3.328-2.782 3.328-2.782s2.037 1.178 3.953.59c1.917-.59 2.945-1.87 2.945-1.87s5.586 14.786 5.828 15.538c.242.75.665 2.232.322 2.395zm-18.19-33.144c1.332.122 2.32-.955 2.018-1.99-.303-1.036-1.713-1.654-2.5-1.076-1.554 1.137-.848 2.944.483 3.066zm-.042-2.313c.372-.273 1.038.02 1.18.508.144.49-.323 1-.95.94-.63-.056-.963-.91-.23-1.447zm3.854 4.608c1.33.123 2.32-.954 2.017-1.99-.303-1.035-1.712-1.653-2.5-1.075-1.554 1.137-.848 2.944.483 3.066zm-.073-2.39c.38-.28 1.064.02 1.21.52s-.332 1.023-.976.964c-.644-.06-.985-.934-.234-1.484zM30.95 33.527c1.332.122 2.32-.955 2.018-1.99-.302-1.036-1.712-1.654-2.5-1.076-1.554 1.138-.85 2.946.483 3.067zM30.91 31.2c.39-.285 1.09.02 1.24.535.15.513-.34 1.047-1 .987-.66-.06-1.01-.957-.24-1.52zm7.267 1.865c.626.057 1.09-.45.95-.936-.143-.488-.806-.78-1.177-.507-.73.535-.4 1.385.227 1.442zM25.44 37.22c1.658.153 2.89-1.19 2.512-2.48-.377-1.29-2.134-2.06-3.116-1.34-1.935 1.417-1.056 3.67.603 3.82zm-.124-3c.53-.388 1.476.027 1.68.723.202.696-.46 1.42-1.355 1.337s-1.367-1.297-.324-2.06zm-5.092 10.712c-1.96 1.436-1.07 3.72.61 3.873 1.682.154 2.93-1.205 2.548-2.513-.382-1.31-2.162-2.09-3.158-1.36zm.82 2.944c-.894-.082-1.368-1.296-.325-2.06.528-.388 1.475.027 1.678.723.203.695-.46 1.418-1.354 1.336zm7.04-1.15c-2.304 1.69-1.256 4.373.72 4.554s3.442-1.417 2.993-2.955c-.45-1.537-2.542-2.455-3.712-1.598zm.93 3.494c-1.155-.106-1.768-1.676-.42-2.664.686-.502 1.91.035 2.173.935.263.9-.596 1.835-1.752 1.73zm4.752-6.374c-1.043.764-.57 1.978.325 2.06.895.082 1.56-.64 1.355-1.337-.203-.697-1.15-1.112-1.68-.724zm11.494 3.818c-1.043.764-.57 1.978.325 2.06.894.082 1.558-.64 1.354-1.337-.203-.695-1.15-1.11-1.68-.723zm-6.338-5.718c-1.917 1.404-1.046 3.636.598 3.786 1.643.15 2.863-1.178 2.49-2.457-.375-1.28-2.115-2.042-3.088-1.33zm.784 2.79c-.785-.072-1.2-1.137-.285-1.808.466-.34 1.297.024 1.475.635.178.61-.405 1.244-1.19 1.173zM39 48.652c-1.846 1.352-1.007 3.5.575 3.646 1.582.145 2.757-1.135 2.398-2.366-.36-1.23-2.036-1.966-2.973-1.28zm.79 2.63c-.69-.063-1.056-1.002-.25-1.592.41-.3 1.14.02 1.298.56.157.536-.356 1.095-1.047 1.032zM16.61 52.91c-.662.484-.36 1.253.205 1.304.566.052.986-.406.858-.847-.13-.44-.73-.702-1.064-.457zm4.626 1.102c-1.693 1.24-.924 3.21.528 3.344 1.45.133 2.53-1.04 2.2-2.17-.332-1.13-1.87-1.803-2.728-1.174zM22 56.404c-.628-.058-.96-.91-.228-1.448.372-.273 1.038.02 1.18.508.144.49-.322.997-.95.94zm11.082-1.742c-1.826 1.337-.996 3.463.57 3.606 1.564.143 2.726-1.122 2.37-2.34-.355-1.218-2.013-1.945-2.94-1.266zm.837 2.57c-.708-.066-1.082-1.025-.258-1.63.418-.306 1.167.023 1.328.572.16.55-.365 1.122-1.07 1.057z"/></svg>