<svg xmlns="http://www.w3.org/2000/svg" viewBox="0 0 64 64"><path d="M50.005 63c-7.46 0-21.77-.298-31.24-.496-4.576-.095-8.192-.17-9.07-.17-4.746 0-7.808-3.3-8.28-6.407C1.085 53.76.01 22.81.01 17.717L.005 16.19C-.023 10.88-.05 5.864 3.735 3.13 5.88 1.577 10.278 1 12.545 1c6.628 0 39.79.002 41.834.053 4.65.117 7.742 2.863 8.273 7.345.51 4.298 1.444 19.992 1.34 29.324l-.016 1.288c-.13 11.844-.236 16.146-.91 17.926-.616 1.627-2.06 5.436-8.36 5.967-.486.042-1.503.097-4.702.097z" fill="#FFF"/><path d="M59.8 8.736c-.476-4.015-3.38-4.755-5.492-4.808-2.112-.053-39.387-.053-41.763-.053s-5.823.643-7.128 1.585c-2.85 2.06-2.534 6.604-2.534 12.258s1.11 36.033 1.373 37.777 2.165 3.963 5.438 3.963 40.39.95 44.772.58c4.382-.37 5.333-2.588 5.913-4.12.58-1.532.633-8.823.738-18.228.106-9.405-.844-24.938-1.32-28.954zm-3.75 30.01c.21.21 2.534 1.796 2.534 1.955 0 .16.106 3.488-.053 3.488-.157 0-2.64-2.008-2.64-2.008s-.79.475-.474 1.057c.317.58 2.85 2.483 2.85 2.483l-.21 3.434s-2.904-2.96-3.062-2.96c-.158 0-.74.74-.528 1.005.21.263 3.485 3.328 3.537 3.486.053.16-.158 4.385-.37 4.12-.21-.263-3.062-4.86-3.432-4.86-.37 0-.897.95-.79 1.11.105.158 4.17 4.7 3.906 4.965-.264.265-1.9 1.005-2.112 1.005-.21 0-2.482-3.646-3.062-3.75-.58-.107-1.003.37-.898.633.106.264 2.693 3.54 2.693 3.54s-1.373.423-1.742.21c-.37-.21-2.43-2.377-2.587-2.377-.158 0-1.162.265-1.003.582.158.317 2.165 2.113 1.637 2.113s-35.11-.528-37.75-.58c-2.64-.054-4.857 0-5.333-1.375-.476-1.374-.95-22.455-1.215-31.965C5.68 14.548 4.942 8.26 7.265 7.31c1.283-.525 9.292-1.427 13.727-1.427s29.197.475 31.89.423c2.693-.053 4.013 1.215 4.277 3.33.263 2.112 1.16 17.382 1.266 20.182.106 2.8 0 4.438 0 4.438s-.74-.687-.898-.528c-.158.16-.58.634-.422.845.158.21 1.53 1.48 1.53 1.48l-.052 3.433-2.217-1.796s-.528.845-.317 1.056zM31.5 14.496c1.32.633 2.586.527 2.85-.582.264-1.11-.22-2.88-2.112-2.536-1.742.317-2.058 2.483-.74 3.117zm12.513-2.137c-1.446.262-1.71 2.06-.614 2.587 1.095.526 2.147.44 2.366-.482.22-.922-.183-2.392-1.753-2.106zm7.03 7.58c-1.1.2-1.3 1.57-.466 1.97.834.4 1.635.334 1.802-.367.166-.7-.14-1.82-1.336-1.603zm-1.27 13.54c.983.472 1.927.394 2.124-.433.197-.827-.165-2.146-1.574-1.89-1.3.236-1.535 1.85-.55 2.323zm.532 9.625c-1.397.254-1.65 1.99-.593 2.5 1.058.508 2.074.424 2.286-.466.212-.89-.177-2.31-1.693-2.035zm-6.09 7.646c-1.2.22-1.417 1.71-.508 2.148.91.437 1.78.364 1.963-.4.182-.765-.152-1.984-1.454-1.747zm-12.98-.96c-1.742.316-2.06 2.482-.74 3.116 1.32.634 2.588.528 2.852-.58.264-1.11-.22-2.88-2.112-2.537zm-13.03-.028c-1.398.254-1.652 1.99-.594 2.5 1.06.508 2.075.424 2.287-.466.212-.89-.177-2.31-1.693-2.034zm-5.464-7.956c-1.534.28-1.813 2.188-.65 2.746 1.163.558 2.28.465 2.512-.512.232-.978-.195-2.538-1.86-2.234zm.386-12.2c-1.742.317-2.06 2.483-.74 3.117 1.32.634 2.588.528 2.852-.58.264-1.11-.22-2.88-2.112-2.537zm.158-12.046c-1.742.317-2.06 2.483-.74 3.117 1.32.634 2.588.528 2.852-.58.264-1.11-.22-2.88-2.112-2.537zm6.6-4.597c1.32.634 2.587.528 2.85-.58.265-1.11-.22-2.88-2.11-2.537-1.743.317-2.06 2.483-.74 3.117zM12.81 8.26c-2.218.107-4.33 1.322-4.753 2.273-.422.95-.35 5.833-.158 6.023.633.634 1.9.158 1.953-.16.053-.316-.422-4.86 1.11-5.864 1.53-1.004 4.223-.792 4.54-.792.317 0 .317-.423.317-.898 0-.476-.793-.687-3.01-.58zM30.18 31.88c-3.168 3.963 2.323 4.808 3.168 4.174.845-.634 1.742-2.272.686-3.857-1.056-1.585-2.85-1.575-3.854-.317zm2.903 2.43c-.158.476-.95.37-1.584.21-.635-.158-.95-1.373.42-1.795.86-.264 1.322 1.11 1.163 1.585zM30.338 16.66c-.158 0-.053 10.62-.317 10.62s-5.543-12.996-6.123-13.313c-.58-.317-4.113 1.29-4.013 1.69.106.424 7.867 16.96 8.29 17.014s1.74-2.218 2.85-2.535c1.11-.317 2.48.21 2.957.21.476 0 .9-13.102.74-13.525-.158-.423-4.224-.16-4.382-.16zm-.634 12.84c-.264.476-.634 1.057-1.267.528s-6.44-13.737-6.494-14c-.108-.542 1.162-.635 1.426-.265.263.37 6.598 13.262 6.334 13.737zm3.38-.95c-.212 0-1.32.263-1.374-.107-.053-.37-.106-9.933 0-10.09 0 0 1.11-.054 1.426-.054s.16 10.25-.053 10.25z"/></svg>