<svg xmlns="http://www.w3.org/2000/svg" viewBox="0 0 64 64"><path d="M30.95 64c-1.532 0-2.13-.137-2.51-.272-.438-.154-.81-.38-1.124-.654-1.666.844-2.396.844-2.69.844-.133 0-.357-.018-.49-.04-1.69-.283-3.408-2.196-4.04-3.4-.67-1.284-.474-2.286-.19-2.9.057-.12.118-.262.177-.41-4.376-7.167-4.033-8.2-3.73-9.117.3-.9 1.14-1.927 3.873-4.992.458-.513 1.037-1.162 1.397-1.584.03-1.038.012-3.135-.042-4.413-.098-.05-.202-.106-.312-.164-1.33-.702-2.45-1.307-3.402-1.837 1.137 2.307 2.302 5.095 2.01 6.344-.416 1.778-2.118 3.665-4.455 3.665-.15 0-.306-.01-.464-.026-.085-.01-.17-.022-.254-.036l-.008.03c-.495 1.737-2.512 3.495-5.413 3.495l-.17-.003c-2.13-.05-3.83-1.79-3.87-3.96-.023-1.34.614-2.783 2.008-3.713l-.12-.234c-2.04-3.94-2.97-5.74-1.165-7.227.576-.475 4.15-2.323 6.504-2.89-.27-1.27-.373-4.746-.405-6.236-.12-5.488.045-6.437 1.265-7.255.528-.355 1.12-.605 3.942-.605.805 0 1.596 0 2.313.077 1.175-3.93 4.618-6.334 9.407-6.334h.143c2.61.026 4.702.98 6.15 2.71.448-2.524 2.167-3.213 4.605-3.463.342-.035.672-.05.987-.05 3.03 0 5.254 1.428 5.41 3.475.01.112.038 12.607-.893 14.88-.536 1.31-2.045 2.514-4.667 4.528-.963.74-2.353 1.808-2.93 2.388-.067 1.947.16 8.753.33 13.836.433 12.906.433 12.906-.172 13.82-.43.646-1.148 1.724-7.004 1.724zm18.905-15.036c-.607 0-1.16-.096-1.642-.284-.937-.366-1.712-1.232-2.133-2.265-.562.294-1.233.438-2.048.438-1.31 0-3.73-.452-5.038-1.7-1.09-1.04-1.348-2.842-.655-4.59.765-1.932 2.492-3.133 4.508-3.133.075 0 .15.002.224.005.68-2.13 1.478-3.197 2.954-3.322.067-.006.165-.01.232-.01.075 0 8.09.993 9.35 2.9 1.25 1.884-1.17 9.708-1.725 10.375-.97 1.17-2.777 1.586-4.028 1.586zm1.602-28.233c-.25 0-.504-.015-.764-.05-1.823-.252-3.2-1.545-3.59-3.377-.402-1.884.33-3.836 1.776-4.746.38-.24.813-.425 1.294-.556-1.154-4.86-.947-5.573.114-6.488 1.17-1.01 3.952-1.224 4.45-1.224.927 0 1.653.226 2.22.69 1.353 1.117 2.23 5.12 2.006 6.44-.168.99-.798 1.774-1.687 2.1-.125.046-.252.083-.382.113.48 2.94.482 3.81-.426 4.727-1.917 1.966-3.78 2.374-5.013 2.374zm-36.62-5.77c-.407 0-.816-.045-1.216-.134-1.545-.34-2.712-1.54-3.044-3.133-.345-1.655.264-3.333 1.55-4.273.67-.49 1.52-.74 2.52-.74.27 0 .54.017.805.047C17.41.54 17.7.455 18.94.1c.216-.063.487-.1.712-.1.737 0 5.155 1.33 5.917 3.116.637 1.497-.497 4.822-1.03 5.638-.775 1.182-1.86 1.31-2.29 1.31-.263 0-.565-.05-.815-.134l-.265-.09-.197.51c-1.023 2.632-1.587 4.082-3.426 4.082h-.324c-.568.262-1.39.527-2.385.527z" fill="#FFF"/><path d="M7.508 35.296c-.493.406 3.495 7.01 3.047 7.036-3.81.225-3.36 3.7-1.39 3.744 1.973.045 3.004-1.082 3.183-1.714.18-.63-2.644-6.675-2.78-6.99-.133-.317 3.54-1.76 3.99-1.625.447.135 1.747 3.563 1.747 3.563s-.94.226-1.255.722c-.314.496-.09 2.436 1.165 2.57 1.255.136 2.106-.99 2.286-1.758.18-.767-3.046-7.262-3.54-7.938-.49-.677-5.96 1.984-6.452 2.39zm35.628-8.525c.627-1.533.762-13.17.717-13.756-.045-.586-1.524-1.398-3.72-1.173-2.196.227-2.33.678-2.465 1.535-.134.857.045 9.878-.314 10.645-.358.767-4.347 3.7-4.75 3.744-.403.045-1.658-.767-1.927-.992-.27-.225.09-1.082.09-1.082.94-.135 4.392-1.714 4.347-5.503s-1.344-7.532-6.005-7.577c-4.662-.045-7.485 2.526-7.53 6.946-.045 4.42 5.02 6.405 5.02 6.405l.044.858-2.823 1.534s-3.09-1.985-3.315-2.255c-.224-.27-.224-6.585-.314-6.946-.09-.36-5.108-.36-5.51-.09-.404.272-.135 9.834.178 10.96.314 1.13 8.784 5.278 9.008 5.504.224.226.27 6.405.134 6.856-.134.45-5.02 5.503-5.333 6.45-.314.947 4.123 8.074 4.123 8.074s-.358 1.037-.672 1.714c-.314.677 1.613 2.706 2.42 2.842.807.135 3.764-1.804 3.764-1.804s.045 1.443.94 1.76c.897.315 6.32.044 6.678-.497.358-.542-.896-25.755-.493-27.154.404-1.402 7.08-5.46 7.71-6.995zM24.18 19.555c-.135-1.94.85-5.142 3.853-5.277 2.687-.12 4.84 1.398 4.75 5.097-.09 3.7-2.06 4.375-4.437 4.42-2.374.045-4.032-2.3-4.167-4.24zm4.48 34.1c-.133.09-1.478-2.933-1.478-2.933l1.12-1.172c.404.18.493 4.015.36 4.105zm4.527-13.893s-.986-1.217-1.165-1.08c-.18.134-.493 1.127-.27 1.352.225.226 1.525 1.173 1.525 1.308s-.09 2.075-.09 2.075l-1.613-1.85s-.538 1.31-.224 1.67c.314.36 2.017 2.255 2.017 2.706 0 .452.717 12.946.314 13.216-.402.27-3.046.316-3.046 0s.18-12.268-.134-12.855c-.314-.585-.986-.54-1.39-.45-.402.09-4.615 3.202-4.57 3.924.045.722 3.406 7.126 3.406 7.352s-2.33 2.48-2.778 2.165c-.448-.315-1.12-.946-.85-1.127s.94-1.353.94-1.58c0-.225-4.347-6.314-4.257-7.396.09-1.082 5.558-5.818 5.513-6.224-.045-.406-.36-8.254-.36-8.254s-8.783-4.737-8.917-5.368c-.134-.63-.896-8.525-.36-8.48.54.045 1.39.09 1.39.226 0 .135.224 5.728.224 5.728s5.647 4.24 5.915 4.24c.27 0 3.854-1.308 4.93-1.263 1.076.045 3.137.992 3.54.677.403-.316 6.274-5.097 6.543-5.593.27-.496.448-10.825.448-10.825.448-.09 1.524-.27 1.793-.045.268.226-.046 10.554-.404 11.456-.358.902-7.842 6.856-8.067 7.577s-.003 6.72-.003 6.72zM14.14 12.43c1.435.316 2.466-.45 2.466-.45h.94s2.107-5.008 2.107-5.143c0-.135 2.017.586 2.554.767.538.18 1.255-3.202 1.12-3.518-.134-.316-3.375-1.723-3.72-1.624-.314.09-2.51 7.172-2.51 7.172s-2.554-.947-3.54-.226-.85 2.706.584 3.022zm32.088 24.13c-.538.046-1.434 3.88-1.434 3.88-3.9-2.03-4.974 2.12-4.123 2.932.852.812 3.497 1.308 4.303.857.807-.45 1.48-4.736 1.837-5.052.358-.316 5.512.586 5.512.586l-.627 3.564s-.358-.496-2.33 0-1.076 2.75-.27 3.067c.808.317 2.466-.044 2.914-.585.447-.54 1.836-7.036 1.568-7.442-.27-.406-6.812-1.85-7.35-1.804zM55.415 6.88c-.493-.406-3.18.184-3.54.496-.314.27 1.39 6.946 1.39 6.946s-2.018-.36-3.093.316c-1.076.677-1.12 3.338.85 3.608 1.973.27 3.497-1.398 3.72-1.624.225-.226-.67-4.916-.67-5.142 0-.226 1.88-.09 2.374-.27.493-.18-.538-3.924-1.03-4.33zm-27.068 9.698c-2.15.226-2.465 3.022-2.33 3.293.134.272.986.317 1.255.18.27-.134.314-1.036.493-1.623.18-.586.85-.767.94-.902.09-.135-.033-.98-.358-.947zm-.94 16.147c-.18.316-.315 3.293-.225 3.653.09.36.94.09 1.076.045.134-.045.045-3.518 0-3.653-.045-.135-.76-.207-.852-.045z"/></svg>