<svg xmlns="http://www.w3.org/2000/svg" viewBox="0 0 64 64"><path d="M20.32 64c-3.523 0-6.565 0-6.565-2.883 0-.078.498-7.97 3.25-8.89.44-.147.887-.178 1.423-.178h.116c1.19-4.084 4.09-14.495 4.974-18.09-.818-.696-2.052-1.724-3.187-2.67-10.108-8.423-10.102-8.52-9.994-10.145.004-.06 1.235-6.6 4.447-6.848.064-.005.133-.008.198-.008.828 0 1.09 0 8.004 4.21-.298-2.135-.065-4.55 1.218-6.64 1.084-1.765 3.363-3.95 8.058-4.336.355-.03.695-.043 1.023-.043 3.77 0 5.877 1.817 6.98 3.34 2.51 3.467 2.09 8.375 1.493 10.21-.092.282-.21.557-.346.82 4.476-.502 9.66-1.036 11.49-1.036.516 0 1.48 0 2.268.72 1.572 1.434 1.743 8.21.864 9.53-.717 1.08-.717 1.08-10.68 3.286l-.836.186c.413.225.79.54 1.094.928.454.578 1.147 1.834.686 3.746-.177.738-.72 2.09-1.832 4.792l-.492 1.2c.776.418 2.03 1.477 1.56 3.838-1.58 7.92-3.013 7.92-4.275 7.92l-.267.006c-.69.012-2.398.042-4.134.042-4.712 0-5.27-.194-5.918-.564-.134-.078-.258-.16-.37-.245-1.808 5.826-2.02 6.06-2.44 6.524-.594.656-1.157 1.276-7.81 1.276zm-9.753-17.192c-.156 0-.39-.02-.542-.05-.064-.012-.142-.02-.227-.03-.795-.1-2.448-.308-3.437-1.692-.41-.577-.844-1.556-.56-2.94.253-1.23.986-2.046 1.802-2.592-1.066-1.924-2.26-4.2-2.465-4.82-.28-.846-.13-1.767.415-2.525 1.275-1.776 7.105-3.914 8.148-3.914.668 0 1.335.272 1.807.745.27.27 4.614 6.675 4.92 7.9l.04.122c.21.605.647 1.863-.165 3.572-.763 1.61-2.617 2.334-4.112 2.334-.206 0-.407-.013-.603-.038-.103.28-.244.572-.43.876-.757 1.23-2.74 3.052-4.59 3.052zm39.045-27.01c-3.546-.16-4.81-2.486-4.81-4.61 0-2.008 1.796-3.332 3.818-3.693.067-5.58.217-5.954.386-6.38.603-1.512 2.342-1.91 3.18-1.91.7 0 1.352.23 1.855.647.158.096.4.23.683.39C57.298 5.705 59 6.67 59 8.557c0 .055-.256 5.54-3.443 5.54h-.13c-.07 1.66-.278 2.108-.41 2.394-1.274 2.74-3.465 3.316-5.08 3.316-.105 0-.214-.002-.325-.007zm-31.698-5.975c-2.34 0-4.086-1.737-4.246-4.224-.118-1.812 1.056-3.036 2.377-3.833-.63-1.392-.73-1.718-.784-2.094-.112-.804.13-1.592.682-2.228C16.547.747 17.865 0 18.864 0c1.668 0 2.148.94 3.74 4.052 1.612 3.153 1.68 3.77 1.724 4.18.307 2.784-3.206 4.932-5.067 5.414-.458.12-.91.178-1.346.178z" fill="#FFF"/><path d="M18.03 39.498c.464-.974.094-1.438-.045-1.995-.14-.557-4.118-6.587-4.257-6.727-.14-.14-6.478 2.273-6.2 3.108.278.835 3.47 6.587 3.702 6.866.148.178-2.637.278-2.96 1.856-.325 1.577 1.48 1.53 2.22 1.67.74.14 3.332-1.902 2.73-3.108-.602-1.206-2.776-5.29-2.637-5.706.14-.417 2.5-2.598 2.822-2.04.324.556 2.915 3.617 2.684 3.896-.232.278-1.667 1.345-1.204 2.412.46 1.067 2.682.743 3.145-.232zm.603-28.298c1.434-.37 3.285-1.856 3.193-2.69-.093-.836-2.823-5.985-2.96-5.985-.14 0-1.158.464-1.112.79.046.324 1.527 3.432 1.666 3.757 0 0-3.332.928-3.24 2.366.093 1.437 1.018 2.133 2.453 1.762zm15.824 14.01s-.278-.603.185-.79c.463-.185 4.026-2.04 4.72-4.174.694-2.134 1.018-10.855-6.894-10.206-7.912.65-7.68 7.19-6.385 10.392 1.296 3.2 4.58 3.85 4.812 3.99.23.14.14.974.093 1.206s-.496.34-.787.232c-.37-.14-14.62-9.093-15.222-9.046-.6.046-2.082 3.804-2.128 4.5-.046.696 13.233 11.32 13.42 11.737.184.418-5.692 21.202-5.83 21.434-.14.232-2.222 0-2.638.14-.416.138-1.527 5.937-1.527 6.494 0 .557 9.532.417 9.994-.093.462-.51 4.21-13.268 4.302-13.453.093-.186 2.5-1.16 3.146-.928.648.232-2.175 7.237-1.527 7.608.65.37 8.793.186 9.07.186s1.666-5.196 1.805-5.892c.14-.696.046-1.02-.37-1.16-.416-.14-1.85-.093-2.128-.14-.278-.045 2.96-7.282 3.285-8.628.324-1.345-.416-1.948-.833-1.948s-5.368 1.624-5.692 1.624c-.324 0 1.157-4.685 1.203-4.917.047-.232 15.132-3.294 15.41-3.71s.045-5.8-.464-6.264c-.51-.466-19.02 1.807-19.02 1.807zm-4.95-11.83c1.835-1.7 4.996-1.763 7.264 1.716s-.554 8.443-5.09 7.283c-4.534-1.16-5.228-6.17-2.174-9zm22.256 14.985c-.14.14-14.807 2.737-15.27 3.2-.462.465-2.36 8.63-1.804 9.14.554.51.786.418 1.063.325s4.766-1.53 4.95-1.392c.186.14-3.33 9.093-3.053 9.464.278.37 2.73.417 2.73.557 0 .138-.463 2.597-.694 2.597s-4.95.14-4.95-.046 2.266-6.726 1.942-7.33c-.324-.602-.833-.788-1.62-.556-.786.232-6.014.696-6.384 1.253-.37.557-3.61 13.268-4.026 13.5-.416.232-5.83.37-5.738-.093.093-.464.324-2.273.648-2.273s2.73.094 2.96-.324c.232-.417 6.433-23.984 6.34-24.262-.093-.278-13.557-11.04-13.604-11.273-.046-.23.463-1.02.694-1.252.25-.25 13.095 7.84 13.604 7.887.51.046 1.48-.557 1.758-.557s.648.093.88.186c.23.093 19.063-1.577 19.2-1.3.14.277.51 2.41.373 2.55zm.694-22.546c-.185-.233-1.034.038-1.11.23-.185.465-.23 8.166-.23 8.166-1.528-.742-3.795.046-3.795.974 0 .928.37 1.995 2.406 2.088 2.036.093 2.684-1.16 3.008-1.856.324-.696.14-5.057.14-5.057s2.498 1.206 2.683 1.206c.184 0 .924-2.41.924-3.014-.002-.603-3.842-2.505-4.027-2.737zm-19.85 8.395c-.417-.186-2.222-.603-3.24 1.3-1.018 1.9-.27 3.467-.14 3.57.464.372 1.39-.045 1.158-.648-.23-.603-.046-1.53.092-2.18.14-.65 1.573-1.206 2.13-1.253.555-.046.416-.603 0-.79zM29.18 36.39c-.324.603-.833 3.572-.833 3.897 0 .325.832 0 .832 0s1.157-3.433 1.064-3.665c-.092-.232-.954-.436-1.064-.232z"/></svg>