<svg xmlns="http://www.w3.org/2000/svg" viewBox="0 0 64 64"><path d="M31.593 64c-.345 0-.662-.013-.94-.034-3.772-.286-8.195-2.75-8.254-8.75-.04-4.18 2.28-6.966 5.24-8.413-.824-.31-1.287-.693-1.598-1.024-.707-.755-1.374-1.468-3.886-20.514-.402-3.045-2.392-18.317-2.134-19.88.095-.568.37-1.09.785-1.49C20.973 3.74 24.95 0 32.432 0 40.027 0 44 4.222 44 6.485c0 .32-2.774 36.174-4.32 38.503-.472.713-1.248 1.222-2.182 1.583.747.383 1.407.878 1.977 1.486 1.757 1.873 2.508 4.592 2.292 8.313C41.44 62 36.083 64 31.594 64z" fill="#FFF"/><path d="M37.475 43.51c.877-1.322 3.873-36.658 3.873-37.025 0-.367-2.412-3.82-8.916-3.82s-9.793 3.16-9.793 3.16c-.22 1.32 4.165 36.877 5.334 38.126 1.17 1.25 8.624.883 9.5-.44zM25.307 6.926c.046-.364 3.91-2.35 7.345-2.13 3.435.22 6.687 2.388 6.724 2.755.036.368-.33 2.756-.44 2.682-.11-.073-5.663-4.224-5.92-4.187-.255.036-.693.955-.364 1.175.33.22 6.03 4.37 6.03 4.518 0 .147-.366 2.13-.366 2.13s-6.102-4.775-6.285-4.775c-.182 0-.547 1.03-.364 1.175s6.54 4.702 6.54 4.848c0 .147-.145 2.94-.255 2.94-.11 0-5.846-5.217-6.065-5.18-.22.037-.512 1.212-.33 1.322.184.11 6.36 5.363 6.47 5.62.11.257-.257 2.865-.257 2.865s-6.25-5.216-6.358-5.216c-.11 0-.44 1.175-.256 1.322.183.146 6.504 5.51 6.504 5.73 0 .22.11 2.607-.146 2.533-.256-.073-5.627-4.702-5.883-4.702-.257 0-.622.883-.33 1.176.292.294 5.883 5.032 5.92 5.216.036.186-.22 3.27-.22 3.27s-5.262-5.73-5.408-5.73-.33 1.397-.11 1.544c.22.147 5.225 5.51 5.3 5.693.072.183-.147 2.13-.147 2.13s-4.495-4.52-4.64-4.52c-.147 0-.586 1.36-.476 1.47.11.11 4.86 4.59 4.86 4.59l-.184 2.02-4.53-3.93s-.366 1.14-.293 1.323c.073.184 4.568 3.893 4.568 4.04 0 .147-.182 1.322-.29 1.36-.11.036-.732.22-.988.11s-2.887-2.462-2.996-2.425c-.11.037-.438.955-.33 1.102.11.147 1.5 1.58 1.5 1.58s-2.632.146-2.815-.11c-.182-.256-4.97-33.314-4.713-35.334zM32.14 48.31c-3.238.233-7.133 2.256-7.09 6.88.046 4.626 3.49 5.943 5.802 6.118 2.31.176 7.997-.417 8.268-5.094.365-6.312-2.522-8.222-6.98-7.903zm-.88 10.9c-2.044 0-3.555-2.225-3.6-3.98-.044-1.757 1.2-4.334 4.623-4.45 1.555-.054 4.534-.144 4.534 4.74 0 3.343-3.51 3.69-5.556 3.69zM30.497 52c-1.51.526-1.69 3.043-1.51 3.98.177.937 1.244.76 1.466.585.222-.176 0-.293-.133-1.405-.134-1.112.888-2.4 1.066-2.576.177-.175-.41-.752-.89-.585z"/></svg>