<svg xmlns="http://www.w3.org/2000/svg" viewBox="0 0 64 64"><path d="M41.317 64c-1.402 0-2.655-.388-3.622-1.123-1.21-.918-1.968-2.377-2.435-3.676-.78-.043-1.498-.24-2.135-.588-1.236-.676-1.92-1.852-2.3-2.924-1.02-.468-1.877-1.314-2.433-2.45-.4-.815-.593-1.598-.64-2.32-.344-.265-.662-.59-.91-.987-.13-.21-.24-.43-.33-.657-.94-.214-1.742-.638-2.36-1.254-.724-.723-1.153-1.662-1.407-2.53-.93-.27-1.648-.672-2.145-1.202-.416-.446-.693-.966-.876-1.485-.787-.393-1.644-1.082-2.378-2.277-.558-.907-.842-1.818-.966-2.65-.733-.294-1.538-.814-2.218-1.726-.26.037-.533.06-.81.06-.737 0-4.096-.24-4.87-4.52-.51-.384-.95-.875-1.27-1.46-1.454-.438-2.68-1.487-3.487-3.022-2.114-4.026.962-6.614 1.972-7.465l.312-.267c.73-.65 4.63-4.017 7.074-6.126-.96-1.21-2.077-2.673-2.642-3.607-1.13-1.866-1.855-5.294-.27-6.874.6-.6 1.417-.945 2.24-.945 1.323 0 2.443.856 2.806 2.09.13.232.486.803 1.142 1.628.517.648 1.56 1.86 2.457 2.868 1.587-1.38 3.88-3.407 5.478-4.82C27.652.723 27.652.723 27.935.554 28.74.072 29.88 0 30.488 0c1.06 0 2.63.22 4.103 1.27 2.06 1.467 2.508 3.54 2.3 5.066.65.345 1.234.855 1.72 1.514.594.803.932 1.642 1.093 2.437.32.208.637.47.935.796.41.454.852 1.12 1.112 2.047.72.258 1.45.687 2.04 1.39.32.38.554.782.72 1.194 1.707.275 2.63 1.11 3.122 1.833.48.708.755 1.442.91 2.105.63.344 1.27.842 1.74 1.56.148.227.272.457.377.685 1.697.32 3.074 1.31 3.872 2.823.62 1.173.896 2.26.997 3.165.657.567 1.142 1.362 1.375 2.32.123.505.176.978.178 1.414.17.148.333.316.48.504.29.367.48.757.6 1.146 1.078.508 2.045 1.362 2.565 2.673.82 2.07-.224 4.59-2.873 9.46-.315.58-.575 1.045-.695 1.313-.395.887-1.004 1.79-1.516 2.474.833.317 2.092.92 2.844 2.53.39.83.528 1.653.63 2.253.02.12.035.234.055.344.06.047.112.078.175.116.216.132.39.252.554.387.83.69 1.217 1.792 1.01 2.878-.226 1.206-1.147 2.243-2.342 2.64-.324.108-.67.163-1.024.163-.343 0-.688-.05-1.025-.146-.405.22-.862.347-1.32.347-1.26 0-1.52-.258-4.7-3.432l-.355-.353-.308.445c-2.245 3.244-3.05 4.388-3.385 4.77C45.375 63.36 43.054 64 41.317 64z" fill="#FFF"/><path d="M56.997 56.008c-.637-.636-.45-2.02-.974-3.14-.525-1.123-1.5-1.085-2.4-1.57-.9-.487-.936-2.768-.936-2.768s1.387-1.57 1.986-2.916c.6-1.346 4.16-7.066 3.523-8.674-.637-1.608-2.774-1.57-2.774-1.57s.412-1.047 0-1.57c-.412-.523-1.462-.673-1.462-.673s.637-.897.3-2.28c-.337-1.384-1.5-1.197-1.5-1.197s.45-1.608-.636-3.664c-1.087-2.056-3.673-1.383-3.673-1.383s.113-1.047-.45-1.907c-.56-.86-2.023-1.084-2.023-1.084s.187-1.383-.6-2.542c-.787-1.16-3.523-.598-3.523-.598s.637-1.27-.15-2.206-2.474-.785-2.474-.785c.337-3.364-2.25-3.29-2.25-3.29s.49-1.31-.56-2.73-2.21-.748-2.21-.897c0-.15-.6-.897-.638-1.01-.037-.11.412-.934.525-1.195.112-.262.487-1.757-1.087-2.88-1.574-1.12-3.486-.71-3.673-.597-.187.113-10.532 9.348-10.72 9.348-.187 0-3.373-3.627-4.385-4.898s-1.574-2.243-1.612-2.505c-.037-.262-.337-.224-.525-.037-.187.187-.3 1.944.675 3.552.975 1.608 4.086 5.346 4.086 5.346s-7.984 6.88-9.033 7.814-2.924 2.094-1.687 4.45c1.237 2.354 3.298 1.72 3.298 1.72-.3 1.943 1.612 2.242 1.612 2.242.075 5.72 4.535 2.88 4.535 2.88.938 3.738 3.637 2.58 3.637 2.58s-.675 1.906.45 3.738c1.124 1.832 2.436 1.458 2.436 1.458s-.037 1.31.487 1.87c.525.56 2.51.71 2.51.71s.076 2.055.976 2.953c.9.898 2.774.562 2.774.562s-.075 1.234.3 1.832c.375.598 1.65.86 1.65.86s-.788 1.01.036 2.692c.825 1.682 2.25 1.31 2.25 1.31s.186 2.242 1.348 2.878c1.162.636 2.85-.075 2.85-.075s.486 3.364 2.06 4.56c1.574 1.196 4.535.224 5.06-.374.525-.598 5.172-7.44 5.322-7.552.15-.112 5.21 5.197 5.472 5.197s.112-1.644-.487-2.69c-.6-1.048-3.297-3.777-3.56-4.076-.262-.3.562-.636.562-.636s.562 1.196 1.012 1.608c.45.41 1.537.56 1.874.86.337.3.75 2.056 1.162 3.178.412 1.122 1.5 1.682 1.95 1.533.45-.15.674-.673.45-.86-.226-.19-.526-.264-1.163-.9zm-3.148-20.65c0 .223-4.874 5.956-4.874 5.956s-.3-.748-.85-.897c-.55-.15-1.075-.648-1.075-.648 0-.076 5.074-5.11 5.298-5.11.225 0 .175.273.6.348.426.075.9.125.9.35zm-7.422.946c.047-.118 1.45-1.42 1.624-1.37.175.05.925.97.8 1.295-.125.323-1.524 1.72-1.624 1.644-.1-.074-.85-1.445-.8-1.57zm2.523-2.268l.6-.573s1.125.822.976 1.047c-.15.224-.85.872-.925.823-.074-.05-.674-1.147-.65-1.297zm3.225-1.994c.25-.15.375-.798.55-.798.175 0 .475.45.4.623-.075.174-1.7 2.07-1.874 1.994-.174-.074-.824-1.37-.8-1.52.027-.155.726-.896.926-.747.2.15.55.6.8.45zm-1.45-5.334c.85 1.022 1.1 2.07-.075 3.564-1.174 1.496-5.797 5.982-5.947 5.882-.15-.1-.325-1.172-1.124-1.894-.8-.723-1.7-.897-1.75-1.047-.123-.367 4.598-5.833 5.447-6.43.85-.598 2.6-1.097 3.448-.075zm-6.37 13.534c.024.498-.776 1.122-.85 1.097-.076-.026-.875-1.422-.826-1.62.056-.23.724-.824.874-.824.15 0 .775.848.8 1.346zm2.622-16.8c.45.8-.1 1.497-1.25 2.992-1.148 1.496-5.17 6.456-5.32 6.456-.15 0-.426-.324-.25-.598.174-.274.774-1.047.174-1.894-.6-.848-1.373-1.047-1.373-1.047.1-.223 5.947-6.355 6.297-6.405.35-.05 1.274-.3 1.723.498zm-3.098-3.588c1.198.872.124 2.393-.15 2.742-.276.35-6.248 6.43-6.473 6.33-.225-.1-.974-.772-1.15-1.046-.174-.274-.75-1.52-.75-1.52.126-.174 5.398-6.057 5.473-6.132.075-.075 1.85-1.247 3.05-.374zm-5.024-2.393c.175 0 .825-.323 1.374.126.55.45.1 1.446-.6 2.268-.7.823-5.272 6.107-5.447 6.082-.175-.025-.425-1.17-1.75-1.844-.16-.083 6.248-6.63 6.423-6.63zm-1.674-3.838c.75.35.925 1.147.7 1.47-.225.325-6.522 7.23-6.772 7.23s.6-1.87-2.074-2.693c-.13-.04 5.672-5.51 5.922-5.66.25-.148 1.475-.697 2.224-.348zm-3.173-3.24c.2-.15 1.173-.25 1.698.25.525.497-.35 1.52-.8 2.118-.45.598-7.27 6.456-7.496 6.456-.225 0-.325-1.37-1.85-1.645-.383-.07 8.247-7.028 8.447-7.178zm-7.697 2.84c.043-.126 1.025-.722 1.025-.722s.2 1.52.075 1.67c-.125.15-1 .897-1 .897s-.15-1.694-.1-1.844zm6.52-3.413c-.15.173-3.972 3.414-4.122 3.39-.15-.026-.074-1.77-.15-1.87-.105-.14 1.45-1.32 1.5-1.196.05.125.25.324.525.4.275.074.6-.3.625-.4.025-.1 0-1.17.05-1.246.05-.075.95-.748 1.1-.698.15.048.624 1.444.474 1.62zm-2.822-5.734c.226 0 2.925.822 2.775 1.496-.15.673-9.033 8.824-9.558 8.6-.525-.225-2.21-1.46-2.286-1.72-.06-.217 8.846-8.376 9.07-8.376zM25.19 16.364c-.1.075-.25.324-.35.174-.1-.15-.875-1.097-.925-1.246-.064-.19 1.1-.897 1.25-.773.15.124.125 1.77.025 1.844zm-2.523 1.994l-1.35 1.047s-.05-1.695.026-1.844c.127-.25 1.1-.946 1.2-.92.1.023.125 1.718.125 1.718zm-11.92 6.954c-.26-.037-.524-1.757-2.323-2.43-.283-.106 10.345-9.085 10.832-8.973.487.11 2.024 1.233 1.724 2.205-.3.972-9.97 9.235-10.232 9.197zm9.27-4.46c-.224.223-.998 1.02-1.098.896-.1-.125-.05-1.77.05-1.97.12-.236 1.05-.822 1.1-.722.05.1.174 1.57-.05 1.795zm-2.598 2.267c-.075.15-.625.772-.775.572-.15-.2-.075-1.844-.05-2.044.026-.21.75-.573.85-.573.1 0 .05 1.894-.025 2.044zm-1.986 1.968c-.074.15-.824.636-.824.636s-.225-1.944-.15-2.094c.273-.544 1.012-.935 1.012-.71 0 .224.038 2.018-.037 2.168zm-1.948 1.907c-.112.15-.637.823-.787.673-.15-.15-.975-1.196-.9-1.346 0 0 1.312-1.42 1.537-1.31.225.113.262 1.833.15 1.983zm2.56 3.477c-.2.075-.174-.773-1.023-1.27-.85-.5-1.175-.524-1.25-.65-.05-.085 9.87-9.346 9.995-9.346s2-.847 1.8 1.92c-.002 0-9.322 9.27-9.522 9.346zm4.55 1.97s-.076-1.247-.85-1.746c-.776-.5-1.575-.474-1.575-.474.075-.274 8.146-7.727 8.146-7.727s2.074-.125 2.424 1.47l-8.146 8.476zm4.346 4.61c-.3.025-.1-2.517-2.574-2.94-.123-.022 7.77-8.027 7.846-8.027.075 0 .275.997 1.174 1.27.9.275 1.35.4 1.35.4s-7.496 9.272-7.796 9.297zm3.05 2.268c-.1-.05-.7-.723-1.225-.773-.525-.05-1.35-.125-1.3-.3.05-.168 7.472-9.097 7.647-9.097.175 0 1.974.897 1.924 1.92-.05 1.022-6.947 8.3-7.047 8.25zm1.898 2.17c-.6-.3-1.374-.175-1.524-.3-.112-.093 8.246-9.62 8.57-9.646.326-.025 2.15.997 1.95 2.468-.2 1.47-7.62 8.824-7.82 8.774-.202-.05-.576-.998-1.176-1.297zm2.7 5.133c-.226 0-1.35-1.595-1.225-1.87.187-.408 3.524-4.41 5.198-6.355 1.674-1.944 2.824-2.866 2.998-2.866.175 0 .375.997 1.35 1.496.974.498 1.173.474 1.248.523.075.05.325.524.025.923-.3.4-9.37 8.15-9.595 8.15zm9.87-4.287c-.126.25-.826.872-.9.798-.076-.075-.726-1.645-.676-1.77.106-.264.8-.748.9-.748.1 0 .8 1.47.675 1.72zm-1.7 1.72c-.25.2-1 .872-1.075.773-.074-.1-.824-1.52-.824-1.696 0-.214.875-.773 1.024-.723.15.05 1.125 1.447.875 1.646zM38.78 45.75c-.1.35-.8 1.247-.924 1.073-.125-.174-.675-1.92-.65-2.07.05-.303.65-.647.75-.697.1-.05.925 1.346.825 1.695zm-3.447 3.89c-.325-.05-.925-1.72-2.1-1.796-.18-.01 1.25-1.246 1.375-1.122.125.125.925 2.044 1.074 1.994.15-.05.5-.4.5-.623 0-.224-.85-1.994-.725-2.12.125-.124.3-.448.55-.323.25.125 1.15 2.094 1.05 2.268-.1.176-1.4 1.77-1.724 1.72zm3.748 3.788c-.124 0-.524-1.072-1.798-1.32-1.274-.25-1.824-.6-1.85-.8-.03-.248 8.947-9.196 9.07-9.196.126 0 .1.848.926 1.097.825.248 1.45.323 1.45.448 0 .124-7.672 9.77-7.797 9.77zm11.42-4.262c-.124.424-.674 1.022-.724.947-.05-.075-.3-1.695-.5-1.72-.2-.025-.925.224-.875.45s.576 2.367.476 2.69c-.1.325-.15.475-.225.425-.074-.05-.624-1.72-.774-1.72s-.8.224-.775.4c.026.173.7 2.89.65 3.015s-.674.872-.774.748c-.1-.124-.325-2.467-.7-2.816-.375-.35-.9.3-.95.498-.05.2 1.1 3.39.85 3.79-.25.398-1.45 1.968-1.524 1.843-.075-.125-.975-2.17-2.15-2.792-1.173-.623-2.423-.598-2.448-.723-.02-.1 8.196-10.444 8.496-10.444.3 0 .225.498.225.598 0 .1-.2.922.25 1.196.45.274 1.2.424 1.2.424s.4 2.768.276 3.192zm.1-7.303c-.142-.07-.025-.3.05-.45.075-.15 3.573-4.137 4.448-4.41.875-.275 2.324.198 1.974 1.594-.35 1.396-.7 1.47-.975 1.645-.275.174-.825.424-.874.698-.05.274.25.773.175 1.17-.075.4-.65 1.073-.65 1.073s-.3-1.296-.375-1.296c-.075 0-.85.05-.85.224s.275 2.643.15 3.017c-.125.374-.675 1.022-.7.847-.024-.173-.15-3.04-2.373-4.11zm-7.696 10.37c-.175 0-.793.81-.775.92.024.15.998.425 1.123.524.125.1.8 1.645.925 1.745.125.1.825-.598.9-.798.075-.2.1-.498-.325-1.17-.424-.674-1.674-1.222-1.85-1.222z"/></svg>