<svg xmlns="http://www.w3.org/2000/svg" viewBox="0 0 64 64"><path d="M4.694 61c-1.703 0-3.246-1.908-3.678-2.493C.098 57.267-.2 56.083.13 54.99c.262-.87.262-.87 7.977-7.278 2.597-2.157 6.17-5.125 8.147-6.837-2.5-2.906-3.475-4.212-2.223-5.888.204-.27.412-.55 25.21-21.657-1.41-1.886-1.21-2.894-1.11-3.39.28-1.4.42-2.102 10.415-4.653C50.647 4.75 57.732 3 60.635 3c.6 0 1.374.057 2.064.505.532.346 1.19 1.042 1.292 2.392.24 3.16-4.942 19.454-6.68 21.005-.592.528-1.34.807-2.165.807-.52 0-1.025-.12-1.482-.287C30.088 49.597 28.4 50.083 27.76 50.267c-.486.14-.983.21-1.48.21-1.308 0-2.364-.488-3.072-.95-.174.028-.312.064-.398.097-.083.153-.17.42-.26.7-.264.824-.627 1.95-1.686 3.014-.523.524-.938.856-1.234 1.084-.292.934-.866 1.623-1.425 2.294-.12.144-.247.296-.378.46-.797.994-2.572 2.472-4.195 2.472-.43 0-.835-.094-1.205-.28-.95-.477-1.572-1.477-1.8-2.394-4.708 3.876-4.87 3.9-5.575 4-.11.017-.246.026-.358.026z" fill="#FFF"/><path d="M61.408 5.506c-1.484-.963-20.774 4.028-20.948 4.904-.175.876 2.182 3.152 2.182 3.152s-26.448 22.505-26.71 22.855c-.262.35 3.404 4.29 3.58 4.64.174.35-16.983 14.206-17.11 14.625-.283.94 1.856 3 2.314 2.934C5.174 58.55 21.67 44.626 22 44.56c.326-.065 1.177 1.315 1.177 1.512 0 .197-1.44.197-2.422.722-.982.525-1.178 1.84-1.44 2.496-.262.657-1.57 1.905-2.357 2.364-.786.46-1.31 1.97-1.375 2.56-.066.592-2.422 1.71-2.62 1.84-.195.13.132.985.525 1.182s1.768-.657 2.488-1.554c.72-.898 1.31-1.467 1.44-2.19.13-.72.59-.656 1.768-1.838s.982-2.56 1.833-3.612c.85-1.05 2.946-.94 2.946-.94s1.31 1.4 3.142.875C28.938 47.452 53.29 24.51 53.29 24.51s1.66 1.313 2.445.612c.785-.702 7.157-18.653 5.673-19.616zM18.922 36.55c0-.264 4.32-3.548 4.32-3.285 0 .263 2.358 11.756 2.358 11.756s-6.678-7.75-6.678-8.47zm8.02 9.325c-.197-.1-2.88-12.807-2.914-13.168-.022-.238 4.386-3.678 4.452-3.514.065.164 2.095 13.135 2.095 13.53 0 .393-3.437 3.25-3.634 3.152zm4.745-4.302c-.098-.197-2.357-12.905-2.39-13.267-.012-.146 3.307-3.185 3.47-3.152.165.033 2.423 12.905 2.423 13.2s-3.404 3.416-3.503 3.22zm4.42-4.236c-.066-.13-2.62-12.675-2.62-13.102 0-.19 3.502-3.054 3.568-2.857.065.197 2.39 13.07 2.39 13.267 0 .196-3.273 2.823-3.34 2.692zm8.05-6.93c-.13.494-3.37 3.318-3.567 3.186-.196-.13-2.815-12.948-2.62-13.135.172-.163 3.536-2.89 3.536-2.89s2.783 12.347 2.652 12.84zm1.18-1.22c-.098-.06-2.946-12.177-2.88-12.506.064-.318 1.707-1.41 1.707-1.41s2.352 1.838 2.385 2.002c.032.164 2.06 8.9 2.06 8.998s-3.175 2.977-3.273 2.917zm4.386-3.87s-1.21-5.45-1.113-5.713c0 0 3.01 3.25 3.01 3.71 0 .46-1.897 2.004-1.897 2.004zm8.085-12.61c-.13-.097-.622-.918-.786-.918-.164 0-.917.59-.753.72.163.132 1.046 1.873 1.046 1.97 0 .1-.622 1.61-.622 1.61l-.982-1.773s-.85.92-.818.952c.033.032 1.21 2.298 1.21 2.298l-.36.82-1.407-1.87s-.786 1.116-.687 1.05c.098-.066 1.768 2.3 1.768 2.3s-.36 1.41-.458 1.28c-.098-.13-1.538-2.594-1.637-2.594s-.687.328-.655.46c.033.13 1.833 3.58 1.833 3.678 0 .098-.064.164-.163.164-.098 0-10.77-11.526-10.834-11.92-.027-.162 15.45-3.81 15.71-3.744.264.065-1.274 5.615-1.405 5.516zm-2.586-3.38c-.196-.067-7.827 1.35-7.987 1.608-.164.263 0 1.018.164 1.05.163.034 7.855-1.378 7.986-1.477.13-.098.032-1.116-.164-1.182z"/></svg>