<svg xmlns="http://www.w3.org/2000/svg" viewBox="0 0 64 64"><path d="M36.944 64c-.453 0-1.782-.18-2.81-.877-.79.442-1.762.442-2.432.442-.78 0-3.15 0-3.465-2.214-.02-.144-.03-.213-.024-.72-.192.035-.39.054-.59.054-.812 0-1.584-.298-2.232-.862-.917-.8-1.628-2.355-2.605-5.052-.13.004-.262.005-.395.005-1.344 0-3.254-.165-4.312-1.597-.422-.57-1.117-2.042-4.37-9.262-1.34-2.97-3.06-6.78-4-8.732-.47.06-.994.11-1.518.11-1.3 0-2.306-.292-3.08-.89-1.436-1.114-1.13-3.09-.966-4.15.393-2.54 1.557-6.394 2.216-8.464 1.957-6.15 2.25-6.257 3.33-6.653.263-.095.563-.147.84-.147.927 0 12.358 3.52 15.107 4.938l.01-.107c-2.546-1.324-3.455-2.09-3.848-3.145-.48-1.283.248-2.34.523-2.737C23.038 12.905 34.553 0 37.67 0c.064 0 .142.003.204.008 1.19.095 1.98.157 7.468 8.58.047.072 4.655 7.148 5.148 8.526 4.452-3.142 4.91-3.142 5.54-3.142.087 0 .182.005.27.015.818.09 1.518.582 1.922 1.346.19.36.698 1.32 1.872 9.64 1.216 8.616.975 9.076.61 9.77-.242.463-.995 1.537-2.746 1.537 0 0-.2-.003-.296-.01-.464.907-1.095 2.148-1.746 3.428-8.69 17.082-8.69 17.082-9.955 17.428-.345.095-.678.107-.93.107-.073 0-.155-.002-.242-.004-.108.545-.335 1.1-.68 1.64-.315.495-1.48 2.112-3.23 2.112-.277 0-.55-.04-.81-.122-.64 1.487-1.16 2.378-1.554 2.66-.447.318-.975.48-1.57.48z" fill="#FFF"/><path d="M56.036 16.363c-.59-.066-12.704 8.93-12.704 8.93s.263-4.547.295-4.91c.033-.362 1.707-.33 2.33-.527.625-.198 2.463-1.318 2.266-2.01-.197-.692-9.29-15.355-10.537-15.454-1.247-.1-13.95 12.653-13.656 13.444.295.79 3.972 2.47 4.103 2.57.13.1-1.51 14.532-1.51 14.532l-3.12-6.953s.56-.692.953-1.483c.394-.79.558-2.043.066-2.504s-13.656-4.745-14.017-4.613c-.36.132-5.088 14.235-3.94 15.125s4.292-.025 4.433.066c.558.363 8.24 18.156 8.994 19.178s4.3.494 4.4.494c.097 0 1.575 4.91 2.56 5.767.984.857 1.936-.527 1.97-.692.032-.165-2.102-5.602-2.07-5.767.034-.165 1.05-.56 1.05-.56s0 .593.132.956c.13.362.722 1.746 1.018 1.944.295.198 1.018-.165 1.116-.264.098-.1-.066-.395-.69-1.186s-.46-2.175-.46-2.175.362-.098.592-.197c.23-.1.558-.66.558-.66s.46.133.59.298c.132.166-.196 11.073-.163 11.303.033.23 2.298.198 2.396 0 .1-.198.1-10.742.1-10.874 0-.133.853-.133.984-.1.13.033.525.857.624 1.483.098.626.066 1.384-.164 1.91-.23.528-.23 1.45.066 1.912.295.46 1.444.527 1.608.297.164-.23-.394-.593-.59-.824s.13-.956.327-1.186c.197-.23.197-1.582.36-1.417s1.61.956 1.74 1.153c.132.198-2.953 7.085-2.822 7.513.13.43 1.674.858 1.904.693.23-.165 2.823-7.282 2.856-7.38.033-.1.985.296.985.296s.1 1.515.197 1.877c.1.362-.59.79-.788 1.054s-.23.957.394 1.154c.625.198 2.036-1.55 1.642-2.405-.394-.858.13-1.32.263-1.418.13-.1 2.298.165 2.66.066.36-.1 10.864-21.023 10.996-21.155.132-.132 1.938.593 2.266-.033.33-.626-1.97-17.2-2.56-17.267zM44.12 28.62c.033.133-1.674 3.296-1.74 3.164-.066-.132.427-4.25.656-4.218.47.068 1.05.923 1.084 1.055zm-17.2-13.18c.035-.127 10.01-10.742 10.34-10.577.327.165 8.534 12.555 8.304 12.752-.23.198-1.38.494-1.576.362-.197-.132-2.56-4.053-2.725-4.053s-1.116.46-.985.725c.13.263 2.265 3.525 2.035 3.525-.23 0-1.182.165-1.346.066-.164-.098-1.543-3.096-1.838-3.13-.296-.032-.854.298-.854.462s1.576 2.735 1.346 2.768c-.23.033-1.215 0-1.215 0s-1.412-2.307-1.51-2.307c-.098 0-.952.33-.853.46.098.133 1.247 1.714.985 1.78-.264.066-3.874-.527-6.238-1.153-2.363-.625-3.938-1.45-3.873-1.68zm2.494 13.544s.197-4.547.23-4.844c0 0 4.366 4.976 10.472 8.073 0 0-.164 3.526-.427 4.877-.002 0-7.158-3.625-10.276-8.106zm10.078 9.556s-.558 3.888-.722 3.92c-.164.034-3.38-.988-5.876-3.064-2.495-2.076-4.53-4.086-4.53-4.25 0-.166.59-4.35.82-4.318.13.02 3.054 3.36 5.352 4.778 2.297 1.418 4.956 2.934 4.956 2.934zm-5.647-12.06c-2.167-1.945-4.07-3.955-4.07-3.955s-.033-3.097.13-3.262c.094-.093 3.645.824 3.842.857.197.033 2.462 2.504 3.84 3.888 1.38 1.384 3.152 2.34 3.152 2.34s-.165 4.416-.33 4.45c-.163.03-4.398-2.375-6.565-4.32zm2.33-5.9c-.06-.078 2.364.133 2.364.133s1.443 1.384 1.607 1.45c.164.066.558-.56.525-.758-.033-.198-.23-.824-.23-.824l.985.067s-.295 4.284-.492 4.284c-.196 0-2.067-.79-4.76-4.35zM23.572 31.85c-.097.033-3.905-1.02-5.153-2.01-.243-.193 3.283-2.405 3.414-2.34.132.067 1.84 4.317 1.74 4.35zm-14.738-.856c-.22-.062 2.79-11.6 3.053-11.6s10.504 3.593 10.504 3.988-.46 1.318-.658 1.318-3.38-1.285-3.676-1.153c-.295.132-.525.89-.197 1.054.327.166 2.658.99 2.592 1.154-.066.165-.722.79-.952.725-.23-.067-2.626-1.088-2.823-1.088s-.657.46-.46.66c.197.197 2.757 1.25 2.396 1.383-.36.132-2.89 1.582-4.825 2.405-1.936.824-4.135 1.384-4.956 1.154zm4.66 1.054c.15-.448 3.02-1.384 3.25-1.318.23.066 3.48 1.582 4.99 1.977 1.51.395 2.2.626 2.266.725s.952 2.11.788 2.11-3.217-.396-5.482-.924c-2.265-.527-5.416-1.384-5.515-1.45-.1-.065-.362-.922-.297-1.12zm1.052 2.274c.11-.192 4.432 1.45 6.17 1.812 1.74.362 4.334.725 4.4.857.066.133.853 1.583.853 1.583l-.197 1.746s-5.154-1.055-7.025-1.517c-1.87-.46-2.528-.593-2.66-.725-.13-.132-1.673-3.526-1.54-3.756zm2.232 5.173s6.007 1.417 6.795 1.648c.79.23 1.938.362 1.938.362l-.23 3.757s-5.876-.46-6.007-.593c-.13-.133-2.56-4.944-2.494-5.175zm7.55 10.677c-1.28.297-1.838.494-2.33.066-.493-.428-2.233-4.185-2.3-4.45-.042-.17 2.496.396 3.842.528s2.002.132 2.002.132.492 1.087 1.15 1.582c.656.494.984.527.95.692-.032.164-2.034 1.153-3.314 1.45zm4.89-3.13c-.984-.462-1.542-.858-1.575-1.088s-.065-2.438.132-2.438c.4 0 2.002 1.648 2.823 2.208.82.56 3.315 1.91 3.315 1.91s-3.708-.132-4.693-.593zm6.894.13s-3.972-1.844-5.515-3.064c-1.543-1.22-2.725-2.11-2.823-2.47-.1-.363.525-4.58.722-4.548.162.027 3.217 3.163 4.694 4.086 1.477.923 5.088 2.702 5.22 2.867.13.165-.264 2.735-.362 2.8-.097.066-1.936.33-1.936.33zm.394 2.176l1.87-.46s1.97 2.9 1.872 2.932c-.098.032-1.838-.133-3.742-2.472zm7.255 3.46c-.23 0-1.806-.23-1.938-.428-.13-.198-2.43-3.822-2.396-3.987.036-.183.755-.66.82-1.45.067-.79.395-3.394.526-3.394.13 0 2.495 4.085 3.25 5.172.755 1.087 1.116 1.746 1.116 1.746s-1.15 2.34-1.38 2.34zm2-3.757s-1.706-2.207-2.592-3.788c-.886-1.582-1.937-3.46-2.035-3.625-.084-.14.197-2.307.295-2.57.098-.264 1.116-1.78 1.116-1.78s1.608 3.395 3.414 5.372c1.805 1.976 2.002 2.075 2.002 2.273 0 .197-2.2 4.118-2.2 4.118zm2.792-5.37c-.197-.066-2.495-2.867-3.447-4.218-.952-1.35-2.035-3.625-2.002-3.954 0 0 1.477-3.822 1.773-3.658.295.165 1.215 2.966 3.25 5.173 2.035 2.208 2.626 2.57 2.626 2.67 0 .1-2.004 4.053-2.2 3.987zm2.79-5.404s-1.838-1.285-3.414-3.592c-1.576-2.307-2.265-4.35-2.167-4.778.032-.136 2.003 1.087 2.594 1.417.59.33 1.87.99 1.87.99s.854 1.877 1.478 2.635c.624.758.952.956.952 1.054 0 .1-1.312 2.274-1.312 2.274zm1.87-3.56c-.262 0-1.05-1.086-1.148-1.745-.04-.262 2.134.528 2.134.528s-.723 1.22-.985 1.22zm2.857-3.228s-1.478-4.81-1.642-4.844c-.164-.033-1.083.297-1.018.56.066.264 1.707 4.25 1.51 4.218-.197-.033-1.247-.297-1.313-.46-.066-.166-1.018-3.593-1.018-3.593s-1.02.263-.986.493c.033.23.722 2.67.558 2.67s-.69-.1-.722-.232c-.033-.13-.788-2.14-.788-2.14s-.722-.067-.722.13c0 .2.098 1.517 0 1.517s-3.775-1.746-4.99-3.196c0 0 9.684-7.38 9.848-7.347.164.033 1.543 12.225 1.543 12.225h-.26zm-43.43-9.16c-.066.197-1.444 5.304-1.313 5.502.13.198.788.23.985.198.197-.033 1.215-5.338 1.182-5.536-.034-.198-.854-.165-.854-.165zm22.65-12.06c0-.1-.657-.66-.854-.66s-4.425 4.183-4.4 4.317c.034.165.79.626.92.626.132 0 4.334-4.184 4.334-4.283zm16.675 11.96c-.13-.032-4.366 3.66-4.366 3.66s.655.823.787.823c.13 0 4.202-3.426 4.3-3.59.1-.167-.59-.86-.722-.89z"/></svg>