<svg xmlns="http://www.w3.org/2000/svg" viewBox="0 0 64 64"><path d="M5.747 64C5.18 64 1.162 63.307 1 60.512.903 58.64 7.164 48.18 9.806 45.348c2.75-2.948 5.72-5.806 7.742-7.66-1.087-.23-1.97-.974-2.364-2-.4-1.037-.255-2.243.37-3.075.33-.44.95-.814 1.697-1.13-7.572-1.997-7.757-2.256-8.35-3.084-.523-.733-.674-1.654-.425-2.593.345-1.298 1.66-2.982 2.71-3.466.34-.156.746-.242 1.12-.242.274 0 .723 0 3.858.912-.1-.512-.056-1.052.137-1.58.312-.856 1.107-1.903 2.18-2.315.296-.114.622-.174.94-.174.016 0 .03 0 .048.002-1.728-1.382-3.06-2.52-3.222-2.818-.354-.652-.422-1.42-.188-2.157.48-1.517 2.304-2.717 2.62-2.875.36-.18.794-.28 1.195-.28.642 0 1.72.545 2.973 1.36v-.02c.18-1.97 2.213-2.886 3.53-2.886.196 0 .49.032.68.076.35.08.706.3 1.06.62-.9-7.41-.875-7.466-.532-8.23C28.29.13 29.982 0 31.954 0c2.62 0 3.115 1.637 3.205 2.34.006.055.2 1.905.448 4.36.066-.132.118-.21.167-.28.482-.71 1.31-1.158 2.168-1.158.963 0 1.85.542 2.3 1.382.52-1.133 1.01-2.15 1.36-2.765.276-.487 1.008-1.777 2.597-1.777 1.094 0 3.014.753 3.85 1.723.55.636.783 1.426.662 2.223-.04.256-.08.513-1.646 4.08.502.257.91.672 1.157 1.18 3.447-3.22 3.654-3.222 4.66-3.222.23 0 .46.03.683.09 1.21.33 2.744 1.994 3.114 2.77.325.68.355 1.58.05 2.268-.184.41-.264.587-2.233 2.436.06-.002.118-.002.177-.002.9 0 1.777.48 2.248 1.243.493.8.505 1.85.045 2.67-.116.207-.583.633-1.26 1.174 3.71-.9 4.156-.9 4.42-.9.813 0 1.62.39 2.11 1.04.544.726 1.507 3.636-.224 5.11-.444.38-2.818 1.11-5.548 1.857.65.25 1.173.557 1.46.932.492.636.667 1.498.46 2.274-.345 1.3-1.263 1.815-2.533 2.018 4.814 2.826 4.916 2.915 5.233 4.014.143.495.442 1.53-1.333 3.885-.7.93-1.56 1.125-2.156 1.125-.522 0-.698 0-2.182-.836.013.7-.25 1.23-.467 1.545-.413.6-1.09 1.007-1.81 1.115 2.79 3.79 2.663 4.415 2.524 5.105-.337 1.716-2.95 3.145-4.14 3.145-.242 0-.5-.036-.733-.104-.85-.24-.94-.265-4.114-4.392-.03.71-.3 1.05-.567 1.384-.492.615-1.25.98-2.04.98-.164 0-.35-.016-.546-.058.96 3.76.893 4.053.357 4.946-.82 1.364-2.772 1.65-4.265 1.65-1.26 0-2.382-.906-2.635-2.095l-.106-.458c-.42.284-.924.448-1.45.448-1.057 0-2.48-.215-3.256-1.243-.112.05-.234.1-.37.154-.306.124-.67.19-1 .19-.046 0-4.458-.034-4.733-2.966-.04-.444-.054-.606.856-4.316-2.603 4.34-2.977 4.832-4.516 4.832h-.025c-.207 0-.413-.026-.613-.076-.858-.212-1.552-.85-1.836-1.686-.368-1.084-.26-1.435 1.808-5.776-.417.37-.82.744-1.2 1.117-2.513 2.472-5.96 6.174-8.11 9.77-1.246 2.08-2.51 4.645-3.345 6.344-.895 1.816-1.033 2.095-1.49 2.5-.35.32-.954.69-1.843.69z" fill="#FFF"/><path d="M18.72 22.55c.118.215 6.21 3.255 6.423 2.923.214-.333-5.49-4.037-5.734-3.943-.31.118-.81.807-.69 1.02zm10.206.31c.19.047 1.166-.95 1.19-1.426.024-.475-9.724-8.305-10.28-8.028-.285.143-1.474 1.188-1.307 1.496.165.31 10.206 7.91 10.396 7.957zM18.1 35.162c.62.12 5.497-2.16 5.354-2.446s-5.493 1-5.83 1.45c-.142.188-.142.877.477.996zM29.76 18.37c.427-.356-2.975-6.437-3.284-6.508-.31-.07-1.022.253-1.047.523-.05.522 3.9 6.342 4.33 5.985zM25.76 30.887c.38-.07.952-1.378.88-1.71-.07-.333-14.004-4.658-14.37-4.49-.31.144-1.62 1.71-1.262 2.21.357.5 14.37 4.062 14.752 3.99zm20.13-18.455c-.19-.048-4.593 6.602-4.593 6.864 0 .166.784.57.903.45.12-.117 3.878-7.266 3.688-7.314zm-18.988 23.68c.19-.403-.595-1.567-.952-1.543-.357.023-3.38 2.16-5.068 3.61-1.69 1.448-5.64 5.13-9.184 8.93S3.58 60.258 3.587 60.364c.024.428 2.07 1.21 2.284 1.02.215-.19 2.285-4.82 4.33-8.24 2.047-3.42 5.283-7.103 8.52-10.286 3.235-3.182 7.994-6.34 8.184-6.745zm19.534-12.398c.286.12 8.47-5.154 8.28-5.463-.19-.308-8.903 4.417-8.97 4.585-.095.238.405.76.69.88zm-9.85-4.964c.214-.238 1.594-10.902 1.356-10.902S35.094 17.98 35.28 18.44c.094.24 1.094.548 1.308.31zm2.88 1.64c.332-.12 6.637-14.418 6.685-14.727.047-.31-1.428-.974-1.95-.974-.524 0-6.93 15.2-6.758 15.485.07.12 1.69.333 2.022.214zm-5.33-1.616c.047-.404-1.524-15.914-1.547-16.104-.023-.19-2.578-.02-2.64.12-.095.213 1.832 16.222 2.022 16.46.19.237 2.118-.072 2.165-.476zm7.97 2.02c-.024.213 1.5.854 1.808.878.31.024 10.35-9.287 10.445-9.5.096-.215-1.212-1.426-1.474-1.497-.262-.072-10.757 9.928-10.778 10.118zm10.707 20.544c.262-.38-3.95-5.394-4.092-5.273-.167.143-.904.69-.88.88.023.19 4.71 4.773 4.972 4.393zm-7.638-3.254c-.166.048-1.618.83-1.618 1.093s7.78 10.356 7.946 10.403c.166.047 1.57-.83 1.618-1.07.048-.236-7.78-10.473-7.947-10.426zm3.64-3.8c.095.238 8.708 5.225 8.78 5.225.07 0 1.047-1.545 1-1.71-.05-.167-8.632-5.275-8.804-5.084-.214.238-1.07 1.33-.976 1.568zm7.067-3.895c.095-.357-6.374-1.164-6.448-1.046-.12.19-.38.903-.12 1.093.263.19 6.473.308 6.568-.048zm4.283-7.958c-.143-.19-13.554 3.213-13.657 3.444-.095.214.452 1.544.547 1.734.095.19 13.11-3.444 13.277-3.586.166-.143-.025-1.402-.167-1.592zM40.49 41.196c-.047.214 3.403 6.484 3.593 6.247.19-.238-2.534-6.888-2.712-6.817-.12.047-.833.356-.88.57zM26.952 38.82c-.19.24-4.76 9.668-4.568 9.715.19.048 5.282-8.408 5.496-9.216.214-.808-.75-.723-.928-.5zm7.637 3.682c-.096.238-.43 9.073-.358 9.168.07.095 1 .214 1.19.214.19 0 .427-9.31.26-9.453-.165-.142-1.048-.04-1.093.072zm2.45.475c-.07.166 2.475 10.926 2.475 10.997 0 .07 2-.143 2.14-.38.144-.237-2.774-11.21-2.902-11.21-.286 0-1.642.427-1.713.593zm-5.687-3.468c-.143.094-2.736 10.592-2.712 10.854.025.26 2.07.665 2.19.617.12-.046 2.332-10.83 2.332-10.95 0-.117-1.444-.763-1.81-.52zm6.853-2.495c.428-.12 2.95 1.283 3.426.784.476-.5-1-3.73-.714-4.04.286-.308 2.38.025 2.665-.57.286-.593-1.428-1.59-1.26-2.065.166-.475 3.092-1.9 2.973-2.827-.12-.926-2.594-.38-2.712-.69-.12-.308 1.975-3.61 1-4.417-.977-.807-3.523 1.38-3.69 1.26-.166-.12.19-3.3-.546-3.373-.738-.07-2.284 3.11-2.57 3.017-.286-.095-2.855-3.278-3.474-2.518-.62.76.143 3.848-.048 3.967-.19.12-4.306 0-4.64.665-.333.665 2.022 3.468 2.165 3.73.144.26-2.27 4.058-1.974 4.37.428.45 2.403-.025 2.665.332.263.356-.213 3.135.69 3.492.905.356 2.475-1.52 2.904-1.45s1.047 2.044 1.618 1.996c.572-.047 1.095-1.544 1.524-1.663zm-3.474-6.91c-.333-2.115 1.713-2.923 2.83-2.804 2.297.245 2.333 2.637 1.69 3.8s-4.187 1.118-4.52-.996z"/></svg>