<svg xmlns="http://www.w3.org/2000/svg" viewBox="0 0 64 64"><path d="M17.278 64c-1.185 0-4.643-1.863-5.132-3.49-.352-1.175-.352-1.175 3.424-8.157.434-.802.92-1.7 1.322-2.454-4.48-3.113-4.48-3.145-4.48-4.487 0-.694 0-.694 5.844-11.145 3.312-5.923 8.017-14.335 9.846-17.714-.976-1.01-1.725-2.113-1.68-3.398.047-1.277.075-2.048 9.77-7.75C45.383 0 46.89 0 47.533 0c.393 0 .765.076 1.107.224C49.71.69 50.17 1.68 50.474 2.59c.922 2.745 3.524 19.095 2.12 21.576-.495.876-1.59 1.92-3.997 1.92-.34 0-.675-.02-.986-.046l-.578 1.077C32.026 55.12 31.962 55.162 31.186 55.654c-.425.27-.913.407-1.448.407-.492.002-1.04-.114-1.82-.363.04.755-.113 1.385-.21 1.785l-.037.156c-.217.98-1.507 3.327-3.404 3.327-1.554 0-2.72-1.59-2.77-1.658-.036-.05-.07-.1-.102-.154C19.024 64 18.614 64 17.278 64z" fill="#FFF"/><path d="M47.67 2.44c-1.303-.566-18.79 9.87-18.823 10.802-.033.933 2.106 2.634 2.24 2.8.134.167-16.25 29.203-16.25 29.37 0 .167 5.015 3.567 5.15 3.7.133.133-5.633 10.318-5.518 10.7.1.334 2.44 1.768 2.808 1.768.368 0 5.316-10.668 5.316-10.668l2.04.833s-.568 1.467-.736 2.034c-.167.566.2 1.2.468 1.666.267.467-.903 2.267-.936 2.367-.034.1.702.733.836.733s.903-.833 1.037-1.433c.134-.6.435-1.433-.167-2.367-.602-.933 1.037-2.167 1.204-2.167.167 0 3.176 1.266 3.544 1.032.368-.233 16.25-29.97 16.35-30.137.1-.167 3.51.8 4.246-.5.735-1.298-1.505-19.967-2.81-20.534zM17.714 44.447c-.072-.077 1.973-3.434 1.973-3.434s4.68 7.567 4.614 7.767c-.068.2-5.284-2.934-6.587-4.334zm13.207 3.4c-.067.1-1.872 3.3-2.04 3.3-.167 0-1.47-.615-2.91-2.358-1.437-1.743-5.55-8.643-5.75-9.21-.033-.094 2.976-5.634 3.11-5.334.134.3 1.772 5.367 4.38 9.134s3.276 4.368 3.21 4.468zm.768-1.3c-.1 0-3.98-4.767-5.05-7.3-1.07-2.535-2.812-5.79-2.64-6.135.045-.09 2.942-5.366 3.01-5.2.066.167 1.102 4.734 4.446 8.468 3.344 3.734 3.644 4.134 3.644 4.134s-3.31 6.034-3.41 6.034zm4.18-7.4s-3.778-3.668-5.183-5.968c-1.404-2.3-3.174-6.423-3.043-6.667.07-.13 2.24-4.133 2.374-4.066.134.067 2.24 5.567 3.778 7.934 1.538 2.367 3.845 4.834 3.88 4.967.033.133-1.806 3.8-1.806 3.8zm2.54-5.068s-3.677-4.3-5.048-6.7-2.524-6.246-2.436-6.468c.05-.13 2.002-3.7 2.002-3.7s2.608 1.467 2.64 1.667c.035.2 2.174 4.7 3.244 6.234 1.07 1.534 2.64 2.935 2.708 3.135.067.2-3.11 5.833-3.11 5.833zm3.813-7.234s-3.944-4.3-4.914-6.934c-.047-.13 6.988 2.867 6.955 3.1-.033.234-2.04 3.834-2.04 3.834zm5.618-6.2c-.134-.1-4.815-3.968-4.915-3.968-.1 0-.635.633-.535.767.1.133 4.246 3.3 3.845 3.4-.4.1-5.85-2.234-8.794-3.734-2.943-1.5-5.652-3.435-5.82-3.968-.03-.1 14.513-8.267 14.68-8.167.167.1.97 5.5.836 5.5s-1.237-.966-1.37-.9c-.135.068-.603.9-.402 1.034.2.132 2.006 1.733 2.006 1.9s.167 1.366 0 1.266c0 0-2.374-2.034-2.675-1.9-.3.133-.502 1.167-.4 1.2.1.033 2.975 2.534 3.075 2.667.1.133 0 1.467 0 1.467s-3.143-2.634-3.31-2.634c-.167 0-.602.833-.368 1 .234.167 4.78 4.534 4.78 4.767s-.5.4-.634.3zM41.518 8.74c-.2-.1-6.753 3.8-6.753 3.8-.134.167.334.967.602.933.267-.033 6.353-3.4 6.52-3.634.167-.23-.168-.998-.368-1.098z"/></svg>