<svg xmlns="http://www.w3.org/2000/svg" viewBox="0 0 64 64"><path d="M54.13 60c-2.5 0-4.14-.083-4.893-.248-.19.07-.407.12-.65.146-.04.004-.238.018-.544.018-.546 0-1.733-.015-2.782-.04-1.367-.03-2.684-.06-3.465-.665-.243.126-.51.23-.798.306-.19.05-.775.208-2.55.208-2.135 0-3.448-.143-4.247-.852-.244.21-.507.346-.857.445-.65.185-3.562.187-3.686.187-1.132 0-2.038 0-2.758-.358-.253.054-.47.054-.714.054h-.01c-10.16 0-12.624-.262-13.532-.87-.137.17-.258.248-.414.353-.465.306-.796.524-4.55.524-1.448 0-3.09 0-3.685-1.63-.333-.912-.333-.912 2.02-7.57.2-.565.413-1.167.584-1.656-.743-.98-2.017-2.632-3.026-3.94C.24 40.09.24 40.09.09 39.59c-.182-.6-.082-1.328.23-1.872.213-.37 2.97-3.564 4.312-3.897.183-.044.376-.068.565-.068.358 0 .634.02.917.14-.042-.76-.08-1.64-.11-2.663-.082-2.585-.073-4.23.156-5.362-.27-.226-.483-.51-.637-.856-.046-.1-3.044-15.857-2.587-17.572.385-1.453 1.395-1.652 3.837-2.133 2.114-.416 2.74-.45 2.983-.453.19-.216.45-.393.794-.564.843-.424 6.527-.976 6.573-.976 1.135 0 1.746.612 2.008.976.15.207.253.35.34.737.724-.688 1.896-1.005 2.744-1.005 1.223 0 2.236.636 2.668 1.648.08-.24.198-.39.352-.588.94-1.2 4.193-1.866 6.082-1.866.97 0 1.904.125 2.772.372 1.14.324 2.075.776 2.833 1.314.043-.06.09-.12.14-.182C38.09 3.448 42.19 3 43.144 3c1.372 0 2.527.288 3.432.855.212.133.51.32.845.565.8-.336 2.21-.554 4.8-.554.61 0 1.742 0 2.52.9.144.168.272.356.458.7 1.196-1.56 1.535-1.81 2.44-1.91.05-.004.215-.017.463-.017 3.887 0 4.56.63 4.963 1.01 1.353 1.265 1.085 3.553.146 5.06-.056.09-3.773 5.924-6.7 10.2.645-.228 1.446-.45 2.442-.652.28-.057.572-.085.873-.085 1.246 0 2.422.457 3.144 1.223.563.595.845 1.356.793 2.142-.022.518-.12 8.143-.2 14.27-.073 5.78-.137 10.772-.157 11.474-.018.65-.058 2.116-1.05 3.057.852 1.15 1.2 2.623.957 4.094-.423 2.57-3 4.105-5.248 4.105-.527 0-1.03-.08-1.497-.233-.287.29-.64.515-1.05.65-.385.13-.736.143-1.39.143z" fill="#FFF"/><path d="M8.292 9.775c-.085-.105-.962.092-.998.148-.15.232.403 3.265.467 3.602.065.337 1.02.042 1.084-.063.064-.105-.467-3.58-.552-3.687zm15.14 4.045c-.298-1.285-.82-1.195-.914-1.18-.786.126-.87 2.907-.892 3.118s1.847.232 1.953.126c.106-.104.148-.78-.15-2.064zm10.997-4.002c-.107-2.043-3.274-1.84-3.44-1.475-.107.232-.17 3.308.148 3.497.32.19 3.398.02 3.29-2.022zm-2.315-.38c.152-.086.85-.105.913.38.064.484-.743.736-.934.59-.19-.148-.128-.885.02-.97zm10.404 1.6c.594.148 3.14-.252 2.993-1.853-.15-1.6-3.178-1.527-3.27-1.327-.106.232-.318 3.034.276 3.18zm.933-2.063c.12-.05.616 0 .658.274s-.572.652-.763.547c-.19-.106-.042-.76.106-.822zM10.415 28.21c-.127.21-.17 3.475-.064 3.58.107.105.808.126.935.084s.17-3.455.064-3.687-.73-.316-.935.022zm47.604-3.92c-.15.17-.213 2.824-.17 3.14s1.21.105 1.252-.147c.043-.253-.042-2.844-.085-3.013-.043-.17-.82-.18-.998.02zM10.542 49.78c-.15.17-1.635 3.646-1.677 3.92-.042.273.828.125.955 0 .128-.127 1.53-3.54 1.615-3.71.084-.166-.722-.4-.892-.21zM36.51 51.09c.17-.063-1.288-3.68-1.38-3.624-.17.105-1.74 3.308-1.826 3.518-.085.21 3.036.17 3.206.106zm2.208 4.34c.19 0-.715-2.012-.913-2.044-.127-.02-.807 0-.998.084-.19.084.552 1.77.7 2s1.02-.04 1.21-.04zm.53-32.212c.574.442 4.63-.063 4.82-.442.192-.38-.254-8.09-.254-8.237 0-.147.934-.42 1.465-.674.53-.253 2.313-1.517 2.653-3.497.34-1.98-.573-3.308-2.59-4.57-2.017-1.265-6.39.252-6.476.357-.085.105.297 3.94.382 7.9.084 3.96-.286 8.943 0 9.163zm.808-15.99c.106-.126 3.12-1.348 5.117-.105 1.996 1.244 1.57 3.372.87 4.446s-1.91 1.264-2.25 1.37c-.34.104-1.295.736-1.21 1.39.085.652.212 6.698 0 7.162-.212.464-1.868.674-2.187.42-.332-.262.17-3.833.064-7.857-.107-4.022-.51-6.697-.404-6.824zm10.192 42.998s1.04-2.044 1.062-3.244c.02-1.2-1.295-3.666-4.5-3.813-3.207-.147-5.392.946-5.606 1.138-.212.19.552 2.17 1.147 5.288.596 3.118 1.04 7.816 1.04 7.9 0 .084 4.757.147 4.948.126.19-.022-.19-2.57-.02-2.508.17.063 1.38 2.38 1.528 2.444.15.063 4.692.21 4.947.126.255-.084.297-.485.276-.695-.024-.21-4.822-6.763-4.822-6.763zm.148 6.067c-.064-.21-2.272-4.34-2.654-4.465-.382-.126-1.104.17-1.104.316s.573 4.193.467 4.193c-.106 0-2.484-.063-2.484-.063s-.19-2.865-.848-6.257c-.658-3.392-.955-5.056-.87-5.12.156-.116 2.674-.673 4.437-.526 1.76.147 2.887 1.6 2.76 2.76-.128 1.16-1.21 2.697-1.232 3.013-.02.316 4.204 6.004 4.14 6.11-.064.104-2.548.252-2.612.04zm7.857-4.78c-2.272.21-3.185 2.527-2.123 4.55 1.062 2.02 4.565.968 4.905-1.096.34-2.065-1.257-3.597-2.782-3.455zm1.57 3.16c-.184 1.122-2.087 1.695-2.663.596s-.08-2.357 1.153-2.472c.83-.077 1.695.756 1.51 1.877zm-12.06-32.634c-.02.42 4.078.295 4.27.19.19-.105 8.768-13.104 9.214-13.82.446-.716.616-1.833.233-2.19-.382-.36-3.397-.4-3.588-.38-.19.02-2.994 3.96-3.1 3.94-.106-.02-1.55-3.223-1.805-3.518-.255-.295-4.52.16-4.544.232-.234.716 3.567 5.94 3.588 6.004.023.062-4.245 9.12-4.266 9.542zm2.782-14.494c0-.14 1.338-.17 1.507.02.17.19 2.25 3.814 2.463 3.983.212.17.913-.358 1.147-.653.234-.295 2.74-3.602 2.888-3.645.15-.042 1.74.042 1.74.105s-.34.78-.487.822c-.15.042-.913-.105-1.062 0-.148.105-2.186 2.78-1.995 2.97.19.19.934.42.934.42s-6.158 9.29-6.307 9.313c-.15.02-2.272.063-2.123-.126.15-.19 3.97-7.288 4.12-7.815.148-.527-.022-1.117-.34-1.56s-2.485-3.517-2.485-3.833zM39.992 41.607c.552-.253 5.308-4.445 5.52-4.424.213.02 2.74 2.128 3.95 3.118 1.21.99 2.314 1.602 3.08 1.433.763-.168 1.146-.632 1.23-1.16.085-.526.127-14.893.042-15.083-.085-.19-4.31-.21-4.438-.063-.127.148-.318 8.427-.467 8.406-.15-.02-2.825-2.043-3.016-2.043s-3.036 2.718-3.143 2.718c-.105 0-.51-8.574-.636-8.827-.127-.252-4.056-.358-4.162-.104-.15.358.17 14.81.212 15.337.045.526 1.276.947 1.828.694zm-.828-14.788c.04-.233 1.847.062 1.847.062s.383 9.333.638 9.522c.255.19.87.063.934.02.064-.04 3.397-3.117 3.397-3.117s3.31 2.676 3.566 2.802.956-.38.892-.802c-.064-.42-.085-8.595.234-8.722.318-.126 2.08-.084 2.144.105.064.19-.106 13.505-.36 13.63-.256.127-1.296-.125-2.76-1.39-1.466-1.263-3.462-3.096-3.972-3.222-.51-.126-5.52 4.466-5.86 4.53-.34.063-.742-13.167-.7-13.42zm20.256-5.416c-.828.168-3.376.92-3.525 1.264-.19.442.382 7.984.488 11.692.106 3.708.212 14.283.212 14.957 0 .674 3.525.506 3.822.42.297-.083.637-.104.68-1.62.04-1.518.317-25.176.36-25.83.044-.65-1.21-1.05-2.037-.883zm.404 26.524c-.106.463-1.762.843-1.975.21-.213-.63.084-9.458-.235-14.493-.318-5.035-.446-10.302-.276-10.576.175-.285 2.802-.507 2.802-.254s-.212 24.648-.318 25.112zM22.54 20.182c.084-.17.148-.105.317-.042.17.063.722 2.886.764 3.265.043.38 3.632-.105 3.76-.19.126-.084.148-.084.233-.758.085-.674-4.67-15.252-4.84-15.842-.17-.59-1.51-.17-1.72.084-.213.252-.83 4.528-1.402 8.53-.572 4.004-.615 7.46-.615 7.46.127.252 2.57.59 2.824.59s.594-2.93.68-3.098zm-1.04-1.2c-.15.42-.426 2.95-.532 2.97-.106.02-.87.02-.977-.148-.127-.204.617-4.72 1.063-8.406.446-3.687 1.083-5.393 1.21-5.33.127.063 2.74 9.206 3.376 11.44.636 2.232.89 2.422.678 2.61-.212.19-1.38.507-1.507.148-.126-.358-.976-3.813-1.167-3.876-.19-.06-1.996.17-2.144.592zm-4.48 11.25c-.086.02-4.417-4.53-4.715-4.762-.297-.232-3.1-.274-3.567.147-.467.42-.53 2.17-.425 5.54.106 3.372.322 6.17.595 6.532.255.336 4.183.673 4.31.273.127-.4-.234-4.74-.106-4.72.127.022 3.822 3.898 3.992 4.088s3.25.233 3.525.19c.275-.04.848-.715.89-.947.043-.232 0-10.28.022-10.66.02-.38-4.5-.337-4.63-.253-.127.084.192 4.55.107 4.57zm1.273-3.266c.15-.042 2.293.063 2.293.126s-.425 8.806-.467 8.974c-.043.17-2.188.084-2.188.084s-4.884-4.698-5.117-4.845c-.234-.147-.786.042-.892.527-.106.485-.042 5.035-.042 5.035s-1.825.02-1.91-.126c-.033-.057-.276-3.412-.425-6.256-.15-2.844-.085-3.476.255-3.813s1.762-.252 2.08.043 5.67 5.983 6.095 6.11c.425.125.552-.36.552-.443s-.383-5.372-.234-5.414zM20.607 52.9c-.17-.022.276-.865.276-.865s3.312 0 3.546-.02c.233-.022.827-3.308.806-3.52-.02-.21-2.633-.4-2.803-.42-.17-.02.934-2.338 1.02-2.465.084-.126 4.16 1.01 4.564 1.074.403.063 1.062-3.434 1.062-3.792s-8.256-2.483-8.43-2.402c-.36.168-1.444 1.538-2.93 5.288-1.486 3.75-3.822 10.47-3.673 10.702.15.232 12.25.463 12.38.42.126-.04.51-3.686.402-3.875-.108-.19-6.053-.105-6.223-.126zm4.692 2.8s-9.577-.02-9.64-.252c-.065-.232 1.76-5.16 2.802-8.342 1.04-3.18 2.23-5.14 2.505-5.372.26-.218 6.773 1.75 6.71 1.938-.064.19-.34 1.56-.488 1.56-.15 0-4.27-1.118-4.524-.99-.255.125-1.74 4.802-1.656 4.802.085 0 2.845.126 2.845.295s-.382 1.6-.467 1.62c-.085.022-2.888-.23-3.08-.083-.19.147-1.294 3.034-1.23 3.055.063.02 6.433.105 6.433.17.002.06-.21 1.6-.21 1.6zM13.302 39.44c-.297-.02-1.932 3.792-2.123 3.94-.19.147-5.69-7.405-5.988-7.33-.255.062-2.95 2.675-2.888 2.885.064.21 6.858 8.87 6.858 9.038 0 .17-3.08 8.596-2.994 8.828.085.232 4.65.063 4.777-.02.127-.085 6.688-15.76 6.688-15.95s-4.033-1.37-4.33-1.39zM10.053 55.7c-.084.022-2.356.064-2.313-.083.042-.147 2.697-7.69 2.697-7.984 0-.295-6.37-8.51-6.37-8.616s1.02-1.18 1.125-1.138c.225.088 6.01 7.31 6.2 7.372.19.063 2.42-4.32 2.633-4.298.212.02 2.102.57 2.102.674 0 .106-5.988 14.052-6.073 14.073zm1.51-31.957c.21-.147-.383-4.824-.383-4.888s1.53-.442 1.677-.442 1.02 4.445 1.104 4.782c.086.337 4.14.084 4.248-.084.106-.168-.85-17.337-.955-17.485-.106-.147-5.584.674-5.67.716-.084.043.383 6.342.404 6.658.02.316-.892.063-.998.063-.107 0-.85-5.75-1.063-5.898-.212-.146-4.733.78-4.756.865-.19.716 2.294 15.674 2.464 16.053.17.38 3.715-.19 3.928-.337zM9.077 8.385c.02.084.977 5.962 1.274 5.983.297.02 3.036-.17 3.015-.442-.02-.274-.87-6.7-.722-6.72.15-.02 3.567-.442 3.63-.19.065.253.723 14.915.638 14.957-.085.042-1.975.274-2.08.126-.107-.148-.596-5.1-1.084-5.205-.49-.105-3.632 1.222-3.632 1.454 0 .23.446 4.507.34 4.507s-1.868.316-1.868.105S6.55 10.83 6.572 8.996c.002-.2 2.484-.695 2.506-.61zm26.583 34.34c-.615-.085-1.655 1.81-2.78 4.17-1.125 2.36-4.905 9.86-4.97 10.154-.063.294 4.65.104 4.8.062.15-.042 1.805-2.76 1.975-2.697.17.063.85 2.38 1.04 2.718.19.337 3.886.38 4.67.17.787-.212.808-.675.765-1.054-.042-.38-5.16-13.48-5.5-13.526zm.978 13.42c-.064-.085-1.04-3.603-1.38-3.814-.34-.21-.85.212-.956.4-.106.19-2.038 3.266-2.187 3.287-.15.02-2.505.19-2.442-.042.064-.232 2.06-4.487 3.227-6.952 1.168-2.465 2.038-4.298 2.166-4.32.17-.027 4.67 11.356 4.544 11.44-.127.085-2.91.085-2.972 0zM32.9 22.73c.426-.337-.105-6.994-.02-7.394.085-.4 1.083-.316 1.635-.57.552-.252 2.57-1.937 2.824-4.023.254-2.086-.85-4.087-3.887-4.95-3.036-.865-6.242.505-6.39.694-.15.19 1.203 16.433 1.252 16.473.254.21 4.16.106 4.586-.23zm-4.48-15.61c.213-.127 5.543-1.118 7.072 1.137 1.53 2.253-.19 5.097-1.826 5.434-1.635.337-2.166.57-2.166 1.39s.34 6.594.17 6.636c-.17.042-2.23 0-2.23 0s-.02-3.708-.36-7.668c-.34-3.96-.872-6.805-.66-6.93zm7.007 22.71c.234-.043.446-3.772.19-4.193-.254-.422-10.162.304-10.51.357-.55.084-.55 1.074-.55 3.392 0 2.316-.128 9.247.063 9.795s1.36 1.095 2.208 1.37c.85.273 8.45 1.6 8.536 1.474.085-.127.764-3.098.36-3.688-.402-.59-5.753-1.433-5.838-1.454-.085-.02-.064-1.917-.042-2 .02-.085 5.393.21 5.414.146.02-.063.233-3.013.085-3.202-.15-.19-5.818-.485-5.88-.485-.065 0 0-2.022.063-2.086.062-.06 5.668.613 5.9.57zM28.4 32.42c.424.105 5.753.337 5.817.442.064.105-.02 1.117-.085 1.138-.064.02-4.99-.38-5.5-.232s-.296 4.15 0 4.277 5.967.822 5.946.99c-.02.17.02 1.622-.042 1.664-.064.043-8.43-1.516-8.514-1.832-.085-.316-.106-11.966 0-12.282.054-.16 8.132.084 8.26.21.127.127-.02 1.665-.02 1.665s-5.14-.59-5.564-.357c-.425.232-.36.274-.403 1.032-.044.76-.32 3.182.104 3.287zm16.773 13.61c-.127.19.297 3.14.616 3.392.317.253 2.972-.485 2.59-2.317-.383-1.834-3.117-1.21-3.207-1.075zm1.444 1.917c-.15-.17-.17-.99-.106-1.012.183-.06.574.02.617.337.042.315-.36.842-.51.674z"/></svg>