<svg xmlns="http://www.w3.org/2000/svg" viewBox="0 0 64 64"><path d="M22.522 49c-.148 0-.282-.008-.405-.022-2.87-.322-9.353-6.815-9.415-6.88-1.237-1.28-2.64-3.095-3.764-4.552-.604-.782-1.356-1.754-1.59-1.984-.61-.544-1.11-1.012-1.532-1.404-1.24-1.16-1.34-1.216-1.742-1.304-2.086-.46-3.35-1.322-3.86-2.63-.382-.978-.25-2.052.36-2.95 1.11-1.632 13.068-8.83 17.527-10.55C21.118 15.565 23.665 15 25.893 15c1.297 0 2.505.2 3.592.59.906.328 1.79.794 2.57 1.205.546.29 1.347.71 1.73.822.185-.065.6-.228.916-.352 1.652-.65 4.148-1.63 7.3-1.63.403 0 .813.015 1.232.05 4.307.36 9.95 4.468 13.683 7.187.773.563 1.445 1.054 1.973 1.41 1.134.764 1.97 1.237 2.582 1.583 1.128.637 2.53 1.43 2.53 3.264 0 1.393-.25 1.69-6.677 7.926-1.935 1.88-3.938 3.822-5.338 5.273-.47.486-.9.94-1.3 1.362-2.854 3.004-4.74 4.99-8.13 5.16-.124.007-.25.01-.376.01-1.635 0-3.332-.505-5.13-1.04-1.6-.477-3.258-.97-4.568-.97l-.2.003c-1.59.066-3.925.74-5.8 1.28-1.922.552-3.053.865-3.96.865z" fill="#FFF"/><path d="M57.5 26.386c-2.894-1.952-10.017-7.808-14.474-8.18-4.457-.372-7.766 1.813-9.053 1.952-1.287.14-3.4-1.487-5.33-2.184-1.93-.697-4.825-.744-9.65 1.115-4.825 1.858-15.854 8.876-16.36 9.62-.504.744.506 1.348 1.977 1.673 1.47.325 1.877 1.038 4.41 3.3.782.697 3.447 4.555 5.47 6.646 2.02 2.09 6.662 5.994 7.903 6.134 1.24.14 6.433-2 9.788-2.138 3.356-.14 7.49 2.138 10.248 1.998 2.757-.14 4.09-1.952 7.766-5.763 3.676-3.81 11.304-10.828 11.304-11.432 0-.604-1.102-.79-3.997-2.742zM6.794 28.048c-.174-.27 15.37-9.307 18.507-8.89 3.136.42 5.618 3.07 8.444 3.07 2.826 0 6.34-2.302 8.823-2.337 2.48-.034 14.406 8.367 14.44 8.68.035.315-5.72 1.953-10.993 2.092s-7.617-.87-8.582-1.01c-.965-.14-2.378.905-5.86.836-3.48-.07-4.755-.593-5.34-.627-.587-.034-5.274.977-9.617 1.012-4.343.034-9.237-1.918-9.822-2.824zm37.84 14.884c-1.033 1.115-1.86 1.43-3.997 1.185-2.137-.244-4.618-2.3-8.547-2.057-3.93.244-6.584 1.987-8.927 1.848-2.344-.14-6.755-4.636-8.754-6.972-2-2.336-4.79-5.542-4.688-5.752.12-.244 2.447 1.36 7.754 1.08 5.307-.278 6.755-.452 6.755-.452s3.413 1.394 8.34 1.185c4.93-.21 5.55-.558 5.653-.558.103 0 5.24.313 10.615-.663 5.376-.976 8.582-1.813 8.823-1.708.243.104-11.992 11.747-13.026 12.862zM23.13 21.285c-.242 0-8.338 4.037-8.514 4.392-.172.35.482.767.793.732.31-.036 8.546-3.975 8.65-4.01.103-.034-.69-1.115-.93-1.115zm-1.552 11.922c-1.706 1.307-3.05 4.758-3.136 5.072-.086.313.793.592.88.557.085-.035.31-.82.86-2.196.552-1.376 2-2.683 2.086-2.805.085-.123-.59-.705-.69-.628zm3.653.8c-1.257 1.482-2.084 5.753-2.17 6.153-.086.4.38.14.517.14s.103-.35.482-1.744c.378-1.394 1.877-4.322 1.998-4.444.12-.12-.692-.262-.827-.104zm3.585.228c-.034.157-.396 4.514-.362 4.636.034.123.345.07.43-.016.087-.087.69-4.48.62-4.584-.067-.105-.663-.15-.688-.035zm5.618.314c-.07-.088-.733-.084-.775-.053-.12.087.034.54.448 1.62.414 1.082.276 2.633.276 2.807 0 .174.276.052.414-.052.138-.105.24-.645.19-1.882-.053-1.24-.484-2.354-.553-2.44zm4.808-.315c-.24 0-.55.105-.705.436-.155.332.414.907 1.034 1.76.62.855.878 2.563.98 2.72.104.157.26.052.346-.105.086-.157.138-.87-.345-2.545-.482-1.672-1.185-2.265-1.31-2.265zm4.55-.26c-.172.034-.638.452-.655.68-.017.226.43.696.965 1.254.534.557.706 2.37.775 2.63.07.262.155.175.362.036.207-.14.155-.593-.052-2.196-.206-1.605-1.17-2.452-1.395-2.406zm3.808-.42c.224.21.345 1.55.43 1.83.087.28.432-.07.604-.26.172-.193-.138-1.64-.224-1.71-.086-.07-.878.077-.81.14z"/></svg>