<svg xmlns="http://www.w3.org/2000/svg" viewBox="0 0 64 64"><path d="M53.988 64c-.994 0-1.898-.47-2.48-1.29l-.785-1.14c-2.63-3.834-4.45-6.453-5.44-7.828-.888.156-2.018.314-3.173.314-1.62 0-2.914-.31-3.954-.945-2.637-1.61-14.134-12.688-15.478-14.04-1.34-1.348-2.436-2.367-3.065-2.937C16.98 35.68 9.86 33.738 7.07 25.76c-2.715-7.762-.22-15.812 7.027-22.67C16.235 1.07 19.364 0 23.147 0c6.774 0 13.682 3.283 16.797 7.986 3.866 5.834 3.902 10.435 3.606 12.872.497-.143.69-.143.923-.143 1.357 0 2.08.932 2.352 1.283.05.065 5.048 6.546 4.366 9.29-.167.674-.52 1.257-.947 1.747 1.57 2.742 3.995 7.222 4.535 9.573.888 3.872-.71 6.6-2.498 7.86-.086.06-.176.12-.27.178 6.525 8.95 6.414 9.172 5.605 10.8-.44.884-1.762 2.554-3.627 2.554z" fill="#FFF"/><path d="M48.048 49.813c-.15-.225 1.936-1.05 2.68-1.574.746-.526 2.086-2.1 1.416-5.022-.67-2.923-5.437-10.867-5.437-10.867s1.638-.823 1.862-1.723c.222-.9-3.874-7.195-4.097-7.195-.223 0-2.16.75-2.16.75l-1.638-2.474c.298-1.574 1.192-5.92-2.98-12.216C33.526 3.197 20.94.35 15.95 5.07c-4.99 4.72-9.162 11.69-6.33 19.785s11.17 8.693 11.17 8.693 1.564 1.35 3.798 3.597c2.234 2.248 12.884 12.366 14.97 13.64 2.085 1.274 6.554-.075 6.852 0 .298.075 6.926 9.818 7.3 10.342.37.525 1.265-.45 1.49-.9.22-.446-7.003-10.19-7.152-10.414zm-3.8-24.206c.3.15 2.682 4.646 2.235 4.87-.447.226-.26.676-.596.15-.335-.524-2.756-4.346-2.68-4.683.047-.213.745-.487 1.042-.337zm-6.143-7.832c.075.225.26 3.522-.074 3.485-.334-.037-2.42-1.574-2.53-1.724-.068-.09 1.414-1.35 1.898-1.574.484-.224.633-.412.707-.187zm-7.82 0c-.26-.112-2.793-.45-2.867-.562-.23-.35 1.452-3.297 1.452-3.297s3.165.412 3.165.6c0 .186-1.49 3.37-1.75 3.26zm3.39-2.81c.325-.182 3.425 1.574 3.388 1.686-.037.113-1.415.526-2.048 1.35-.633.824-.708 1.05-.856 1.05-.15 0-2.496-.975-2.496-1.163s1.675-2.735 2.01-2.922zm-5.363-2.548c-.372.112-4.17.262-4.208.037-.037-.225 1.638-3.223 1.936-3.41 0 0 3.947.45 3.947.75s-1.303 2.51-1.675 2.623zm-.97 1.386c.3.187-1.265 3.485-1.526 3.56-.26.075-3.5.375-3.65-.037-.148-.412.82-3.11.97-3.26.333-.336 3.91-.45 4.207-.263zm-.557 5.284c.133-.067 2.793-.075 2.83.187.037.262-1.08 3.223-1.08 3.223s-2.495-.45-2.607-.712c-.11-.263.633-2.586.857-2.698zm2.83 5.583c.186 0 2.048.824 2.048 1.05s-.708 3.934-.93 3.896-1.75-1.237-1.863-1.386c-.246-.33.56-3.56.745-3.56zm.26-1.574c-.073-.375 1.006-3.373 1.304-3.635.17-.15 2.047.938 2.047 1.05 0 .112-.968 3.372-1.23 3.372s-2.047-.41-2.12-.786zm3.166 3.298c.138-.07 1.453.824 1.267 1.35-.186.524-1.527 1.535-1.75 1.423-.224-.113.037-2.55.484-2.773zm.15-1.95c-.037-.374 1.266-3.52 1.638-3.484.27.027 2.718 1.65 2.718 2.136 0 .487-1.9 3.26-2.123 3.26-.222 0-2.196-1.536-2.233-1.91zm3.426-11.878c.335.225 1.043 2.024 1.043 2.248 0 .225-2.83-.937-2.98-1.124-.126-.157 1.6-1.348 1.936-1.124zm-4.84-2.473c.334 0 3.686.937 3.648 1.274-.037.337-2.31 1.874-2.31 1.874s-3.276-.6-3.388-.786c-.11-.187 1.714-2.36 2.05-2.36zm-2.608-2.885s1.936.787 1.676.937c-.26.15-.298.262-.596.15-.298-.113-1.34-.375-1.34-.375s-.038-.6.26-.712zm-5.437-.525c.16-.096 2.757.037 2.645.225-.112.187-.93 1.124-1.266 1.124-.336 0-2.868.225-2.868.225s1.303-1.46 1.49-1.574zm.3 3.11s-1.118 2.886-1.565 2.924-2.83.262-2.83.112c0-.15 1.192-2.587 1.34-2.736.118-.12 3.054-.3 3.054-.3zm-4.544-2.51c.186-.037 1.452-.187 1.452-.187s-.298 1.46-.633 1.65c-.335.186-2.495.45-2.607.336-.342-.345 1.602-1.762 1.788-1.8zm-3.35 4.084c.133-.27 2.94-.6 2.94-.6s-1.004 2.323-1.153 2.398c-.15.075-2.644 1.012-2.718.787-.076-.224.818-2.36.93-2.585zm-2.236.675c.223.037.037-.112.223.037.186.15-.447 2.36-.596 2.472-.15.112-1.117.262-1.192.112-.098-.2 1.342-2.66 1.565-2.622zm-1.377 6.782c-.15.037-.968.075-1.154-.075-.146-.118.073-2.1.26-2.137.186-.037 1.154-.375 1.303-.225.148.15-.26 2.4-.41 2.436zm2.495 8.094c-.298 0-.112.187-.447-.037-.334-.224-1.414-1.123-1.45-1.31-.038-.188.148-1.762.148-1.912 0-.592 2.123-.562 2.234-.337.11.226-.187 3.598-.484 3.598zm.484-5.17c-.15 0-1.936.374-2.085.336-.15-.037.037-1.8.112-2.023.06-.18 2.308-.374 2.308-.26 0 .11-.187 1.947-.336 1.947zM14.05 18.41c-.113-.262.297-2.436.41-2.66.13-.263 2.94-.9 2.94-.788 0 .112-.967 2.96-1.08 2.998-.11.038-2.16.712-2.27.45zm6.144.9s.075 1.498-.15 1.61c-.222.112-2.866.525-2.904.3-.037-.225.26-1.8.26-1.8.26-.148 2.794-.11 2.794-.11zm-3.314 3.597s3.016-.188 3.016-.076.075 3.56-.186 3.522c-.26-.037-2.905 0-2.905 0s.037-3.26.075-3.447zm3.165 7.905c-.484-.037-2.83-1.087-2.942-1.35-.112-.26-.15-1.61-.15-1.61.336-.037 2.906-.112 3.017.037.112.15.56 2.96.075 2.923zm.372-13.34c-.372.037-2.68.375-2.68.225s1.08-3.11 1.19-3.335c.16-.318 2.757-.375 2.757-.225s-.895 3.298-1.267 3.335zm3.39 13.977c-.448.037-2.16-.15-2.198-.3-.038-.15-.113-3.223-.113-3.223.15-.076 2.383.224 2.383.224s.373 3.26-.074 3.298zm-.076-4.91c-.11 0-2.345.15-2.42-.15-.074-.3-.148-3.26-.11-3.484.04-.248 2.866-.075 3.053.3.186.375-.41 3.335-.522 3.335zm-2.233-5.282c-.112-.262-.26-1.874.15-2.248.358-.33 3.537-.225 3.61.037.076.26-.52 2.622-.632 2.622-.112 0-3.016-.15-3.128-.412zm4.17 2.06c.224-.11 2.273.45 2.384.788.113.337-.52 3.597-.52 3.597s-2.123-.787-2.272-.937c-.29-.29.186-3.335.41-3.447zm-.297 5.097c.192-.116 2.234.862 2.272 1.05.037.186 0 1.648-.112 1.723-.112.075-2.048.45-2.197.112-.15-.337-.15-2.773.037-2.885zm22.082 18.886c-.26.3-3.538 1.874-5.81 1.274-2.27-.6-7.893-6.52-11.282-9.48-3.39-2.96-5.14-4.91-5.027-5.246 0 0 5.735-.898 8.527-2.697 2.793-1.8 5.623-6.483 5.92-6.37.3.112 4.73 8.47 4.62 8.618-.113.15-1.49.038-1.49.15 0 .113-.187 1.238.185 1.313.372.075 1.862-.037 2.16.262.298.3 1.303 2.21 1.154 2.21s-2.273-.3-2.273-.3-.26 1.125-.075 1.2c.186.075 3.24.787 3.5 1.012.26.225 1.527 3.335 1.303 3.335-.223 0-4.17-1.424-4.17-1.424s-.373 1.237 0 1.386c.37.15 4.728 1.836 4.877 2.024.15.187-.074 1.65-.335 1.76-.26.113-4.543-1.61-4.655-1.573-.112.037-.447.637-.298.974.152.336 3.43 1.273 3.168 1.573zm-16.05-12.216c-.447.037-.856.45-.856.637s4.17 5.02 4.878 5.47c.708.45 1.154-.45 1.303-.786.15-.337-5.125-5.338-5.325-5.32z"/></svg>