<svg xmlns="http://www.w3.org/2000/svg" viewBox="0 0 64 64"><path d="M32.397 64c-3.65 0-7.01-.69-9.714-1.994-5.16-2.49-11.007-5.31-14.567-12.9-3.327-7.093-2.313-16.033.168-21.747 2.34-5.39 7.687-10.192 10.648-11.587 1.698-.8 4.474-1.552 6.5-2.1.124-.035.252-.07.38-.104-.146-1.17-.357-2.724-.53-4-.546-4.046-.705-5.302-.705-5.833 0-2.04 1.934-2.577 3.805-3.096C29.244.4 30.802 0 31.56 0c.63 0 1.323.268 1.77.718.723.73.765.773 1.738 11.082 4.235.386 13.518 2.015 17.923 8.873 5.366 8.356 5.714 11.685 5.987 18.42.364 8.94-3.342 15.845-11.015 20.522C43.322 62.442 37.794 64 32.397 64z" fill="#FFF"/><path d="M56.598 39.19c-.262-6.442-.557-9.35-5.607-17.214-5.05-7.864-18.1-7.897-18.1-7.897s-1.08-11.5-1.244-11.666c-.164-.165-4.69.995-4.69 1.322 0 .958 1.542 11.268 1.41 11.532-.13.264-5.9 1.487-8.426 2.676-2.525 1.19-7.41 5.617-9.476 10.376s-3.312 13.118-.197 19.76c3.115 6.642 8.033 9.153 13.444 11.763 5.41 2.61 14.887 2.676 23.02-2.28 8.13-4.957 10.13-11.93 9.868-18.372zm-4.82-11.597c.525.43 1.54 3.635 1.344 3.734-.197.1-2.033 0-2.066-.165-.033-.165-1.312-4.163-1.05-4.395.373-.328 1.248.396 1.772.826zm-.885 9.88c-.59.165-11.345.66-11.607.463-.262-.198-1.246-5.485-1.148-5.816.067-.224 11.476.1 11.77.43.296.33 1.575 4.757.985 4.923zm-2.295-14.54c.15-.226 1.803 2.017 1.705 2.017-.098 0-1.05.066-1.18-.132-.132-.2-.656-1.686-.525-1.884zm-10.165-6.18c.295.2 3.213 6.61 2.82 6.643-.393.033-3.213-.033-3.41-.23-.197-.2-2.754-6.114-3.115-6.61-.06-.084 3.41 0 3.705.198zm-22.69 7.304c1.213-1.322 2.558-2.842 3.017-2.974 0 0-1.18 2.81-1.574 3.767-.393.958-.623 1.85-.82 1.95-.197.1-3.345 1.586-3.377 1.19-.034-.397 1.54-2.61 2.753-3.933zm-3.246 19.99c-.13.034-1.344.1-1.475-.164-.13-.264-.393-3.27-.197-3.57 0 0 1.902-.23 1.967.034.065.265-.164 3.668-.295 3.7zm-1.673-8.623c-.23-.264.59-4.494 1.18-5.353.172-.25 3.213-1.42 3.443-1.32.23.098-1.54 5.154-1.77 5.385-.23.23-2.623 1.553-2.853 1.29zM18.66 53.4c-.26-.133-.688-1.62-.622-1.85.108-.384 1.705.263 1.64.43-.066.164-.755 1.552-1.017 1.42zm1.05 1.552c-.23-.1-.557-.562-.492-.793.08-.285 1.443-2.248 1.443-2.248s.59.066.558.198c-.032.133-1.278 2.94-1.508 2.842zm4.427 1.058c-.133-.237 1.475-2.28 1.705-2.115.23.165.46 2.51.46 2.51s-1.87.133-2.165-.395zm6.394-23.99c.394-.033 1.41.033 1.41.033s.59 12.424 0 19.495c0 0-5.31.132-5.508-.132-.197-.264-.69-7.732-.46-10.144.23-2.412.33-2.412.198-2.544-.13-.132-1.016-.23-1.115 0-.098.23-.492 6.642-.098 9.583.393 2.942.623 3.834.525 3.966s-1.836 3.668-2.1 3.7c-.26.034-1.212.034-1.212-.065 0-.098 2.82-4.79 2.722-4.823-.098-.033-.754-.132-.754-.132s-2.722 4.957-2.918 4.923c-.197-.033-.984-.165-.95-.496.032-.33 2.097-3.503 2.13-3.767.033-.264-.36-.76-.36-.76l-.755-.132s-1.377-3.932-1.28-3.932c.1 0 2.92.2 3.116.166.198-.033.165-1.09-.065-1.19-.23-.1-6.1-.165-6.197-.53-.098-.362.164-5.12.69-5.154.524-.033 4.72.33 4.82.066.097-.264.294-.826.163-.892-.13-.066-8.196-.033-8.23-.33-.032-.297.69-3.998.82-4.097.132-.1 3.247-.662 3.378-1.025.13-.363.164-.925.164-.925s-3.574.86-3.574.76c0-.1 1.54-5.42 1.77-5.683.23-.264 3.345-.793 3.444-.925.098-.132.262-1.057.164-1.09-.098-.033-2.885.628-2.82.363.066-.264 2.754-5.98 3.607-7.005.283-.34 6.164-2.082 6.296-2.016s-.69 2.875-.59 2.974c.097.1.556.33.82-.165.26-.496.917-3.073 1.147-3.172.23-.098 1.672-.462 1.803-.065.13.396 1.082 4.03 1.246 4.196.164.166.46.497.525-.032.067-.53-.622-4.527-.49-4.56.13-.033 1.245-.264 1.41 0 .163.264 1.41 1.62 2.13 4.097.72 2.478.853 2.51.72 2.61-.13.1-5.606.397-5.606.66 0 .265-.492.827.066.827.557 0 5.968-.33 6.066-.23.098.098 1.54 4.79 1.77 4.79.23 0 .624.165.657-.132.033-.297-1.05-4.692-1.05-4.692s3.64.264 3.805.397c.164.132 1.28 4.46 1.54 4.527.263.066.755.363.788.066.033-.297-1.508-4.395-.853-4.395.656 0 4.427.694 4.69.99.26.298 1.54 5.288 1.442 5.288s-4.394-.924-10.853-.56c-6.46.362-8.033.495-8.296.76-.266.263-.3.593.095.56zm3.903 23.758c-.154-.18 2-3.337 2.23-3.37.23-.033 1.148-.198 1.148-.1 0 .1-1.835 3.37-2 3.504-.164.132-1.18.198-1.377-.034zm4.23-.363c-.295.066-1.607.33-1.738.132-.09-.138 1.77-3.238 2.23-3.337.46-.1 1.05-.23 1.148-.132.097.1-1.345 3.27-1.64 3.337zm12.46-7.236c-.13.13-2.558 1.717-7.706 2.213-5.148.496-7.804.628-7.902.86-.098.23-1.443 3.535-1.64 3.634-.228.115-.688-2.214-.688-2.643 0-.43.164-7.93.164-9.98 0-2.048.198-3.04.198-3.04s11.28-.395 11.51-.164c.23.23.556 6.377.327 6.41-.23.033-1.672.297-1.607 0 .066-.297 1.082-2.81.984-2.875-.098-.066-1.016-.1-1.082.066-.066.166-.656 2.843-.918 2.81-.262-.033-.984.198-.984-.033 0-.23.984-3.007.984-3.007s-1.213 0-1.213.23-.558 2.81-.657 2.81c-.098 0-.656.1-.59-.132.066-.23.754-2.643.656-2.676-.1-.033-1.15-.066-1.18.033-.034.1-.362 2.81-.59 2.81s-4.1.032-4.198.164c-.098.13-.36 1.19-.066 1.19s4.853.263 9.673-.33c4.82-.596 6.622-1.356 6.786-1.323.163.03-.132 2.84-.263 2.972zm3.213-5.388c-.164.23-1.738.66-1.77.496-.034-.165-.263-4.692-.132-4.79.21-.16 1.935-.397 2.033-.298.098.1.033 4.36-.13 4.592zM27.164 24.255c-.394 1.057-1.224 6.3-1.05 6.83.176.528.307-.09.438-.133.13-.044 1.312-6.61 1.312-6.61s-.636-.257-.7-.087z"/></svg>