<svg xmlns="http://www.w3.org/2000/svg" viewBox="0 0 64 64"><path d="M24.187 64c-4.793 0-8.825-1.902-11.058-5.217-2.488-3.693-2.833-7.87-1.026-12.418.502-1.264 1.582-2.7 2.685-3.96-2.202-.89-4.605-2.57-5.836-5.748-2.842-7.336 1.443-11.72 2.823-12.887 1.6-1.354 4.338-1.5 5.44-1.5 1.817 0 3.867.36 5.707 1.208-.088-3.21 1.263-6.054 3.977-8.095 1.234-.927 2.71-1.416 4.272-1.416 4.816 0 10.068 4.74 10.602 9.567.23 2.078-.086 4.163-.54 5.908.473-.293.906-.683 1.228-1.2 1.87-3.013 1.855-5.807-.047-8.306-.27-.354-.535-.697-.796-1.033-2.412-3.11-4.905-6.324-4.118-11.375C38.148 3.378 42.622 0 47.474 0c2.06 0 3.943.62 5.445 1.796 1.858 1.455 2.918 3.47 3.063 5.826.185 3-1.214 6.126-2.625 7.545-1.017 1.022-2.565 1.586-4.36 1.586h-.066c1.697 2.535 2.98 6.022 1.628 10.854-1.63 5.824-6.055 9.3-11.84 9.3-.24 0-.48-.005-.723-.018-.888 1.31-2.545 3.056-5.554 4.48 2.433.864 4.658 2.676 5.603 5.576 1.147 3.523.94 7.25-.57 10.23-1.4 2.763-3.816 4.765-6.985 5.79-2.118.687-4.24 1.034-6.303 1.034zm-1.283-20.27c-1.62 1.46-4.64 4.748-4.476 7.368.284 4.548 1.43 5.863 5.11 5.863.398 0 .82-.018 1.268-.056 1.19-.1 2.257-.31 3.18-.622-1.356-.056-2.663-.515-3.8-1.336-1.5-1.085-2.45-2.644-2.748-4.51-.347-2.175.223-4.638 1.532-6.71-.023 0-.044.003-.066.005zM17.39 29.063c-.558 0-1.1.108-1.57.312-.424.185-.627.796-.71 1.144-.336 1.392.072 2.996.51 3.533.99 1.213 2.654 2.62 4.422 3.096 1.047-1.298 2.386-3.504 1.663-5.117-1.236-2.755-3.615-2.968-4.315-2.968zm11.07 4.435c-.033.79-.135 1.528-.283 2.208.12-.065.238-.133.355-.204.528-.32 1.008-.656 1.433-.98-.485-.307-.996-.65-1.504-1.023zm2.692-12.465c-.226 0-.453.043-.693.133-.055.03-.3.318-.415 1.068-.214 1.376.19 3.125.897 3.897 1.098 1.197 2.426 2.155 3.523 2.81.603-1.424 1.075-3.256.413-4.486-1.155-2.143-2.55-3.422-3.726-3.422z" fill="#FFF"/><path d="M50.5 11.106s-.176-1.142-.307-1.318c-.13-.176-1.484-1.318-3.318-.615-1.833.703-2.052 3.118-.96 4.216 1.09 1.097 4.41 1.448 5.762.087 1.353-1.36 3.71-6.72-.218-9.794C47.53.61 40.545 3.42 39.847 7.9c-.698 4.48 1.746 7.026 4.453 10.584 2.708 3.558 2.358 7.51.176 11.024-2.183 3.514-6.985 3.206-6.985 3.206s2.402-4.568 1.922-8.916c-.48-4.348-6.94-9.62-11.088-6.5-4.147 3.118-3.274 7.774-1.703 10.892 1.573 3.118 7.38 5.84 7.38 5.84s-1.573 1.89-4.236 3.515C27.1 39.17 23.87 39.39 23.87 39.39s3.406-3.69 1.79-9.575c-1.614-5.885-10.433-5.84-12.353-4.216-1.92 1.624-4.147 5.006-2.14 10.188 2.01 5.183 8.34 5.226 8.34 5.226s-4.236 3.82-5.196 6.237c-.96 2.417-1.876 6.238.787 10.19 2.663 3.953 8.556 5.226 14.668 3.25s7.683-7.906 6.024-13c-1.66-5.095-8.775-5.534-10.52-3.118-1.747 2.416-2.49 6.412.304 8.433 2.794 2.02 5.893.088 6.112-.703.218-.79.436-3.382-1.877-4.04-2.315-.66-3.188 1.624-3.188 1.624-1.964-3.162 1.09-5.007 3.143-4.7 2.052.308 4.104 2.197 4.54 5.798.436 3.6-2.095 7.686-9.298 8.3-7.203.616-8.644-3.16-8.95-8.036-.305-4.875 5.894-9.838 5.894-9.838 12.88-.922 14.713-7.07 14.713-7.07 5.108.877 9.953-1.45 11.612-7.38 1.66-5.93-1.31-9.18-3.667-11.727s-3.1-7.027-1.397-8.784c1.704-1.758 3.842-1.977 5.458-1.494 1.615.483 2.314 2.416 2.357 4.172.042 1.758-.526 1.978-.526 1.978zM20.945 39.698c-2.838-.132-5.544-2.152-7.16-4.128-1.614-1.976-1.832-7.115 1.092-8.39 2.925-1.273 7.16-.22 8.993 3.866 1.834 4.084-2.924 8.652-2.924 8.652zm14.536-7.6c-1.353-.482-4.19-2.063-6.286-4.347s-2.27-7.817.436-8.827c2.707-1.01 5.37.747 7.334 4.392 1.965 3.646-1.484 8.784-1.484 8.784z"/></svg>