<svg xmlns="http://www.w3.org/2000/svg" viewBox="0 0 64 64"><path d="M33.615 64c-1.555 0-4.752-1.335-5.06-3.784-.016-.14-.04-.478-.066-.984-.125-2.313-.505-9.35-2.38-15.716-.64-2.174-1.247-3.93-1.808-5.35-.214.64-.533 1.285-.975 1.92-1.86 2.682-5.564 3.082-7.605 3.082-2.237 0-4.466-.466-5.96-1.246-4.016-2.096-5.898-6.287-5.756-12.813.19-8.655 10.568-12.506 15.82-12.56h.18c1.72 0 3.343.25 4.85.737-.932-.837-1.803-1.898-2.514-3.228-1.195-2.234-1.252-4.78-.16-7.17 1.434-3.14 4.848-5.865 8.3-6.627C31.275.088 32.09 0 32.908 0c2.81 0 5.335 1.006 7.112 2.833 1.238 1.276 2.7 3.587 2.615 7.353-.053 2.308-.704 4.272-1.89 5.835l.328-.077c1.595-.37 3.14-.56 4.597-.56 6.688 0 11.626 4.04 12.888 10.542 1.524 7.855-1.17 11.608-3.7 13.372-1.74 1.214-4.262 1.94-6.745 1.94-1.495 0-3.613-.273-5.216-1.57-1.27-1.03-2.165-2.64-2.504-4.45-.318 1.02-.63 2.186-.93 3.514-1.423 6.356-2.018 14.077-2.304 17.787-.086 1.1-.15 1.864-.194 2.166-.053.358-.072.726-.092 1.07-.073 1.23-.174 2.92-1.67 3.82-.468.284-1.003.427-1.59.427z" fill="#FFF"/><path d="M29.465 11.28c.143 0 0-.385.287-1.73.287-1.347 1.34-2.213 1.434-2.453.096-.24-.786-.724-1.004-.625-2.44 1.106-2.295 4.087-2.295 4.23 0 .146 1.435.578 1.578.578zm2.296 6.25c2.344-.19 8.13-1.057 8.273-7.403s-5.068-8.174-8.99-7.308c-3.92.864-8.797 5.528-6.406 10 2.39 4.47 6.742 4.742 7.124 4.71zM28.75 5.993c1.457-1.282 5.212-1.78 6.55-.865 1.34.914 1.77 2.116 1.77 2.116s-1.004-.77-1.195-.53c-.19.24-.622.77-.335.963.287.192 1.77 1.635 1.817 1.827.048.192-.096 2.02-.096 2.02s-1.58-2.838-1.818-2.79c-.24.048-.86.433-.67.77.192.336 2.296 3.22 2.2 3.46-.096.24-.908.434-.908.434s-1.29-2.548-1.578-2.548c-.287 0-1.004.287-.86.48.142.192 1.673 2.79 1.433 2.933-.24.144-.957.24-.957.24s-1.29-2.596-1.434-2.596-.718.53-.718.53 1.482 2.547 1.29 2.547c-.19 0-1.29.24-1.338.096-.048-.144-1.148-2.116-1.29-2.116s-.766-.144-.67.192c.096.337.622 2.02.622 2.02s-2.343.287-3.634-3.51c-1.292-3.8 1.434-5.338 1.816-5.674zm27.255 20.433c-1.148-5.914-6.073-9.856-14.344-7.933-8.273 1.923-10.642 7.338-10.71 7.212-2.44-4.47-6.504-6.587-11.094-6.54-4.59.05-13.1 3.463-13.245 10.002-.142 6.54 1.866 9.135 4.352 10.433 2.486 1.297 8.463 1.538 10.232-1.01 1.77-2.55.335-4.57-.096-5.05-.43-.48-2.104-.287-3.06-1.105-.956-.817-.91-2.692.478-2.98 1.387-.29 2.295-.338 4.016.96 1.72 1.3 3.777 4.57 6.073 12.357 2.295 7.79 2.44 16.347 2.534 17.116.095.77 2.247 1.73 2.725 1.442.478-.29.335-1.73.526-3.03.192-1.297.67-11.827 2.535-20.144s4.734-12.597 7.89-12.308c3.155.288 2.868 3.75 2.868 3.75s-2.486-.192-3.92 1.25c-1.435 1.442-1.196 5.193.764 6.78 1.96 1.586 6.503 1.153 8.846-.482 2.343-1.634 3.777-4.807 2.63-10.72zm-1.817 5.24c-.478 2.068-.956 3.75-2.917 4.28-1.96.53-4.257 1.01-5.595-.817-1.34-1.827.143-3.943 1.004-3.318.86.625 2.055.914 2.485.77.43-.145 1.96-2.357 1.1-4.376-.86-2.02-1.96-4.423-5.164-4.47-3.203-.05-5.354.576-7.602 5.143-2.247 4.568-4.734 18.8-4.973 19.184-.24.386-2.247-10.096-4.16-13.702-1.913-3.606-5.355-7.26-7.794-7.308-2.438-.048-4.35.385-5.306 2.308-.956 1.923-.956 5.24 3.49 5.144.394-.01.717.673.67 1.106-.05.433-.623 2.308-1.435 2.5-.814.192-3.492.673-6.886-1.875-3.395-2.548-1.96-8.27-.24-10.385 1.722-2.116 6.647-4.664 10.52-4.23 3.873.432 7.555 4.76 7.985 5.96.43 1.203 1.147 2.357 1.768 2.357.622 0 1.913-3.462 3.49-5 1.578-1.54 6.598-5.72 12.91-4.76 6.313.962 7.126 9.424 6.648 11.49zm-20.37-3.316c-.238 0-2.294 5.047-2.438 5.047-.143 0-2.712-5.16-3.538-4.952-.19.048-.765.77-.67 1.058.097.288 3.49 6.73 4.017 7.452s.908.048 1.148-.29c.24-.336 2.582-7.788 2.486-8.076-.095-.29-.764-.24-1.003-.24zm-2.15 10.288c-.575.29-.814.817-.43 1.346.382.53 1.194.77 1.577-.144.382-.914-.7-1.427-1.148-1.202zm17.5-5c-.24.24-.05 1.345.19 1.393.24.05 1.243-.095 2.104-.768.86-.673 1.913-2.404 1.817-3.22-.096-.818-.908-.578-1.195-.53-.287.048.048.53-.765 1.827-.813 1.297-1.88 1.025-2.152 1.297zM12.06 27.482c-.43.336-1.1 1.587-1.386 2.933-.287 1.346.287 2.692.622 3.22.335.53 1.578-.288 1.626-.672.048-.385-.096-.72-.43-1.875-.335-1.155.813-2.886.813-3.078 0-.192-1.018-.706-1.244-.53z"/></svg>