<svg xmlns="http://www.w3.org/2000/svg" viewBox="0 0 64 64"><path d="M19.32 64c-7.764 0-13.824-6.27-14.986-12.08-1.316-6.58 1.304-13.717 7.006-19.092 6.064-5.716 13.46-8.02 21.14-10.06 1.428-.378 2.853-.737 4.252-1.088 5.88-1.48 11.957-3.007 14.05-5.29 1.325-1.448 2.134-2.695 2.6-3.702-.843 1.346-2.058 2.323-3.64 2.924-1.29.49-2.586.737-3.852.737-3.8 0-7.184-2.36-8.227-5.738-.737-2.383-.22-5.3 1.316-7.427 1.423-1.97 3.58-3.1 6.07-3.173.23-.008.45-.012.664-.012 2.895 0 4.673.608 5.708 1.187h.13c1.618 0 5.663.518 8.26 5.32 2.834 5.238.522 11.184-6.183 15.905-3.67 2.583-10.193 4.023-15.435 5.18-1.74.384-3.244.716-4.267 1.014l-.815.235c-4.002 1.146-10.7 3.062-16.453 8.808-5.233 5.225-6.96 10.57-4.62 14.3 1.962 3.126 4.693 4.992 7.31 4.992.406 0 .816-.045 1.218-.134 2.05-.454 3.27-1.17 4.017-1.99-.848.213-1.826.337-2.954.337-.155 0-.313-.002-.474-.007-3.6-.112-5.414-1.652-6.302-2.924-1.512-2.166-1.354-4.965-.702-6.862.758-2.206 4.577-4.77 8.363-4.77 1.77 0 4.873.572 6.926 4.163.688.227 1.477.64 2.174 1.385 1.21 1.294 1.732 3.13 1.553 5.453-.528 6.86-5.064 11.46-12.135 12.31-.567.066-1.144.1-1.713.1z" fill="#FFF"/><path d="M19.58 46.71c-.582 1.285-.135 2.17-.135 2.17.402.267 1.16-.088 1.295-.132.134-.044 0-.62 0-1.55s1.295-1.506 1.295-1.506-.49-.4-.715-.443c-.222-.045-1.16.177-1.74 1.46zM57.67 7.647C55.037 2.774 50.75 3.66 50.75 3.66s-1.206-1.373-5.627-1.24-5.984 4.74-5.136 7.485c.848 2.746 4.332 5.182 8.887 3.455s3.26-7.75 3.528-7.707c.268.044 3.305 1.905 3.84 3.898.536 1.994-.536 5.05-3.662 8.46-3.126 3.41-11.298 4.917-19.47 7.088s-14.692 4.385-20.096 9.478S5.646 46.09 6.718 51.45c1.072 5.36 7.01 10.896 14.022 10.054s9.646-5.448 10.003-10.098c.357-4.65-2.947-4.518-2.947-4.518-3.037-7.087-10.673-2.702-11.343-.753-.67 1.95-.938 6.422 4.778 6.6 5.717.176 6.387-3.456 6.387-3.456s1.116.265.49 3.542c-.624 3.278-2.812 5.404-7.01 6.334-4.198.93-8.396-1.594-11.12-5.935-2.724-4.34-1.652-10.673 4.957-17.273 6.61-6.6 14.2-8.46 18.31-9.656 4.107-1.195 14.513-2.7 18.978-5.845 4.467-3.143 8.085-7.927 5.45-12.8zm-7.547.62s-1.206-1.373-1.43-1.33c-.222.045-.803.577-.67.754.135.177 1.653 1.772 1.653 2.037 0 .266-.134.93-.402 1.24-.268.31-.893.4-.893.4S46.82 8.93 46.686 8.93s-.715.71-.715.71 1.653 2.036 1.564 2.214c-.09.177-1.072.22-1.34.09-.268-.134-1.295-1.684-1.474-1.64-.18.044-.76.266-.67.4.09.132.402 1.018.402 1.018-.268-.09-2.77-1.02-2.59-3.765.18-2.746 3.305-4.12 5.046-3.898 1.742.22 2.635 1.106 2.992 2.302.36 1.196.225 1.904.225 1.904zm-24.517 40.26s-.49 1.064-.67 1.064c-.18 0-.938-1.462-1.072-1.594-.134-.133-.893.576-.893.576s1.295 1.64 1.295 1.772-.58.53-.848.53-.804-1.46-.982-1.726-1.206.532-1.206.532l.76 1.506c-2.68-.177-4.6-1.993-3.752-4.12.848-2.125 2.992-3.277 4.912-3.055 1.92.222 2.456 2.57 2.456 2.57l.134.797s-.625-.4-.893-.532-.537.532-.537.532l1.295 1.15zM46.106 5.255c-.268-.133-1.34-.31-2.233 1.107-.893 1.418-.67 2.304-.67 2.304.18.22.938.177.938.177s.045-.84.492-1.68 1.563-.71 1.83-.975c.27-.266-.088-.798-.356-.93z"/></svg>