<svg xmlns="http://www.w3.org/2000/svg" viewBox="0 0 64 64"><path d="M29.983 63c-.893 0-1.603-.31-2.11-.778h-.01c-1.344 0-2.586-1.04-3.04-1.78-.363-.592-.49-1.35-.356-2.042-.437-.34-.698-.71-.884-1.24-.24-.688-.192-1.453.135-2.103.162-.36.58-1.275 1.434-1.805.008-.142.027-.29.06-.452.26-1.284 1.258-1.926 1.684-2.2.42-.272.91-.418 1.41-.42h.022c.44 0 .798.084 1.113.237.09-.03.185-.054.283-.076.22-.048.452-.073.706-.073.273 0 .53.02.77.058.534-.482 1.094-.735 1.863-.735.32 0 .646.06.944.173.493.185 1.938.725 2.223 2.35.144.82-.127 1.712-.68 2.334-.07.086-.184.238-.326.43.32.4.525.934.525 1.656 0 .106-.007.21-.018.31.042.243.053.49.03.738-.01.172-.03.334-.057.49.267.63.335 1.308.022 2.09-.008.02-.995 2.43-3.116 2.43-.19 0-.37-.015-.535-.046-.312.183-.658.3-1.016.346-.267.046-.66.11-1.077.11zM9.966 59.077c-.385 0-.756-.07-1.103-.21-.058-.024-6.58-3.05-7.412-3.784-.94-.83-2.06-2.836-1.056-4.688.328-.604.34-.628 5.065-4.466.915-.744 1.992-1.618 2.62-2.14.638-1.965 2.027-3.544 3.893-4.358 1.543-.674 2.838-.933 3.74-1.025 3.288-2.744 17.43-14.54 20.88-17.398 1.365-1.132 2.575-2.118 3.577-2.925-1.072-1.03-1.994-2.427-2.4-4.263-.52-2.355-.078-4.73 1.242-6.686 1.497-2.22 3.968-3.707 6.96-4.188.89-.143 1.797-.216 2.694-.216 5.23 0 9.507 2.408 11.438 6.442 1.985 4.144 1.05 8.644-2.78 13.377-1.91 2.36-24.54 20.775-31.096 26.09-.096 1.18-.18 1.524-.214 1.656-.504 2.03-6.423 5.937-7.753 6.205-.355.073-.732.108-1.148.108-.66 0-1.318-.09-1.852-.19-2.672 1.875-4.004 2.66-5.294 2.66zm37.335-4.29c-1.282 0-2.787-1.114-3.22-2.385-.122-.364-.17-.74-.144-1.106-.337-.518-.75-1.335-.576-2.356.07-.408.25-.822.505-1.177-.003-.15.005-.304.024-.464.098-.78.452-1.878 1.2-2.61l-.002-.157c0-1.93 1.854-3.124 3.572-3.124.23 0 .448.022.646.062.823.166 1.323.566 1.675 1.124.233-.066.484-.1.764-.1.528 0 1.05.16 1.488.455 1.737.932 1.75 2.536 1.484 3.35-.05.153-.1.273-.168.403.047.15.078.292.097.416.022.116.053.275.072.465.057.082.103.16.148.24.488.862.65 2.388-.003 3.52-.5.864-1.376 1.387-2.352 1.407-.52.715-1.357 1.425-2.542 1.425-.285 0-.563-.044-.827-.128-.542.432-1.163.737-1.84.737zm8.43-16.712c-.485 0-1.938-.09-2.86-1.103h-.007c-.766 0-1.6-.36-2.104-.943-.59-.676-1.105-1.906-.91-3.11.153-.934.7-1.74 1.507-2.208.347-.203.725-.338 1.23-.457.27-.513.674-1.023 1.19-1.4-.06-.515-.012-.88.177-1.347.402-1.034 1.84-2.212 3.244-2.212.098 0 .216.006.313.018.425.047.788.167 1.1.34.365-.202.774-.31 1.273-.31.46 0 .926.123 1.327.353.97.557 1.56 1.448 1.648 2.398.056.048.11.098.16.15.813.747.988 1.617.983 2.207-.005.745-.292 1.44-.814 1.98.378.772.39 1.744.01 2.51-.477.96-1.47 1.588-2.54 1.614-.165.16-.354.303-.566.422-.273.175-.807.46-1.542.46-.32 0-.63-.054-.92-.157-.53.555-1.088.795-1.9.795zm-45.626-12.22c-.284 0-.568-.048-.837-.138-.018-.006-1.85-.743-2.438-2.17-.265-.64-.273-1.397-.025-2.045-.253-.322-.436-.707-.52-1.134-.284-1.426-.128-2.395.24-3.05v-.05c0-.978.943-3.175 2.777-3.492.408-.956 1.368-1.78 2.855-1.78.462 0 .896.076 1.13.115-.104-.015-.208-.016-.275-.016h-.035c.705 0 1.384.284 1.88.786.308.31.5.61.618.95.202-.048.407-.07.637-.07.25 0 .505.037.743.107.93.265 1.665 1.002 2.006 2.018.282.838.218 1.692-.17 2.398.067.35.164.925.094 1.54.217.73.083 1.37-.007 1.663-.457 1.5-2.063 2.347-3.12 2.535-.026.043-.055.086-.086.128-.392.56-1.183 1.238-2.68 1.238-.4 0-.764-.052-1.092-.145-.57.51-.994.614-1.694.614zm17.93-11.445c-.892 0-1.602-.31-2.11-.778h-.012c-1.343 0-2.585-1.04-3.04-1.78-.362-.592-.49-1.35-.355-2.042-.437-.34-.697-.71-.883-1.24-.24-.688-.192-1.453.135-2.103.166-.366.584-1.276 1.433-1.804.008-.15.03-.306.065-.475.244-1.257 1.254-1.904 1.685-2.18.42-.27.908-.414 1.407-.417h.02c.442 0 .8.086 1.114.24.09-.03.184-.055.282-.077.22-.05.452-.074.706-.074.274 0 .53.02.772.057.532-.484 1.09-.737 1.862-.737.317 0 .643.06.94.17.502.19 1.94.73 2.227 2.35.145.822-.126 1.718-.682 2.34-.07.087-.183.238-.323.428.32.4.525.934.525 1.656 0 .106-.006.21-.017.31.042.245.054.497.03.75-.01.166-.03.325-.057.476.267.632.335 1.31.022 2.09 0 0-1.006 2.43-3.116 2.43-.192 0-.37-.015-.534-.046-.312.183-.66.3-1.017.346-.27.046-.662.11-1.078.11z" fill="#FFF"/><path d="M25.11 10.348c-.074.147.584.613.803.613s1.778-1.987 1.778-1.987-.048 2.282-.023 2.6c.024.32 1.023.075 1.12.075.098 0-.048-2.43.074-2.405.123.025 1.657 2.086 1.804 2.086s.61-.64.658-.762c.05-.123-.877-1.276-.877-1.276s.39-.074.56-.074c.17 0 .146-.196.17-.466.025-.27-.486-.172-.486-.172s.462-.466.462-.638-1.973-.196-2.046-.27c-.073-.074 2.363-3.46 2.534-3.607.17-.147-.317-.32-.512-.393-.195-.074-1.656 2.11-1.778 2.21-.122.097-.05-1.154-.05-1.302 0-.147-.73-.27-.95-.22-.218.048-.145 1.643-.194 1.84-.05.195-1.717-1.98-1.778-1.94-.268.172-.487.344-.512.466-.024.123 2.07 2.724 2.046 2.847-.024.123-3.118-.638-3.29-.638-.17 0-.437.638-.486.736-.05.1 2.217 1.13 2.217 1.13s-1.17 1.4-1.244 1.548zm30.157 10.515c1.937-2.393 4.458-6.33 2.448-10.528s-6.98-5.448-11.327-4.75c-4.348.7-6.833 4.013-6.03 7.658.805 3.644 4.495 4.528 4.495 4.528s-2.667 2.062-6.577 5.302-21.56 17.964-21.56 17.964-1.497-.11-3.69.847c-2.192.957-2.558 3.24-2.594 3.387-.037.147-7.55 6.107-7.71 6.405-.22.405.183 1.14.475 1.4.292.257 5.92 3.017 6.65 3.312.73.295 4.677-2.798 4.86-2.798.183 0 1.937.514 3.033.294 1.096-.22 5.59-3.792 5.7-4.233.11-.44.22-2.355.22-2.355s29.67-24.04 31.607-26.432zm-12.35-9.68c.194-1.72 1.826-3.24 5.383-3.363 3.557-.123 3.922.834 3.922.834s-1.82-.108-3.386.908c-1.437.933-1.827 3.607-.633 4.147 1.395.63 2.192-.05 2.387-.91.022-.095.56.246.56.565 0 .32-.317 1.52-1.29 1.988-.975.466-3.265 1.178-4.97-.098-1.706-1.275-2.17-2.355-1.974-4.073zM20.7 47.955c-.33.626-3.764 4.123-3.983 4.123-.22 0-2.34-1.032-2.667-.81-.33.22-3.58 2.76-4.056 2.54-.475-.222-3.946-1.915-3.837-2.357.155-.625 6.468-5.485 6.906-5.485.438 0 2.083.957 2.558 1.767.476.81.513 1.325.805 1.288.292-.037 1.17-1.104 1.17-1.104s-.988-2.136-2.74-2.578c-1.755-.442-2.084-.33-2.12-.442-.036-.11 1.754-1.767 2.63-2.06s3.692.772 4.678 2.244c.986 1.473.986 2.246.657 2.872zm3.033-3.423c-.183.147-.804.883-.987.7-.183-.185-.62-1.363-2.266-2.467-1.644-1.104-2.192-1.252-2.01-1.436.258-.26 3.18-2.908 3.398-2.908s2.047 5.963 1.865 6.11zm3.36-2.65c-.036.146-2.557 1.803-2.557 1.803s-.402-2.245-.62-3.423c-.22-1.178-1.195-2.503-1.097-2.65.202-.306 2.374-1.988 2.484-1.988.11 0 .694 1.546 1.242 3.718.548 2.17.585 2.392.548 2.54zm3.107-2.995c-.073.098-2.34 2.307-2.34 2.16 0-.147-.145-2.06-.437-3.288-.292-1.227-1.17-2.773-1.194-2.994-.033-.294 2.386-1.865 2.46-1.84.072.024.754 1.962 1.046 3.165.294 1.203.537 2.7.464 2.798zm.828-.49s-.414-2.308-.658-3.46c-.244-1.154-.804-2.774-.804-2.946 0-.314 2.485-1.79 2.51-1.718.023.074.78 2.552 1.022 3.46.244.908.633 2.503.585 2.626-.048.123-2.655 2.037-2.655 2.037zm3.386-2.725c-.024-.074-.292-1.816-.658-3.313-.365-1.497-.853-2.773-.877-2.847-.088-.263 2.143-1.94 2.24-1.865.097.074 1.85 5.718 1.827 6.012-.023.296-2.508 2.087-2.533 2.013zm5.847-4.785c-.023.147-2.922 2.577-2.898 2.454.024-.123-.365-2.75-.56-3.558-.195-.81-.804-2.65-.73-2.87.065-.2 2.58-2.234 2.8-2.185.22.048.536 1.47.9 3.287.367 1.816.513 2.724.49 2.87zm.975-.957c-.05-.146-.292-2.11-.585-3.557-.292-1.448-.853-2.773-.78-2.97.124-.33 2.583-2.134 2.705-1.89.122.246 1.535 5.326 1.462 5.67-.073.343-2.753 2.895-2.802 2.748zm6.188-5.496c-.097.344-2.63 2.43-2.655 2.282-.024-.147-.122-1.865-.438-3.288s-.78-2.48-.682-2.577c.07-.07 2.24-1.987 2.46-1.864.22.123 1.412 5.104 1.315 5.448zm3.07-2.503c-.123.124-2.34 1.94-2.364 1.866-.025-.074-.025-1.595-.293-3.043-.268-1.448-.585-2.38-.463-2.48.095-.076 2.24-.22 2.266-.146.024.074.974 3.68.852 3.804zm3.385-3.288c-.05.22-2.363 2.896-2.558 2.626-.195-.27-.122-1.35-.244-1.89-.122-.54-.487-1.67-.39-1.767 0 0 .974-.662 1.29-.907.318-.245.488-.736.732-.687.244.05.73 1.13.9 1.67.173.54.32.736.27.956zm.414-2.086c-.146-.417-1.176-1.844-.926-2.012.146-.098.487-1.178.268-2.43-.22-1.252-2.266-1.62-2.387-1.84-.122-.22 2.095-.49 2.996.074.9.564 1.145 2.06 1.364 3.313.22 1.253-.853 3.46-.95 3.608-.097.147-.218-.294-.365-.712zm-42.58 3.166c.096.05-2.364 2.6-2.437 2.748-.073.147.755.687.828.712.073.025 2.022-2.43 2.022-2.43s.195 1.522.195 1.767c0 .244.974.244 1.096.073.122-.172-.268-2.675-.097-2.675.17 0 1.802 1.472 1.923 1.472s.9-.368 1-.687c.096-.32-.902-.76-.902-.76s.66-.27.78-.345c.123-.074-.023-.76-.048-.883-.024-.123-1.194-.245-1.267-.294-.073-.048 1.486-1.324 1.56-1.422.072-.098-.074-.515-.245-.564-.17-.05-2.8 1.865-2.996 1.865s-.05-3.535-.146-3.535c-.097 0-1.176-.262-1.242.074-.024.122.17 2.55.17 2.82s-1.997-1.226-2.143-1.25c-.146-.026-.585.784-.585.858s1.437 1.08 1.462 1.153c.024.075-1.632.222-1.803.27-.17.05.05 1.154.05 1.154s2.726-.17 2.824-.122zm19.584 34.75c-.122.097-.05-1.154-.05-1.302 0-.147-.73-.27-.95-.22-.218.048-.145 1.643-.194 1.84-.05.196-1.717-1.978-1.778-1.94-.268.173-.487.345-.512.467-.024.123 2.07 2.724 2.046 2.847-.024.123-3.118-.638-3.29-.638-.17 0-.437.638-.486.736-.05.098 2.217 1.13 2.217 1.13s-1.17 1.398-1.243 1.545c-.073.147.585.613.804.613s1.78-1.988 1.78-1.988-.05 2.282-.025 2.6c.024.32 1.023.075 1.12.075.098 0-.048-2.43.074-2.405.12.025 1.655 2.086 1.802 2.086.146 0 .61-.638.658-.76.05-.124-.877-1.277-.877-1.277s.39-.073.56-.073.146-.196.17-.466c.025-.27-.486-.17-.486-.17s.463-.467.463-.64c0-.17-1.973-.195-2.046-.27-.073-.073 2.363-3.46 2.533-3.606.17-.147-.317-.32-.512-.393-.195-.07-1.657 2.113-1.78 2.21zm20.073-6.38s.584-.05.68-.05c.098 0-.023-.442-.023-.515 0-.074-.853-.05-.974-.098-.122-.05 1.12-1.89 1.145-1.964.024-.074-.292-.172-.438-.295-.146-.122-1.608 2.136-1.827 2.26-.22.122-1.006-3.31-1.145-3.34-.365-.073-1.047.222-1.047.443 0 .22.66 2.38.707 2.626.05.244-1.242-.516-1.437-.565-.195-.05-.463.834-.487 1.03-.024.197 1.17.492 1.17.492l-1.657 1.178c-.244.172.292.736.365.908.074.172 1.755-.933 1.755-.933l.195.245s-1.51 1.718-1.73 1.89c-.22.172.536.712.682.712.146 0 1.535-1.89 1.608-2.06.073-.173.78 1.054.95 1.373.17.32.682-.466.73-.638.05-.172-.608-1.423-.608-1.546s.853-.025.95-.025c.097 0 1.242.835 1.51.86.268.025.22-.76.122-.932-.1-.174-1.195-1.057-1.195-1.057zm9.768-17.965c-.097-.098-1.9.614-2.022.515-.122-.098 1.072-2.21 1.096-2.282.024-.074-.146-.245-.317-.344-.17-.098-1.608 2.135-1.73 2.135-.122 0-.35-2.116-.95-2.183-.22-.025-.755.417-.804.54-.048.123.586 2.552.586 2.847 0 .295-1.194-.245-1.39-.393-.194-.146-.705.418-.78.786-.072.368.586.59.56.687-.023.098-2.24.32-2.703.59-.463.27-.098 1.054.073 1.25.17.197 2.875-.784 2.875-.784s-.56 1.177-.803 1.496c-.244.32.755.417.9.417.147 0 1.536-2.528 1.536-2.528s1 1.374 1.12 1.718c.123.344.318.074.415.05.098-.026.365-.713.39-.835.024-.123 1.194.05 1.364.074.17.025.34-.147.268-.245-.073-.098-2.266-1.693-2.266-1.767 0-.074 2.485-1.08 2.704-1.276.22-.197-.023-.368-.12-.467z"/></svg>