<svg xmlns="http://www.w3.org/2000/svg" viewBox="0 0 64 64"><path d="M24.676 64c-5.176 0-9.932-1.618-12.723-4.33-2.39-2.32-7.455-10.12-3.48-19.143-.462-1.128-.48-2.42.38-3.448.168-.202 25.807-25.865 27.652-27.066.714-.464 1.56-.71 2.445-.71.973 0 1.907.3 2.652.843-.453-1.053-.828-2.31-.663-3.14.33-1.658 2.435-2.5 2.456-2.508.076-.028.35-.118.733-.244.592-.195 2.106-.69 2.988-1.002.8-1.866 1.38-3.09 2.82-3.24.072-.01.188-.014.26-.014.868 0 3.324.644 3.42.676.673.225 1.195.783 1.38 1.474.318 1.19-1.556 6.225-1.936 6.658-.342.394-2.61 1.45-4.782 2.352.164.222.372.483.524.587h.005c.698 0 1.725-.22 2.406-.364.615-.13.987-.21 1.358-.21.13 0 .31.016.437.04 1.716.324 2.783 2.954 2.793 2.98.45 1.186.026 2.002-.266 2.383-.502.658-2.095 1.553-3.964 2.032.61.444.978 1.07 1.04 1.733.045.04.087.08.128.12.648.596.787 1.29.784 1.758-.005.593-.234 1.147-.65 1.577.3.614.31 1.387.008 1.997-.38.765-1.17 1.264-2.025 1.285-.13.126-.28.24-.45.336-.22.14-.644.367-1.23.367-.256 0-.502-.044-.734-.125-.42.442-.866.632-1.513.632-.386 0-1.544-.072-2.28-.878h-.004c-.61 0-1.276-.288-1.677-.75-.005-.006-.01-.01-.013-.015l-.068 3.102c-.34 15.505-.49 22.067-.533 22.562-.147 1.7-1.635 2.68-3 3.015-1.51 2.32-5.73 7.875-11.893 8.528-.934.097-1.872.147-2.788.147zm18.37-41.285c.123-.11.258-.207.402-.292.277-.16.578-.27.98-.363.216-.408.537-.815.95-1.114-.05-.41-.01-.7.14-1.073.176-.456.608-.947 1.148-1.295-1.565-.515-2.71-1.517-3.47-2.54-.038 1.64-.09 3.983-.15 6.677zM47.05 41.98c-1.022 0-2.222-.885-2.567-1.896-.098-.29-.136-.59-.115-.882-.268-.413-.597-1.063-.46-1.876.056-.325.2-.654.402-.937-.002-.124.005-.25.022-.382.075-.61.354-1.487.956-2.07l-.003-.12c0-1.536 1.478-2.487 2.848-2.487.183 0 .357.02.515.05.656.133 1.056.452 1.336.896.184-.053.384-.08.606-.08.42 0 .835.128 1.183.36 1.405.75 1.4 2.043 1.177 2.697-.035.108-.073.197-.125.294.037.118.06.23.076.327.02.093.044.222.06.375.046.065.083.127.12.19.384.672.52 1.887 0 2.794-.4.69-1.097 1.11-1.878 1.126-.412.568-1.078 1.135-2.03 1.135-.226 0-.448-.035-.658-.102-.43.345-.926.588-1.464.588zM13.908 28.358c-.71 0-1.277-.247-1.68-.62h-.01c-1.07 0-2.062-.828-2.423-1.416-.29-.47-.39-1.074-.284-1.625-.347-.27-.554-.563-.703-.986-.192-.547-.155-1.155.105-1.672.135-.294.468-1.02 1.145-1.44.006-.12.025-.245.052-.38.195-1 .998-1.516 1.342-1.735.335-.215.724-.33 1.12-.332h.017c.35 0 .635.07.886.19.072-.023.147-.043.225-.06.18-.04.363-.06.563-.06.22 0 .424.016.615.045.425-.384.87-.585 1.485-.585.253 0 .512.047.75.136.4.15 1.546.582 1.774 1.87.116.655-.1 1.368-.543 1.864-.056.07-.147.19-.258.34.256.317.42.744.42 1.318 0 .084-.006.167-.015.247.035.195.044.396.025.597-.008.133-.024.26-.046.38.21.503.266 1.04.018 1.66-.003.007-.807 1.94-2.486 1.94-.153 0-.294-.012-.426-.037-.248.146-.524.24-.81.275-.212.036-.524.087-.858.087zM21.053 15.9c-.222 0-.442-.036-.653-.105-.015-.005-1.48-.582-1.954-1.724-.213-.51-.22-1.116-.023-1.635-.2-.256-.347-.562-.414-.902-.227-1.135-.102-1.906.19-2.428v-.04c0-.78.753-2.53 2.214-2.78.324-.76 1.09-1.416 2.275-1.416.368 0 .714.06.9.09-.083-.012-.166-.013-.22-.013h-.027c.562 0 1.103.226 1.5.626.244.247.396.485.49.757.16-.038.324-.055.508-.055.198 0 .4.028.587.082.748.213 1.335.8 1.606 1.612.223.665.17 1.343-.137 1.904.055.28.13.737.075 1.226.174.58.067 1.09-.004 1.324-.363 1.195-1.645 1.87-2.486 2.02-.022.033-.045.068-.07.102-.31.442-.942.983-2.134.983-.32 0-.61-.042-.87-.116-.458.403-.795.485-1.353.485z" fill="#FFF"/><path d="M18.974 40.87c.155 0 .815-.938.66-1.055-.155-.117-1.825-1.68-1.825-1.68s1.824-1.915 1.708-2.032c-.116-.117-.854-.37-1.165-.313 0 0-3.03 2.305-2.718 2.852.31.548 3.184 2.228 3.34 2.228zm-7.397-15.747c-.058.117.466.488.64.488.176 0 1.418-1.58 1.418-1.58s-.04 1.816-.02 2.07c.02.254.816.06.894.06.077 0-.04-1.935.057-1.916.097.02 1.32 1.66 1.437 1.66.117 0 .485-.507.524-.605.04-.1-.7-1.017-.7-1.017s.312-.06.448-.06.117-.155.136-.37c.02-.215-.388-.137-.388-.137s.37-.37.37-.508c0-.137-1.574-.156-1.632-.215-.058-.06 1.883-2.755 2.02-2.872.135-.116-.253-.253-.41-.312-.154-.06-1.32 1.68-1.416 1.758-.097.078-.04-.918-.04-1.035 0-.116-.58-.214-.756-.175-.175.04-.116 1.31-.155 1.465-.04.156-1.368-1.575-1.417-1.543-.214.137-.388.274-.408.37-.02.1 1.65 2.17 1.63 2.267-.018.098-2.484-.508-2.62-.508-.136 0-.35.508-.388.586-.04.078 1.767.9 1.767.9s-.935 1.114-.993 1.23zm39.667-3.165c-.078-.078-1.514.488-1.61.41-.098-.078.853-1.758.873-1.817.02-.058-.116-.194-.252-.273-.136-.078-1.28 1.7-1.378 1.7-.097 0-.278-1.685-.757-1.74-.175-.02-.602.333-.64.43-.04.1.465 2.033.465 2.267 0 .235-.95-.195-1.107-.313-.155-.116-.563.333-.62.626-.06.293.465.47.446.547-.02.078-1.786.254-2.155.47-.37.214-.08.84.057.995.136.156 2.29-.625 2.29-.625s-.446.938-.64 1.192.602.332.718.332c.116 0 1.223-2.012 1.223-2.012s.796 1.094.893 1.368c.098.274.253.06.33.04.08-.02.292-.568.312-.665.02-.098.95.04 1.087.06.135.02.27-.118.213-.196-.058-.078-1.806-1.348-1.806-1.407 0-.06 1.98-.86 2.155-1.016.174-.157-.02-.293-.098-.372zm-28.91-10.94c.077.04-1.884 2.07-1.943 2.188-.057.117.603.547.66.567.06.02 1.612-1.934 1.612-1.934s.155 1.21.155 1.406.777.195.874.06c.098-.138-.213-2.13-.077-2.13s1.437 1.17 1.534 1.17c.097 0 .718-.292.796-.546.078-.254-.718-.606-.718-.606s.524-.215.62-.274c.098-.06-.018-.606-.038-.703-.02-.098-.95-.195-1.01-.234-.058-.04 1.184-1.055 1.243-1.133.058-.078-.058-.41-.194-.45-.136-.038-2.233 1.486-2.388 1.486s-.04-2.813-.117-2.813c-.077 0-.936-.208-.99.06-.018.097.137 2.03.137 2.246 0 .214-1.592-.978-1.71-.997-.116-.02-.465.625-.465.684 0 .06 1.146.86 1.165.918.02.06-1.3.176-1.437.215-.136.04.04.918.04.918s2.176-.14 2.253-.1zm15.32.78c-1.32.86-26.562 25.907-27.183 26.65-.62.742.39 1.993.39 1.993-4.195 8.128.31 15.513 2.562 17.702 2.252 2.188 7.184 4.298 13.824 3.595 6.64-.703 10.873-8.44 10.873-8.44.387.156 2.057-.274 2.135-1.172.078-.9.815-36.612.893-38.566.077-1.956-2.175-2.62-3.495-1.76zm1.047 1.33c.156 0 .583 2.97.312 2.89-.272-.077-1.63-1.523-1.553-1.718.076-.196 1.086-1.172 1.24-1.172zm-2.096 1.953c.35.196 1.437 1.564 1.903 2.19.466.624.505 1.054.505 1.21 0 .156-.233.977-.233.977s-.66-1.016-.778-1.094c-.116-.078-.777.352-.7.586.08.233 1.4 1.835 1.438 2.03.04.196-.04 1.017-.04 1.017s-1.397-2.188-2.484-3.204-1.864-1.368-1.825-1.64c.04-.28 1.865-2.267 2.214-2.072zm-2.99 3.088c.233 0 2.252 1.407 3.456 3.165 1.204 1.758 1.63 3.087 1.63 3.243s-.154.274-.154.274-.272-.352-.466-.352-.62.47-.427.703c.194.235 1.28 1.642 1.32 2.11.04.47-.04 1.525-.117 1.37-.078-.157-1.28-1.798-1.437-1.798-.156 0-.467.742-.273.938s1.825 2.97 1.864 3.243c.04.274.08 3.32-.077 3.204-.155-.117-1.786-4.533-4.505-7.698-2.718-3.166-4.62-4.182-5.087-4.534-.265-.2 4.04-3.868 4.274-3.868zM18.51 33.173c.154.04 4.775 3.087 8.037 7.932 3.262 4.845 4.776 7.893 4.776 7.893S12.993 40.44 12.45 39.19c-.196-.453 5.903-6.056 6.06-6.017zm8.89 27.35c-4.853.548-10.6-.077-13.435-3.438-2.835-3.36-5.126-8.948-1.786-15.825 0 0 9.28 5.275 14.677 7.658 5.398 2.384 9.164 3.986 9.164 3.986s-3.765 7.073-8.62 7.62zm10.796-9.963c-.116-.234-2.796-5.314-3.107-5.43-.312-.118-.855.43-.583.702.272.274 2.95 5.51 2.95 5.51s-1.164-.353-1.203-.47c-.04-.117-2.097-3.478-2.29-3.556-.195-.078-.7.43-.583.508.118.078 1.71 2.384 1.438 2.384s-1.864-.586-1.864-.586S29.77 42.784 26.16 38.8c-3.612-3.987-5.942-6.175-6.952-6.683-.32-.16 3.922-4.025 4.077-3.986s6.757 6.41 9.28 10.59c2.525 4.18 5.865 10.472 5.865 10.784 0 .314-.117 1.29-.234 1.056zm.816-11.136s-1.28-2.462-1.514-2.5c-.233-.04-.582.78-.466.937.116.157 1.98 3.44 1.98 3.44l-.117 1.68s-1.942-3.204-2.058-3.204c-.117 0-.582.664-.544.782.04.117 2.563 4.454 2.563 4.454l-.272 2.227s-4.155-8.01-6.873-11.45c-2.717-3.44-6.484-7.62-7.804-8.518-.273-.186 4.04-4.298 4.543-4.298.504 0 4.698 2.618 6.872 6.33 2.175 3.712 3.883 8.088 3.883 8.284 0 .195-.193 1.836-.193 1.836zm12.465-32.02c.136-.157 1.592-4.67 1.476-4.71-.117-.038-2.427-.605-2.796-.566-.37.04-1.34 2.618-1.456 2.774-.116.156-4.27 1.485-4.6 1.602-.33.117-1.04.668-1.088.918-.117.586 1.01 2.97 1.126 3.087.116.117 7.203-2.95 7.34-3.107zm-2.02-1.505c.155-.275 1.165-2.404 1.3-2.404s.972-.06.952.137c-.02.195-.952 2.657-1.127 2.892-.175.234-5.805 2.97-5.94 2.755-.137-.215-.74-1.543-.7-1.7.036-.145 5.36-1.408 5.514-1.68zm.835 30.75s.466-.04.544-.04c.078 0-.02-.35-.02-.41s-.68-.038-.776-.077c-.097-.04.893-1.504.913-1.563.02-.06-.233-.137-.35-.234-.116-.098-1.28 1.7-1.456 1.797-.175.098-.802-2.635-.912-2.657-.29-.06-.835.176-.835.352s.524 1.895.563 2.09c.04.195-.99-.41-1.146-.45-.155-.038-.37.665-.388.822-.02.156.93.39.93.39l-1.32.94c-.193.136.234.585.292.722.058.137 1.398-.742 1.398-.742l.155.195s-1.204 1.368-1.38 1.504c-.174.136.428.566.545.566.117 0 1.223-1.504 1.28-1.64.06-.138.622.84.758 1.093s.544-.372.582-.51c.04-.136-.485-1.132-.485-1.23 0-.098.68-.02.757-.02s.99.664 1.204.684.175-.606.097-.742c-.077-.138-.95-.842-.95-.842zm2.33-23.347c-.31-.06-2.505.625-4 .567-1.495-.06-2.43-2.227-2.62-2.188-.195.04-1.865 1.29-1.865 1.602 0 .313 1.03 2.93 3.844 3.44 2.816.507 5.69-1.193 5.884-1.447.195-.254-.93-1.915-1.242-1.974zm.04 1.76c-.253.194-2.642 1.074-4.156.683-1.514-.39-1.592-.45-2.37-1.035-.776-.585-1.183-1.25-1.125-1.328.06-.078.642-.488.778-.47.15.023.835 1.798 2.874 1.896 2.04.098 3.553-.488 3.65-.488.097 0 .6.546.35.742z"/></svg>