<svg xmlns="http://www.w3.org/2000/svg" viewBox="0 0 64 64"><path d="M38.49 63c-2.68 0-26.288-.016-29.607-.56C4.93 61.792.198 59.338.105 51.325-.4 8.098 1.05 5.975 1.828 4.835 4.126 1.464 8.746 1 13.396 1c1.102 0 2.243.026 3.39.053 1.105.026 2.215.052 3.298.052.425 0 .844-.004 1.26-.014 1.315-.03 3.306-.044 5.658-.044 9.163 0 24.147.198 25.818.245l.174.006c9.038.216 10.62 7.018 10.756 11.053.18 5.334.47 40.16-.023 42.43-.016.086-.027.206-.042.337-.58 4.802-3.463 7.39-8.57 7.69-2.05.12-8.264.193-16.625.193z" fill="#FFF"/><path d="M60.12 12.474c-.258-7.6-5.533-7.477-7.4-7.53-1.867-.05-24.814-.354-31.29-.2C14.95 4.9 6.99 3.72 4.82 6.905c-1.53 2.24-1.145 39.27-1.085 44.378.06 5.108 2.277 6.984 5.73 7.55s40.02.645 45.435.325c5.414-.32 4.975-3.758 5.28-5.16.306-1.403.198-33.923-.06-41.523zM56.628 54.57c-.328-.21-5.27-9.822-5.802-9.836-.533-.015-1.687.692-1.426.9.26.21 6.056 10.315 5.72 10.44-.338.125-2.537-.003-2.735-.076-.198-.073-4.396-7.58-4.663-7.588-.267-.007-1.615.493-1.358.836.257.343 4.48 6.978 4.016 6.83-.463-.147-3.054-.555-3.054-.555s-2.405-4.77-2.67-4.776c-.268-.007-1.54.16-1.353.634.187.476 2.816 4.378 2.214 4.43s-3.132-.155-3.328-.295c-.197-.14-1.716-3.138-1.917-3.144-.2-.007-1.193-.303-1.27.03-.075.335 2.315 3.223 1.174 3.46-1.14.237-17.896.442-23.5.42s-7.27-.202-8.3-1.508c-1.033-1.305-.942-4.595-1.062-12.392-.12-7.798-.725-31.867.464-33.85 1.024-1.71 46.022-1.674 47.84.19 1.816 1.866.8 29.115.61 28.774-.19-.34-1.782-3.14-1.982-3.146s-1.23 1.04-.974 1.45c.256.41 3.334 4.93 3.39 5.336.056.405.128 5.043-.068 4.903-.196-.14-3.314-5.67-3.58-5.676-.268-.006-1.17 1.245-.98 1.586.192.34 4.612 7.05 4.73 7.656.115.608.19 5.178-.138 4.968zM10.682 12.172c-.28.53-.295 8.323-.24 8.728.056.405 1.528.244 1.936-.013.407-.257.122-6.85.268-7.316.146-.465 2.675-.193 3.145-.314.472-.12.305-1.335-.023-1.546-.33-.212-4.682-.296-5.085.462zm22.577 8.9c-.9 1.007.5 23.07 1 23.472.5.403 9.005.403 9.605-.2.6-.605 0-22.164-.4-23.373-.4-1.208-9.608-.568-10.206.102zm7.203 20.45c-.4.2-3.302.504-3.402-.2-.1-.706-1.2-17.328-.8-17.933.352-.53 3.203-.303 3.703.1.5.402.9 17.83.5 18.032zM20.45 21.072c-.9 1.007.5 23.07 1.002 23.472.5.403 9.005.403 9.605-.2.6-.605 0-22.164-.4-23.373-.4-1.208-9.607-.568-10.206.102zm7.205 20.45c-.4.2-3.302.504-3.402-.2-.1-.706-1.2-17.328-.8-17.933.35-.53 3.202-.303 3.702.1.5.402.9 17.83.5 18.032z"/></svg>