<svg xmlns="http://www.w3.org/2000/svg" viewBox="0 0 64 64"><path d="M38.464 63c-2.678 0-26.265-.016-29.58-.56C4.93 61.79.2 59.337.106 51.325-.397 8.095.997 6.052 1.83 4.832 4.13 1.464 8.75 1 13.4 1c1.102 0 2.245.027 3.394.054 1.105.025 2.215.052 3.3.052.422 0 .84-.004 1.252-.014 1.32-.03 3.313-.045 5.672-.045 9.15 0 24.13.198 25.804.245l.17.005c9.04.212 10.62 7.017 10.757 11.054.18 5.33.474 40.152-.022 42.43-.016.09-.028.21-.044.342-.58 4.8-3.463 7.385-8.57 7.686-2.05.12-8.273.192-16.646.192z" fill="#FFF"/><path d="M60.12 12.475c-.258-7.6-5.533-7.477-7.4-7.53-1.867-.05-24.813-.354-31.29-.2-6.476.156-14.436-1.025-16.607 2.158-1.53 2.242-1.146 39.272-1.086 44.38.06 5.107 2.277 6.983 5.73 7.55 3.455.566 40.02.644 45.433.324 5.414-.32 4.974-3.758 5.28-5.16.305-1.402.198-33.923-.06-41.522zM56.627 54.57c-.328-.21-5.268-9.822-5.802-9.836-.533-.015-1.687.692-1.426.9.26.21 6.055 10.315 5.718 10.44-.337.125-2.536-.003-2.734-.076-.198-.073-4.396-7.58-4.663-7.587-.266-.006-1.614.493-1.356.837.257.343 4.48 6.978 4.016 6.83-.463-.147-3.054-.555-3.054-.555s-2.405-4.77-2.67-4.777c-.268-.007-1.54.16-1.353.634.187.475 2.816 4.377 2.214 4.428-.602.05-3.132-.154-3.328-.294-.197-.14-1.716-3.138-1.916-3.144-.2-.006-1.193-.302-1.27.032-.075.334 2.315 3.222 1.174 3.46-1.14.236-17.895.44-23.5.42-5.603-.023-7.267-.204-8.298-1.51-1.032-1.304-.94-4.594-1.06-12.39-.122-7.8-.728-31.87.46-33.852 1.026-1.71 46.022-1.674 47.84.19 1.816 1.866.8 29.115.61 28.774-.19-.34-1.782-3.14-1.982-3.146-.2-.006-1.23 1.04-.974 1.45.256.41 3.334 4.93 3.39 5.336.056.405.128 5.043-.068 4.903-.196-.14-3.314-5.67-3.58-5.676-.268-.006-1.17 1.245-.98 1.586.192.34 4.612 7.05 4.728 7.656.117.608.19 5.18-.137 4.968zM28.572 16.836c-2.304-1.14-5.04-1.154-7-.262-2.364 1.076-2.338 2.555-2.58 4.094-.242 1.54.043 20.29.703 22.997.66 2.706 4.923 2.96 8.507 1.245 3.584-1.714 16.93-11.42 16.85-15.857s-14.176-11.078-16.48-12.217zm1.104 22.94c-3.133 2.332-5.102 3.554-6.017 2.857-.916-.697-1.926-22.225-.49-23.53 1.115-1.01 5.587.694 10.973 3.8 5.386 3.106 7.524 5.45 7.498 6.39s-8.83 8.153-11.964 10.484zM10.683 12.173c-.28.53-.296 8.323-.24 8.727.056.404 1.528.243 1.935-.014.407-.257.12-6.85.268-7.316.146-.466 2.674-.194 3.145-.316.47-.12.305-1.335-.023-1.546-.327-.21-4.68-.294-5.084.464z"/></svg>