<svg xmlns="http://www.w3.org/2000/svg" viewBox="0 0 64 64"><path d="M31.7 64c-.387 0-.845-.03-1.316-.256-1.367-.653-6.257-6.782-6.668-7.73-.336-.775-1.272-8.344-1.4-11.522-1.11-.094-2.91-.28-3.548-.546-1.015-.424-1.716-1.418-1.788-2.533-.226-.077-.446-.174-.66-.29-2.638-1.416-3.725-3.856-2.91-6.526.546-1.792 2.542-3.34 4.61-3.698-.798-.412-1.54-.844-1.554-.85-.834-.49-1.32-1.39-1.267-2.355.02-.352.105-.68.24-.982-.31.06-.627.1-.975.1-.817 0-1.62-.216-2.604-.7-1.397-.686-2.394-1.928-2.734-3.408-.357-1.554.045-3.18 1.132-4.58.978-1.257 2.415-1.95 4.046-1.95.57 0 1.09.084 1.51.186.96-.34 2.597-.813 4.3-.813.097 0 .194 0 .29.004-.127-.274-.213-.59-.242-.946-.037-.443.01-4.055.077-4.524.145-1.018.982-2.042 2.528-2.104-.324-.556-.658-1.405-.608-2.49.05-1.052.494-2.628 2.344-4.17C25.55.443 26.687 0 27.878 0c2.922 0 4.703 2.63 5.096 3.55.16.374.25.757.298 1.117 1.42.874 3.664 2.483 5.05 4.62.164.252.42.647.678 1.038.938-.46 2.157-.976 3.44-1.22 1.137-.214 1.935-.375 2.43-.478.74-.645 2.08-1.52 3.88-1.52.687 0 1.374.13 2.043.385 1.622.62 2.756 1.934 3.11 3.603.38 1.778-.162 3.77-1.347 4.96-.41.41-.776.748-1.13 1.006-.03.058-.062.117-.096.177.053.01.104.023.15.037.754.216 1.352.78 1.6 1.51.27.793.115 1.593-.46 2.38-.03.046-.145.22-.313.45-.233.32-.78 1.07-.96 1.595-.163.48-.267.852-.347 1.138l-.038.135c2.082.4 3.698 2.13 3.99 4.408.236 1.856-.424 3.125-1.056 3.884.626.493.917 1.203.917 1.86 0 1.186-2.068 4.617-2.914 5.466-.203.203-.368.377-.508.525-.603.636-1.354 1.427-2.66 1.427-.898 0-1.738-.43-2.28-1.12-.364.34-.75.68-1.152 1.015 2.803 1.43 3.36 2.543 3.256 3.787-.01.108-.03.464-.063.993-.775 12.582-1.136 13.124-1.592 13.81C45.317 62.923 31.83 64 31.7 64z" fill="#FFF"/><path d="M20.172 29.4c.28.063.406-.408.313-.69-.094-.282-2.217-1.676-2.53-1.536-.282.125-.72.69-.345.91.374.22 2.28 1.254 2.562 1.316zm22.405 13.794l.375-2.288c5.062-3.793 7.156-8.62 7.156-8.62.687.093 2.906-.66 2.594-3.105-.312-2.444-3.062-3.29-4.437-1.692-1.375 1.6-.812 3.166-.812 3.166-2.312 2.853-5.97 3.7-5.97 3.7 2.595-2.76 2.563-6.177 2.563-6.177s.25-.063 1.22-3.323c.968-3.26 4.5-9.468 4.5-9.468s.155.094 1.186-.94c1.03-1.036 1.406-3.92-.97-4.83-2.374-.908-4 1.098-4 1.098s-.968.22-3.124.627c-2.156.41-4.312 1.882-4.5 1.85-.187-.03-.187.032-1.937-2.664S30.985 5.98 30.985 5.98s.188-.878-.094-1.536c-.28-.658-2.344-3.542-4.937-1.38-2.594 2.164-1.125 3.95-1.03 4.045.093.093.655 1.034.436 3.573-.22 2.54-1.25 7.242-1.345 7.273-.094.03-1.312 0-3.53-.125-2.22-.124-4.595.94-4.595.94s-2.406-1.096-3.844.753c-1.437 1.85-.72 3.793.812 4.546 1.53.75 2 .47 3.47.03 1.468-.44 2.53-.376 5.624 1.285 3.094 1.662 3.47 4.295 4.406 6.71.937 2.413 4.53 4.325 4.53 4.325-4.905.125-9.374-1.66-9.374-1.66-1.906-3.23-5.47-1.036-5.937.5-.47 1.537.062 2.917 1.812 3.857 1.75.94 3.686-1.003 3.81-1.003.126 0 6.97 3.448 7 3.542.032.094.282 1.317.157 1.536-.125.22-3.687.063-3.812.564-.125.502.938 10.627 1.25 11.348.312.72 4.906 6.27 5.562 6.583.656.314 13.093-1.567 13.656-2.414.562-.846 1.22-12.98 1.28-13.73.065-.75-3.716-2.35-3.716-2.35zm7.343-15.267c1.344-.157 1.906 1.285 1.75 2.038s-.78 1.285-1.062 1.13c-.28-.158-.53-.597-1.125-.69-.495-.08-.78.375-1.03-.126-.25-.503.124-2.196 1.467-2.353zM15.828 21.72c-.25 1.442-1.53 1.85-2.5 1.13-.97-.722-1.47-2.384.47-3.105 1-.373 2.28.533 2.03 1.975zm4.03 16.145c-.374.22-2.03.69-2.686-.063-.656-.752-.78-2.006.125-2.79.54-.467 1.625-1.16 2.375-.502.75.66.562 3.135.187 3.355zm27.5-26.74c.75-1.067 1.937-.47 2.594.062.81.657.437 3.51-1.094 2.916-1.53-.597-2.25-1.913-1.5-2.98zm-19.905-7.43c1.068-.27 2.28.28 2.187 1.598-.094 1.317-2.062 2.1-3.03 1.505-.97-.596-1.532-2.508.843-3.104zM25.67 26.17c-.06-.093-2.53-2.726-4.53-3.385-2-.658-3.687-.22-3.875-.408-.187-.188-.406-2.132-.25-2.257.26-.208 3.187-.502 5.25-.44s2.312.346 3.312-.532 1.687-4.358 1.75-7.116c.062-2.76-.25-3.574.313-3.887.562-.314 2.344-.658 2.53-.596.188.062 3.282 2.037 4.907 4.64 1.625 2.6 1.312 2.914 1.656 3.103.344.188 1.687.69 2.03.408.345-.28 3.063-2.193 4.313-2.57 1.25-.376 2.375-.188 2.72 0 .343.188 1.5 1.787 1.593 1.944.093.157-.97 2.32-1.032 2.194-.062-.125-1.094-1.787-1.406-1.787-.313 0-1.062.503-.875.69.188.19 1.594 1.913 1.562 2.29-.032.375-.22 1.378-.376 1.347-.156-.03-1.47-1.912-1.844-2.038-.375-.126-.78.344-.656.563.125.22 1.875 2.257 1.844 2.633-.03.376-.094 1.097-.22.972-.124-.125-1.655-2.163-2-2.132-.343.03-.56.345-.312.69.25.345 1.812 2.76 1.78 3.04-.03.283-.53 1.13-.593 1.036-.062-.094-1.53-3.166-3.625-4.702-2.094-1.536-7.312-.22-9.406 1.035-2.094 1.254-3.312 2.508-3.72 3.448-.403.94-.778 1.913-.84 1.818zm3.5-2.193c1.875-1.86 6.282-3.825 9.938-2.006 3.656 1.82 3.75 7.776 1.5 10.284-2.25 2.508-4.906 3.887-8.875 2.038-3.968-1.85-5.75-7.15-2.562-10.315zm-4.436 13.637s7.718 1.567 12 .658c4.28-.91 8.75-3.51 9.03-3.51.282 0-1.905 2.946-3.218 4.043-1.312 1.097-1.97 1.348-1.97 1.473s.126 3.887-.062 4.577c-.187.69-1.094 2.383-5.187 1.88s-4.406-1.347-4.5-1.755c-.094-.408-.25-4.075-.687-4.452s-5.5-2.506-5.406-2.914zM43.89 52.38c-.157 0-.97-1.63-1.126-1.662-.156-.03-.72.282-.72.596s1.47 2.414 1.532 2.696c.062.282.062 1.975-.03 1.975-.095 0-1.688-2.76-1.876-2.79-.188-.03-.97.72-.78.91.187.187 2.343 3.73 2.218 3.824-.125.093-.875.312-1 .062s-1.594-2.853-1.75-2.82c-.156.03-.937.5-.844.72.094.22 1.625 2.226 1.562 2.32s-1.125.22-1.187.125-1-1.63-1-1.63-1.032.345-.845.658c.187.314.75 1.536.656 1.567-.093.03-6.624 1.003-6.686.784s-.313-8.402-.53-8.527c-.22-.126-1.126-.283-1.157 0-.03.28.375 6.426.156 6.426-.22 0-2.375-2.226-2.72-3.448-.343-1.223-.968-6.082-.78-6.458.05-.1 1.344 1.724 1.812 1.85.47.125 2.312.282 5.094-.094 2.78-.376 10.06-1.693 10.186-1.63.126.06-.03 4.544-.187 4.544zm4.78-31.256c-1.03 1.317-1.292 2.863-1.187 3.198.188.596.938.408 1.094.125.156-.282.25-.878.625-1.975s1.344-2.257 1.47-2.477c.124-.22.405-.47.186-.533s-1.156.345-2.187 1.662zm3.5 13.324c-.22.22-1.375 1.944-1.97 2.602s-1.655 1.63-1.968 1.912c-.312.282.063.815.5.815.438 0 .656-.376 1.563-1.285.906-.91 2.25-3.73 2.25-3.856 0-.126-.375-.188-.375-.188zm-29.342-19.97c.25-.157.844-3.668.72-3.98s-1.033-.312-1.063-.095c-.03.22-.094 3.637-.062 4.013.03.376.155.22.405.062zm-3.344 26.334c-.437.25-.22.878.156 1.035.375.157 3.28.44 3.594.44.313 0 .22-.44.094-.66-.125-.22-3.654-.924-3.844-.815zm9.437-24.766c.25-.094.376-.658.407-2.07.03-1.41.22-3.447.03-3.698-.186-.25-.905-.282-1.03-.188-.125.094.03 1.16.03 2.288s-.84 2.69-.78 3.198c.063.532 1.094.564 1.344.47zm10.75 15.047c.938-.752 0-1.41-.312-1.317-.313.094-1.062 1.505-3.78 1.85-2.72.345-3.523-.972-4-.972-.47 0-.75.44-.532.72.22.283 1.656 1.568 4.406 1.63 2.75.064 3.28-1.158 4.22-1.91zm-6.905 13.26c.156-.124-.156-4.106-.25-4.168-.094-.063-.828-.454-.937-.125-.125.376.187 3.51.344 3.95.155.438.687.47.843.344zm-.5-16.583c.375.22 1.625.533 1.72-.627.093-1.16-1.458-1.292-1.907-.91-.626.534-.188 1.318.187 1.537zm4.812-.5c1 0 1.406-.66.97-1.412-.44-.752-1.644-.492-1.845-.22-.437.596-.125 1.63.875 1.63z"/></svg>