<svg xmlns="http://www.w3.org/2000/svg" viewBox="0 0 64 64"><path d="M32.87 64c-.33 0-.628-.01-.888-.024-3.765-.22-7.59-2.55-7.65-7.266-.023-1.87.64-3.548 1.915-4.847 1.022-1.04 2.41-1.8 3.997-2.213-2.736-.56-3.063-1.504-3.306-2.21-.537-1.553-.758-8.515 2.65-13.337.546-.772 1.086-1.51 1.61-2.224 2.024-2.767 3.77-5.156 4.27-7.458.376-1.733.197-3.3-.49-4.298-.573-.83-1.534-1.336-2.94-1.543-.223-.032-.442-.048-.65-.048-1.44 0-2.227.805-2.633 1.48-.666 1.11-.75 2.62-.202 3.67 1.798 3.448 2.08 5.148 1.12 6.738-1.024 1.857-7.853 3.85-11.885 3.85-1.333 0-2.57-.162-3.68-.483-3.09-.9-5.038-12.835-3.653-18.403C12.355 7.738 20.385 0 32.063 0c.245 0 .495.004.744.01 13.58.386 21.5 7.538 21.184 19.132-.204 7.495-2.928 11.497-5.332 15.027-1.5 2.203-2.92 4.286-3.715 7.173-.307 1.114-.56 2.046-.77 2.825-1.136 4.203-1.56 5.777-4.158 5.777h-.097c-.087 0-.157.002-.24.016-.602.104-1.474.146-2.26.16 3.15 1.322 5.23 4.11 5.315 7.52.035 1.418-.47 2.71-1.464 3.733-2.3 2.37-6.64 2.627-8.4 2.627z" fill="#FFF"/><path d="M18.39 15.168c-.308.266-1.456 1.643-1.986 3.507-.53 1.865-.132 4.44-.088 5.06.044.623 1.5.356 1.722.134.22-.223-.044-.312-.177-3.286-.13-2.975 1.237-4.53 1.237-4.706 0-.177-.436-.943-.706-.71zm15.01 36.54c-3.222-.09-6.71 1.464-6.665 4.972.044 3.507 3.09 4.75 5.386 4.884 2.297.133 8.3-.31 8.212-3.863-.088-3.55-3.088-5.887-6.93-5.993zm-.838 7.946c-2.03 0-3.532-1.687-3.576-3.02-.044-1.33 1.192-3.284 4.59-3.373 1.546-.04 4.327 1.067 4.504 3.597.177 2.53-3.487 2.797-5.518 2.797zm.177-57.228c-10.95-.31-18.322 6.97-19.956 13.54-1.633 6.572 1.645 15.397 1.987 15.496 5.21 1.51 12.583-1.82 12.803-2.22.22-.4.75-.8-1.148-4.44-1.898-3.64.53-9.412 5.96-8.613 5.43.798 6.18 5.282 5.43 8.745-.75 3.463-3.443 6.57-6.27 10.567-2.824 3.996-2.692 10.123-2.34 11.144.354 1.02 8.257 1.243 10.066.932 1.81-.31 1.105 1.287 3.356-6.882 2.25-8.17 8.653-10.3 8.962-21.622s-7.9-16.337-18.85-16.648zm16.554 18.292c-.265-.266-2.296-4.617-2.737-4.617-.442 0-.927.578-.795.71.132.134 3.223 4.84 3.267 5.284.043.444-.487 2.398-.53 2.264-.045-.133-2.87-5.594-3.135-5.594-.265 0-.883.622-.662.932.22.31 3.443 5.86 3.443 5.86s-.84 2.087-.97 1.998-3.003-5.772-3.18-5.772-.574.8-.486 1.02c.088.223 3.223 5.462 3.223 5.817 0 .354-1.37 1.997-1.37 1.997s-2.427-5.55-2.648-5.55c-.22 0-.706 1.065-.706 1.065s2.736 5.46 2.736 5.594c0 .133-1.015 1.73-1.015 1.73s-2.03-4.97-2.162-4.97c-.132 0-.75.843-.662 1.02.088.178 2.163 4.617 2.163 4.84 0 .22-.84 2.663-.972 2.53s-2.25-5.416-2.428-5.46c-.177-.045-.883.93-.662 1.242.22.31 2.56 5.283 2.56 5.505 0 .222-.617 2.087-.75 2.042-.13-.044-2.692-5.816-2.692-5.816s-.795.887-.706 1.153c.088.266 2.78 5.86 2.78 5.86l-.882 2.22s-2.693-6.438-2.825-6.438c-.132 0-.662 1.11-.574 1.376.087.267 3.178 6.305 3.09 6.616-.09.31-1.06.444-1.28.266-.222-.178-2.96-5.638-2.96-5.638s-.66.888-.44 1.154c.22.266 2.515 4.53 2.295 4.53-.22 0-1.678.265-1.678 0 0-.267-1.015-2.665-1.236-2.71-.22-.043-.882.267-.838.534.044.266 1.324 2.13 1.015 2.13-.31 0-2.296-.22-2.384-.354-.088-.133.044-4.973 1.633-7.903 1.59-2.93 6.622-8.702 6.975-12.742.354-4.04-.882-7.237-4.988-9.723-4.106-2.486-9.8-.222-11.213 4.706s1.72 8.48 1.72 8.835c0 .356-6.135 2.22-9.182 1.155 0 0-2.384-5.683-1.854-11.01.53-5.33 5.607-10.523 9.315-12.3s12.272-2.485 16.907-.62 6.887 6.215 7.505 8.168c0 0-1.148-.755-1.28-.71-.132.044-.397.844-.132 1.02.265.18 2.163 2.576 2.296 3.02.132.45.353 4 .088 3.735zM31.767 54.504c-1.5.4-1.678 2.31-1.5 3.02.176.71 1.235.576 1.456.443.22-.133 0-.222-.132-1.065-.13-.844.884-1.82 1.06-1.954.177-.133-.405-.57-.883-.444z"/></svg>