<svg xmlns="http://www.w3.org/2000/svg" viewBox="0 0 64 64"><path d="M26.245 63c-1.047 0-9.406-.982-15.578-5.27-.953-.662-1.868-1.293-2.732-1.887C1.662 51.526.323 50.556.04 48.947c-.12-.688.033-1.375.432-1.936.78-1.097 4.737-3.266 5.962-3.266.13 0 .27.012.4.033.245.04.245.04 1.36.45 1.963.716 6.557 2.394 9 3.048.87.232 1.72.39 2.483.494-4.19-15.2-4.227-16.094-4.24-16.402-.014-.342.11-.808.343-1.352-.296.24-.615.438-.94.6.2.758.026 1.57-.49 2.204-.042.05-.105.12-.19.213-.255.27-.93.99-.64 2.652.33 1.88.705 3.188.928 3.97.24.84.448 1.566.012 2.44-.283.57-.737.982-1.62 1.475-.356.198-.753.3-1.15.3-.222 0-.445-.032-.66-.095-.604-.176-1.112-.584-1.415-1.135-1.015-1.78-1.657-4.03-1.874-6.534-.254-2.935.688-5.145 1.87-6.373-.433-.64-.716-1.448-.778-2.3-.11-1.527.516-2.934 1.722-3.86.773-.593 1.734-.92 2.705-.92 2.132 0 3.788 1.554 4.026 3.78.036.333.03.663-.013.985 1.808-2.626 4.52-5.45 6.082-5.665.034-.005.076-.01.122-.013-.1-.087-.194-.18-.28-.28-.51-.583-.747-1.346-.65-2.094.066-.48.224-.794.54-1.417.214-.425.867-1.716.926-2.182.02-.375-.07-1.26-.136-1.907-.02-.194-.04-.386-.056-.575-1.593-.122-2.855-.837-3.427-1.966-.554-1.09-1.093-3.225 1.517-5.285.07-.056 1.734-1.348 3.658-1.348 2.042 0 3.522 1.433 3.77 3.65.108.958-.077 1.875-.523 2.654.08.154.142.316.19.485.146.503.494 1.857.553 3.495.46-.62 1.27-1.623 2.74-3.342 3.24-3.783 3.505-4.092 4.74-4.092.648 0 1.04.223 1.636.56 4.294 2.43 8.12 3.788 11.377 4.032.885.066 1.787.1 2.682.1 2.924 0 5.224-.352 6.597-.563.732-.112 1.175-.18 1.573-.18.528 0 1.003.13 1.412.387 2.122 1.33 1.644 7.704 1.632 7.764-.53 2.678-8.058 4.7-9.87 5.146.55.466 1.04 1.047 1.4 1.738.096.186.185.362.264.528 1.517.17 2.67 1.05 3.14 2.422.412 1.2.226 2.502-.508 3.572-.06.087-.122.17-.19.254h.04c2.463 0 4.348 1.71 4.48 4.063.062 1.062-.3 2.07-1.02 2.835-.854.908-2.162 1.43-3.59 1.43-1.436 0-2.642-.548-3.306-1.5-.712-1.022-.98-2.217-.76-3.366.086-.44.263-.977.625-1.52-.298.05-.604.08-.916.09l-.22.003c-1.576 0-2.553-.552-3.144-1.136v.045c0 .792 0 1.27-3.538 5.364-3.586 4.15-4.297 4.256-5.05 4.37-.137.02-.295.033-.473.033h-.002c-.502 0-1.223-.14-2.026-.354.73.322 2.212.965 3.762.965h.134c1.012-.026 1.784-.193 2.29-.356.297-1.127 1.032-2.4 2.57-3.312.752-.446 1.558-.672 2.397-.672 2.465 0 4.348 1.968 4.76 3.388.323 1.122.026 2.53-.78 3.672-.857 1.22-2.15 1.94-3.64 2.028-.163.01-.32.014-.47.014-.874 0-1.59-.147-2.164-.356-1.054.507-2.635 1.02-4.72 1.02-.605 0-1.228-.043-1.853-.13-4.965-.684-6.3-.87-6.457-3.127-.045-.637 0-1.835.808-2.705.497-.535 1.168-.83 1.89-.83.044 0 .092.002.14.005-1.742-.557-3.525-1.274-4.182-1.585l-.732-.345c1.023 4.927 2.01 9.96 2.146 11.92.21 3.04-.292 4.253-1.29 5.43-.052.06-.105.12-.155.188-.92 1.28-5.853 4.132-7.49 4.132zm.522-40.585c.998.33 2.27.788 3.93 1.405-.812-2.4-1.316-3.957-1.61-5.015-.418 1.643-1.03 3.1-2.32 3.61zM40.165 59.62c-1.397 0-2.54-.47-3.217-1.32-.77-.97-1.073-2.125-.857-3.255.222-1.157.984-2.16 2.146-2.825.712-.407 1.513-.492 2.058-.492 2.452 0 4.336 1.607 4.48 3.82.064.987-.272 1.928-.946 2.65-1.196 1.283-2.96 1.42-3.663 1.42zM13.888 16.504c-.683 0-1.962-.12-2.84-.93-.99-.91-1.373-2.578-.934-4.057.46-1.552 1.743-2.645 3.43-2.924.22-.036.445-.055.674-.055 1.217 0 2.36.507 3.133 1.393.763.873 1.092 2.03.93 3.26-.26 1.98-2.026 3.312-4.39 3.312h-.002zm27.99-8.5c-.652 0-1.882-.098-2.782-.76-.88-.65-1.342-1.725-1.264-2.95.08-1.27.783-2.898 2.17-3.668C40.71.234 41.685 0 42.612 0c1.29 0 2.41.45 3.153 1.265.693.76 1.02 1.797.92 2.92-.203 2.285-2.135 3.82-4.806 3.82z" fill="#FFF"/><path d="M11.906 28.738c.587.328 3.22-.218 3.024-2.053-.196-1.834-1.946-1.985-2.937-1.223-1.392 1.07-.674 2.95-.087 3.276zm1.197-2.686c.292-.05.957.218.827.852-.13.633-1.13 1.332-1.654.895-.522-.438-.217-1.573.827-1.748zm43.538 4.193c-.456-1.332-2.48-.7-2.48-.7s-.065-.545-.783-1.92c-.718-1.377-2.312-1.972-2.807-1.792-.48.175-.892.786-.783.94.11.152 1.066-.132 2.176.5 1.11.634 1.392 2.622 1.392 2.622s-1.153.72-1.5 1.267c-.35.546-.24 1.856 1.805 1.79 2.045-.064 3.438-1.375 2.98-2.707zm-1.783 1.332c-.61.306-1.414.808-1.806.306-.39-.502.588-1.07 1.067-1.31.394-.198 1.197-.393 1.5-.087.306.305-.15.786-.76 1.09zM15.932 12.883c.196-1.485-1.07-2.098-2.002-1.944-1.98.327-1.806 2.4-1.284 2.882.523.48 3.09.546 3.286-.94zm-1.654-1.004c.35-.038.74.043.718.523-.022.48-.326.895-1.175.743-.847-.154-.782-1.136.458-1.267zm43.06 24c-1.24.808-1.22 2.01-.61 2.883.61.874 3.72.633 3.612-1.267-.11-1.9-2.324-2.06-3.003-1.616zm.136 2.277c-.326-.467-.337-1.11.326-1.54.363-.238 1.547-.153 1.605.863.058 1.015-1.605 1.144-1.93.677zm-18.066 16.13c-1.24.708-1.22 1.763-.61 2.53.61.766 3.722.555 3.613-1.113-.108-1.667-2.322-1.806-3.002-1.418zm.137 1.903c-.326-.346-.337-.822.326-1.142.364-.175 1.548-.112 1.606.64s-1.605.847-1.93.502zM11.69 41.492s.586-.328.652-.46c.065-.13-.61-1.833-1.153-4.935-.545-3.1 1.13-4.542 1.326-4.783.196-.24-.544-.328-.718-.306-.174.022-2.002 1.376-1.697 4.892.305 3.517 1.458 5.352 1.59 5.592zM49.242 43c-1.806 1.07-1.567 2.75-1.567 2.75-.217.307-1.762 1.18-4.44 1.246-2.675.066-5.003-1.267-5.373-1.354-.37-.087-.413.677-.392.983.023.306.306.37 4.418.94 4.112.567 6.223-1.29 6.223-1.29s.675.83 2.525.72c1.85-.108 2.48-1.986 2.285-2.663-.196-.678-1.87-2.403-3.677-1.333zm-.068 2.793c-.445-.638-.46-1.515.445-2.105.496-.323 2.113-.207 2.193 1.18.08 1.387-2.193 1.563-2.638.925zm11.882-31.905c-.348-.218-4.787 1.092-11.184.61-6.397-.48-12.663-4.585-12.837-4.585-.174 0-5.7 6.377-5.918 6.988-.218.612 3.35 10.44 3.35 10.746 0 .306-9.53-3.713-10.79-3.538-1.263.175-5.92 6.115-5.876 7.163.043 1.05 5.048 19.088 5.048 19.088s-3.003.087-6.266-.786c-3.264-.874-10.01-3.43-10.14-3.45-.26-.045-3.61 1.66-4.046 2.27-.435.61 3.96 3.45 9.617 7.38s13.49 4.85 14.23 4.85c.74 0 5.004-2.36 5.57-3.146.566-.786 1.22-.917 1-4.062-.217-3.145-3.045-15.986-3.045-16.117 0-.13 3.525 1.53 5.004 2.228 1.48.7 5.787 2.228 6.658 2.096.87-.13 6.57-6.944 6.57-7.38 0-.437-3.09-10.963-3.09-10.963s4.962-.13 8.356-.743c3.394-.61 8.268-2.926 8.355-3.363.087-.434-.217-5.064-.566-5.282zm-18.755.677l2.22 6.508s-.197.197-.35 0c-.15-.196-2.436-6.42-2.392-6.617.033-.15.522.11.522.11zM24.765 58.832c-.13.044-5.83-1.267-8.703-2.795C13.19 54.507 4.4 48.874 4.574 48.48c.174-.393 1.74-1.005 1.958-1.005.653 0 6.876 2.752 10.096 3.625 3.22.874 3.35.7 3.48.874.132.175.654 3.67.915 3.756.26.087.566.087.566.087s-.784-3.8-.436-3.756c.348.045.827.045.827.045s1.045 5.46 1.22 5.46c.173 0 .52.044.52-.087s-.956-5.24-.826-5.24.566.043.566.043 1.436 6.508 1.305 6.552zm5.092-9.456c-.065.262-3.35 3.538-3.285 3.778.065.24 0 .437.13.437.132 0 3.33-3.056 3.46-2.904.132.153.37.83.262 1.07-.11.24-3.177 3.34-3.177 3.472s-.11.393.087.393c.196 0 3.264-2.64 3.264-2.467s.196 1.114.174 1.245c-.022.13-2.09 2.03-2.09 2.118 0 .087.088.218.327.175.238-.043 1.522-1.004 1.587-.85.065.152.087.458 0 .61s-3.547 1.703-3.547 1.463-1.545-6.224-2.502-9.675c-.957-3.45-4.787-16.292-4.656-16.794.075-.287 3.48-4.826 3.612-4.76.13.064.152.5.152.5s-2.828 3.91-2.785 4.085c.045.174.066.59.262.48.196-.11 3.198-3.866 3.285-3.735.087.13.283.46.24.72-.045.263-3.46 4.718-3.46 4.784 0 .064-.197.59.13.414.326-.175 3.72-4.084 3.83-3.91.108.176.39 1.027.347 1.137-.044.11-3.22 3.452-3.22 3.54 0 .086.11.654.326.567.218-.087 3.09-3.472 3.264-3.08.174.394 1.197 3.626 2.154 8.212.958 4.586 1.894 8.714 1.83 8.976zm-.784-14.13c-.152-.197-2.306-8.102-2.22-8.21.042-.052 1.002.545 1.002.545s1.72 6.487 1.784 6.487c.064 0 .434.066.434.066s-1.37-6.18-1.197-6.18c.174 0 .85.37.85.37s1.457 6.29 1.63 6.422c.175.13.35.197.35.13 0-.065-1.22-6.507-1.067-6.463.152.044.85.11.85.328 0 .218.956 6.268 1.11 6.4.15.13.52.5.586.196.065-.306-.37-6.006-.37-6.006s2.698 1.31 2.807 1.485c.11.175 2.263 8.233 2.263 8.233s-8.66-3.605-8.813-3.802zm16.798-1.66c.023.066-4.97 5.738-5.025 5.634-.653-1.223-7.245-21.97-7.224-22.32s4.33-4.06 4.57-4.06c.24 0 .26.545.305.785.043.24-3.59 3.734-3.83 3.887-.238.153.22.502.35.502.13 0 3.894-3.45 4.046-3.472.153-.022.327.72.35.808.02.087-3.81 3.734-3.96 3.91-.153.174.13.414.325.414.196 0 4.025-3.363 4.09-3.34.065.02.675 1.353 1.632 4.28.957 2.925 2.328 8.32 2.328 8.32s-3.916 3.953-4.047 4.15c-.13.196.087.48.283.59.197.108 3.96-3.735 3.96-3.735l.61 1.266s-3.873 3.647-4.112 3.822c-.24.175.48.7.48.7l3.872-3.67s.98 1.463 1 1.528zm-.087-12.47c-.152 0-.827-.086-.827-.086s-1.523-5.962-1.436-5.962c.078 0 .87.48.957.568s1.46 5.48 1.306 5.48zm.936.022c-.066-.11-1.198-5.045-1.132-5.132.04-.052.892.262.892.262l1.175 4.87s-.87.11-.936 0zm7.31-.72c-4.852 1.048-5.527.94-5.548.874-.022-.065-1.13-4.695-1.088-4.826 0 0 3.786.37 7.376.13 3.59-.24 4.7-.545 4.765-.458s.065 2.053.065 2.14-.718 1.09-5.57 2.14zm-29.134-.743c-.043.328.675.59.936.546.26-.043.696-.654 1.197-3.035s-.262-4.914-.306-5.067c-.043-.153-.326-.306-.544-.197-.217.11.26 2.774.196 3.997-.066 1.225-1.447 3.51-1.48 3.758zm2.09-11.072c-.305-2.708-3.104-1.1-3.613-.7-.61.48-1.436 1.224-.87 2.338.565 1.115 4.786 1.07 4.482-1.637zm-2.503-.415c.45-.254 1-.502 1.327-.328.326.175.653 1.07-.13 1.682-.784.612-1.872.677-2.155.262-.283-.415.61-1.42.958-1.616zm19.843-4.215c.174-1.965-2.308-1.75-3.177-1.267-.828.46-1.306 2.14-.654 2.62.653.482 3.656.613 3.83-1.353zm-2.328-.94c.414-.15 1.762-.13 1.545.875-.218 1.005-2.154.874-2.285.743-.13-.13-.805-1.048.74-1.616z"/></svg>