<svg xmlns="http://www.w3.org/2000/svg" viewBox="0 0 64 64"><path d="M30.31 64c-.077 0-8.283-.115-8.934-.246-.86-.172-2.15-.97-2.975-2.217-1.117 1.92-3.256 1.99-4.06 2.015-.214.007-.444.01-.686.042-.79.1-2.01.116-2.667.116-5.574 0-6.536-.722-7.053-1.11-1.22-.915-1.917-2.327-1.917-3.875v-.144c-.083-22.02.142-25.314.812-26.454-.202-.478-.36-1.064-.448-1.783-.193-1.585-.018-4.27.045-4.716.035-.238.093-.462.172-.67-.128-.29-.22-.606-.258-.95-.005-.04-.45-4.032.274-5.48.072-.146.15-.288.232-.424-.2-.406-.342-.847-.415-1.31-.008-.054-.42-6.04.43-7.575.498-.896 1.18-2.12 7.91-2.12 3.92 0 6.697.455 7.41 2.61-.085-6.098.057-6.456.274-6.997C18.96 1.46 20.553 0 23.403 0c.456 0 .936.038 1.427.113 6.092.93 8.866 1.79 9.196 4.437.006.046.412 4.78-.113 6.396.184.33.293.645.358.905.08.316.246 1.93.226 3.55 1.095-.666 3.39-.944 4.387-.944l.263.005c.776.03 7.618.324 9.103 1.81 1.232 1.076 1.506 2.364 1.578 4.36.024.673.042 1.267.054 1.795 1.247-.573 2.582-.636 3.4-.674.548-.025 2.463-.09 4.084-.09 2.132 0 2.743.106 3.305.348 3.327 1.427 2.12 9.978 2.095 10.058-.138.442-.287.922-.836 1.357.797 2.586.428 24.573.155 25.695-.82 3.368-4.39 3.585-6.52 3.715l-.717.048c-.528.042-1.09.067-1.648.067-.948 0-3.43 0-5.08-1.363-.65.548-1.354.82-1.89.953-.398.1-.85.213-5.712.213-1.355 0-2.59-.01-3.13-.014l-.26-.002c-1.056 0-2.18-.475-2.96-1.334-.78 1.283-2.2 2.6-3.858 2.6z" fill="#FFF"/><path d="M6.176 17.625c.996.192 9.194.077 9.424-.46.23-.537.038-6.135-.038-6.518-.077-.383-1.762-.767-4.788-.767s-5.286.345-5.478.69c-.192.345-.23 5.06-.115 5.79.115.728.61 1.19.996 1.265zm1.264-5.29c.173-.175 5.67-.193 5.9.037.23.23.267 2.914 0 3.03-.27.114-5.785.152-5.977.037s-.19-2.838.077-3.106zm14.48 5.25c.5.116 9.348.23 9.616-.306.268-.538.192-4.142.038-4.755-.153-.614-.92-.997-1.877-1.19-.958-.19-5.938-.306-5.938-.306l-.154-.193s1.877.038 4.29-.077c2.413-.115 3.256-.422 3.41-.767.152-.345.076-4.18-.04-5.1-.114-.92-4.596-1.686-6.856-2.03-2.26-.346-3.218.497-3.37.88-.154.384-.078 5.905-.078 5.905.038 1.15 1.8 1.495 1.8 1.495s-1.8 1.15-1.954 1.42c-.153.267.077 3.105-.077 3.68-.15.576.693 1.228 1.19 1.343zM23.8 5.012c.37-.184 5.133.806 5.21 1.15.077.346.383 2.378 0 2.57-.383.192-5.478-.115-5.478-.115s-.115-3.413.268-3.604zm-.345 8.206c.207-.083 5.21-.115 5.44.23.23.345.306 2.11.115 2.147-.192.038-5.555.115-5.746-.192-.192-.306 0-2.108.19-2.184zM54.75 33.344c-1.456 0-4.493-.126-4.942.652-.575.997-.843 23.81-.268 24.998.575 1.19 3.103 1.265 5.095 1.112 1.992-.153 4.367-.077 4.75-1.65.383-1.57.307-23.118-.077-24.115-.382-.996-3.102-.996-4.558-.996zm2.298 24.308c-.345.077-3.6-3.336-3.754-3.336-.153 0-.996.96-.728 1.227.268.268 2.758 2.492 2.26 2.492s-3.065.077-3.14-.153c-.078-.23.305-21.126.46-22.238.06-.445 4.366.153 4.366.153l.65 10.084s-.842-.843-1.072-.843-.804 1.15-.613 1.342c.192.19 1.724 1.61 1.724 1.84 0 .23-.037 2.72-.114 2.606-.077-.115-1.456-2.3-1.57-2.262-.116.038-.652 1.035-.5 1.457.154.423 1.955 2.608 1.993 2.762.037.153-.154 1.38-.154 1.38s-1.992-2.262-2.184-2.147c-.192.115-.192 1.342-.077 1.495.115.153 2.145 2.57 2.375 2.952.232.385.423 1.114.078 1.19zM31.842 21.344c.038-1.342-1.456-2.53-1.762-2.53s-6.704-.115-7.47-.115-1.518 1.212-1.532 1.418c-.115 1.687-.69 37.69-.69 38.877 0 1.19 1.34 1.994 1.532 2.032.192.038 7.776.192 8.39.192.612 0 1.646-1.305 1.723-1.765.077-.46-.23-36.77-.19-38.11zM26.326 50.79c.077.344 2.835 2.798 3.026 3.258.192.46.192 2.684.192 2.684s-3.026-3.834-3.18-3.834c-.152 0-.995 1.112-.804 1.42.192.306 3.907 4.638 3.524 4.677s-1.57 0-1.724-.115c-.153-.115-2.567-3.182-2.682-3.182-.115 0-.804.5-.728.652.077.153 2.528 2.684 1.877 2.646-.65-.038-2.873-.077-2.95-.383s.306-36.385.498-37.344c.046-.23 5.746-.27 5.823 0 .077.267 0 16.64 0 16.64s-.88-.883-.996-.73c-.115.153-.843 1.15-.766 1.265.077.115 1.992 1.88 1.992 2.3 0 .422.153 1.65-.038 1.65-.192 0-1.724-1.84-1.877-1.803-.153.038-.728.92-.613 1.19.115.267 2.337 2.76 2.337 2.76s.306 2.11.077 1.88c-.23-.23-1.762-1.688-1.762-1.688s-.498 1.074-.42 1.265c.076.19 2.45 3.066 2.412 3.258-.038.192.077 3.106-.077 3.03-.153-.078-2.452-3.183-2.605-3.107-.153.076-.613 1.264-.536 1.61zm33.25-26.226c-.535-.23-5.285-.077-6.09-.038-.804.038-2.24.085-3.026.805-.46.423-.536 1.113-.613 2.455-.077 1.342-.115 3.45.65 4.026.767.576 9.425.04 9.616-.574.192-.614 0-6.442-.536-6.672zm-1.838 5.1c-.345.268-5.248.46-5.286.115-.038-.346-.038-2.685.153-2.953.254-.356 4.367-.613 4.865-.115.498.498.613 2.683.268 2.952zm-10.803.69c.077-1.15-.958-2.07-1.532-2.262-.575-.192-6.78-.268-8.083-.192-1.302.077-1.932.683-1.954 1.15-.077 1.687.498 29.024.575 29.83.078.804.882 1.073 1.19 1.073s7.66.077 8.427-.115c.766-.192 1.38-.73 1.532-2.185.152-1.458-.23-26.15-.155-27.3zM44.79 48.412c.077.307-.077 1.917-.077 1.917s-1.456-1.803-1.686-1.803-.766.997-.728 1.112c.037.114 2.527 3.066 2.527 3.18s-.038 2.033-.115 1.918c-.077-.115-2.452-2.57-2.567-2.492-.115.077-.69 1.304-.69 1.304l3.14 3.796-2.144-.038s-2.183-2.76-2.336-2.76c-.153 0-.65.804-.65 1.073 0 .27 1.608 1.88 1.493 1.956-.115.077-2.107.575-2.337.038-.23-.537-.996-25.765-.766-26.992.022-.12 6.474-.268 6.474.077 0 .344.268 10.964.077 10.773s-.804-.575-.92-.575-.69 1.074-.535 1.15c.153.077 1.8 1.764 1.877 1.917.077.153.077 2.07-.038 2.07-.116 0-1.457-1.42-1.572-1.342-.115.077-.46 1.304-.42 1.42.038.114 1.915 1.992 1.992 2.3zM12.65 33.038c-1.57-.077-7.266.36-7.432.537-.536.575-.42 24.883-.42 25.15 0 .27.037 1.075.803 1.65.767.575 6.207.652 7.7.46 1.495-.192 2.644.268 2.95-1.457.307-1.725.346-23.58.193-24.346-.154-.768-2.222-1.918-3.793-1.994zm1.647 22.2c-.268-.116-2.107-2.493-2.222-2.455-.115.038-.92.843-.65 1.304.267.46 2.566 3.374 2.604 3.49.037.114.382.92-.04.996-.42.077-.88.115-.995-.038-.115-.153-2.567-3.604-2.567-3.604s-.804.193-.728.69c.077.5 1.762 2.685 1.532 2.762-.23.077-3.448.728-3.678.077-.23-.653-.65-22.622-.345-23.312.202-.457 4.98-.383 5.477-.077.498.308 1.264.998 1.494 2.455.23 1.457.193 5.75-.037 5.75s-1.417-1.61-1.877-1.724c-.46-.114-.88.73-.613 1.075.268.345 2.528 2.11 2.528 2.645 0 .537.154 1.38-.076 1.304-.23-.077-1.647-1.84-1.8-1.764-.153.077-.92 1.074-.613 1.38s2.606 2.837 2.606 2.99c0 .154-.077 2.186-.077 2.186s-2.146-2.99-2.53-2.645c-.382.346-.69 1.19-.497 1.496.192.307 3.103 3.03 3.103 3.374 0 .343.27 1.762 0 1.647zm22.64-28.22c.383.038 6.857.383 8.12.192 1.265-.192 1.878-.997 1.993-1.304.115-.307.077-3.03 0-5.176-.077-2.147-.42-2.147-.766-2.492-.345-.345-6.206-.96-7.24-.997-1.034-.037-2.758.322-3.103.538-.612.383-.612.92-.65 1.61-.038.69-.192 5.483 0 6.326.19.844 1.264 1.266 1.647 1.304zm.92-7.093c.16-.284 6.435-.038 6.435.23s.46 4.332.268 4.486c-.192.154-6.397.27-6.512.116-.115-.153-.345-4.562-.192-4.83zm-31.26 5.023s-.19.077-.574.268c-.383.192-.805.537-.843.805s-.192 2.723-.038 3.988c.153 1.265.536 1.457.536 1.457.69.192 2.49-.153 4.903-.115s4.828.728 5.096.345c.268-.383.23-4.41.153-5.636-.078-1.228-1.8-1.42-1.8-1.42.765-.077 1.493-.652 1.608-1.304.115-.652 0-3.757-.115-4.256s-2.145-1.19-5.9-1.112c-3.753.077-4.328 1.42-4.52 1.802s-.076 3.26 0 3.91C5.18 24.335 6.6 24.95 6.6 24.95zm6.896 4.524c-.192.115-5.555.345-6.014 0-.46-.345-.078-2.837.076-3.182.292-.658 5.4.23 5.823.69.42.46.305 2.377.113 2.492zm-5.9-9.202c.5-.192 5.594.077 5.9.46.306.383.23 1.304.153 1.457-.077.153-6.436.192-6.55.153-.327-.11 0-1.878.498-2.07zm16.97 2.11c0 .19-.037 3.91 0 4.178.04.268 1.074.038 1.265.077.192.038.115-4.14 0-4.256-.115-.116-1.264-.33-1.264 0zM8.36 36.18c0 .23-.077 3.03 0 3.413s.88.268 1.073.077c.192-.192.306-3.26.038-3.527-.267-.268-1.11-.083-1.11.038z"/></svg>