<svg xmlns="http://www.w3.org/2000/svg" viewBox="0 0 64 64"><path d="M36.07 64c-2.587 0-5.456-.044-8.003-.083-2.01-.03-3.817-.058-5.12-.058l-.624.002c-.546.005-1.072.015-1.574.025-.67.013-1.3.025-1.886.025-2.224 0-6.85 0-7.534-4.45-.278-1.812-1.374-11.763-2.34-20.543-.517-4.68-.977-8.856-1.208-10.84l-.19-1.605c-.647-5.41-1.003-8.39 1.76-9.762 2.48-1.232 20.932-1.49 24.46-1.49 1.52 0 2.85.013 4.02.038-.5-.55-.852-1.194-1.028-1.895-.31-1.233-.05-2.52.735-3.62.866-1.215 2.44-1.912 4.32-1.912.06 0 .12 0 .18.002 0-.013.002-.027.004-.04.612-5.05.817-6.75 3.15-6.96.074-.007.192-.012.268-.012.75 0 2.296.362 3.15.577 1.94.49 3.946.994 3.946 3.142 0 .167 0 .558-.483 2.653-.455 1.973-.884 3.837-3.026 3.837-.078 0-.456-.03-.966-.1l-.026-.005c-.488 2.707-.896 3.575-1.478 4.2-.267.284-.6.548-.976.784.64.167.925.336 1.16.476 1.333.79 3.053 1.81 2.267 17.1.113-.056.227-.106.34-.148.39-.146.812-.217 1.285-.217.295 0 .61.032.926.082 1.012-2.736 1.748-3.907 3.47-3.907.958 0 7.186 2.29 8.268 3.49.48.53.747 1.316.668 2.026-.01.078-.92 7.19-2.907 8.984-1.055.953-2.502 1.52-3.87 1.52-1.4 0-2.633-.598-3.384-1.642-.295-.41-.51-.84-.65-1.277-.48.067-.963.08-1.256.08-1.36 0-2.528-.235-3.457-.68-.193 2.367-.427 4.962-.71 7.81-.118 1.21-.184 2.66-.25 4.064-.25 5.523-.458 8.234-2.39 9.468-.837.536-1.867.862-9.043.862zM5.86 16.666c-2.196 0-4.078-1.306-4.68-3.25-.35-1.122-.185-2.355.457-3.473.427-.745 1.043-1.395 1.75-1.875C1.365 3.24 1.843 1.533 3.29.506 4.004 0 4.766 0 5.016 0c.06 0 5.945.177 6.893 3.006.628 1.876.2 3.61-1.06 4.442 1.186 3.05 1.115 3.958 1.088 4.31-.165 2.118-1.574 3.66-4.19 4.582-.614.217-1.25.326-1.887.326z" fill="#FFF"/><path d="M55.05 31.81c-.326 0-1.86 4.438-1.86 4.438s-2.187-.832-2.932-.555c-.744.277-2.186 1.85-1.49 3.143.7 1.294 3.63 1.202 4.327 1.017.698-.185 1.768-3.93 1.907-3.975.14-.046 3.582 1.34 3.908 1.572.326.23-.28 1.664-.28 1.664s-1.627.185-2.325.74c-.698.555-1.116 1.387-.42 2.357.7.972 2.467.648 3.49-.276 1.023-.924 2.047-6.98 2.093-7.395s-6.093-2.73-6.418-2.73zm4.094 4.53c-.186-.14-3.63-1.756-3.63-1.756l.28-.74c.233 0 4.094 1.202 4.094 1.34 0 .14-.558 1.295-.744 1.156zM40.63 14.247c1.395.693 3.488-.185 4.093-.832s1.163-4.992 1.21-5.177c.046-.185 2.93.277 3.116.277.185 0 .976-3.698.976-3.975 0-.277-4.094-1.248-4.605-1.202-.51.046-1.085 7.98-1.348 7.72-.977-.972-3.675-.972-4.466.138-.792 1.11-.373 2.357 1.023 3.05zm4.837 4.298c-2.652-1.57-33.065-.537-34.983.416-1.303.648-.837 3.236-.186 8.83.65 5.592 3.117 28.563 3.536 31.29s3.63 2.31 8.467 2.265c4.84-.046 20.144.508 21.447-.324 1.303-.83 1.07-7.394 1.49-11.647.416-4.25 2.88-29.256.23-30.828zM43 48.775l-1.72-1.34s-.605.692-.465.877c.14.185 2.14 2.357 2.14 2.496 0 .14.14 1.618-.047 1.572-.186-.046-2.28-2.034-2.512-2.034s-.744.647-.605 1.063 3.025 2.634 3.025 2.772c0 .14-.28 2.22-.28 2.22s-2.79-2.867-3.116-2.867-1.257.23-.745.97c.512.74 3.442 3.052 3.07 3.514-.372.46-.884.554-1.116.415-.234-.14-2.653-3.282-2.978-3.235-.326.046-.79.74-.698.924.093.185 2.652 2.404 2 2.588-.65.185-6.094.416-11.677.462-5.582.046-10.14-.185-10.746-1.433-.604-1.247-1.58-11.37-2.418-19.412-.837-8.042-2-16.593-1.582-17.518.257-.567 11.072-.832 17.492-.786 6.42.046 13.723-.555 14.375 2.727C45.047 26.034 43 48.775 43 48.775zM4.76 2.552c-.975.693 2.048 6.933 2.048 6.933l-1.163.277c-1.163.277-2.42 1.71-2.047 2.912.372 1.202 1.86 1.803 3.303 1.294s2.42-1.203 2.513-2.404c.093-1.202-2.28-6.378-2.28-6.378s2 .323 2.28.185c.28-.14.326-.878.093-1.57s-4.44-1.467-4.745-1.25zm21.03 30.274c4.14 2.496 10.978-.14 10.56-5.27-.42-5.13-5.003-7.708-9.49-5.73-5.35 2.357-5.212 8.504-1.07 11zm2.232-9.706c1.557-.703 6.745.186 6.885 4.993.14 4.807-7.07 4.622-8.932 2.958s-3.164-5.592 2.047-7.95zm-10.28.232c.278-.14.046-.647-.373-.878-.42-.23-2.49-.3-2.978.185-.233.23.42 6.054.698 6.655.28.6 1.07.14 1.442.046.372-.09-.605-5.545-.512-5.684.092-.14 1.44-.185 1.72-.324zM41 28.02s-.93 8.227-.745 8.874c.186.647 1.023.508 1.396.508s.977-9.013.884-9.29c-.094-.276-1.397-.138-1.536-.092zm-12.33 7.257c-5.256.23-7.582 1.803-9.815 5.593-2.233 3.79-1.35 7.858 1.21 11.463 2.558 3.605 9.257 4.16 13.118 2.357 3.86-1.803 5.396-4.483 5.21-10.723-.186-6.24-6.268-8.842-9.722-8.69zm-.836 18.766c-5.443-.786-8.978-3.56-9.118-8.274-.14-4.716 3.442-9.66 9.91-8.875 3.233.393 7.907.97 8.605 7.025s-3.955 10.908-9.397 10.123zm.67-16.26c-3.964.175-5.72 1.36-7.403 4.22-1.684 2.86-1.018 5.927.912 8.647 1.93 2.72 6.983 3.138 9.896 1.778 2.914-1.36 4.072-3.382 3.93-8.09-.14-4.707-4.728-6.67-7.333-6.554zM27.94 48.72c-2.062-.298-3.402-1.35-3.455-3.135-.053-1.787 1.304-3.66 3.755-3.363 1.225.15 2.997.368 3.26 2.662.265 2.295-1.498 4.134-3.56 3.836zm-1.08-21.9c.14-.787.697-1.203 1.115-1.62.42-.415-.395-.838-.605-.738-2.14 1.017-2.186 2.727-2.047 3.19.14.46.884.554 1.21.554.326 0 .186-.6.326-1.387zm.836 2.54c.837 1.295 3.722 1.295 4.606-.37.884-1.663.1-3.497-1.814-3.604-3.304-.185-3.63 2.68-2.792 3.975zm2.605-2.54c1.024.03 1.35 1.016.978 1.524-.372.508-1.86.832-2.233.277-.372-.553-.326-1.847 1.256-1.8zm-2.157 16.733c-1.447-.176-2.25.93-2.217 1.986.03 1.054.822 1.675 2.04 1.85 1.218.176 2.26-.91 2.103-2.265-.157-1.355-1.203-1.484-1.927-1.572z"/></svg>