<svg xmlns="http://www.w3.org/2000/svg" viewBox="0 0 64 64"><path d="M62.997 48.374c-.066-.947-5.98-7.003-5.98-7.003l1.275-18.25c2.083-1.04 1.64-3.21.57-8.446l-.066-.323c.453-.842 1.405-2.463 2.023-3.514 1.755-2.99 1.97-3.393 2.102-3.912.11-.437.194-1.306-.467-2.21-.83-1.133-6.033-4.612-7.583-4.71-.05-.002-.105-.004-.156-.004-1.597 0-2.4 1.112-4.465 4.554-.393.656-1.125 1.89-1.655 2.863-1.334.405-4.172 1.14-5.043 1.348-2.05.49-3.305 3.174-3.206 4.438.052.686.384 1.563 1.076 2.55-1.938 1.843-4.663 4.425-6.36 6.02-1.403-1.337-3.513-3.39-5.087-4.924-2.76-2.688-3.817-3.717-4.403-4.147.09-.634.05-1.235-.122-1.807-.19-.635-.733-1.793-2.228-2.406-.776-.336-4.177-1.705-5.39-2.192-.46-.44-1.484-1.503-2.26-2.31C12.034.322 11.82.102 10.628.102c-.095 0-.192.007-.286.018-4.073.477-8.917 5.87-9.286 7.72-.31 1.557.568 2.602 3.98 6.353.432.474.978 1.075 1.31 1.46.03.377.06.914.088 1.377.278 4.71.494 6.31 1.403 7.262-.143.968-.257 2.444-.437 4.765-.13 1.675-.277 3.67-.43 5.795-.795 9.694-1.85 22.57-1.85 22.654 0 .134 11.544 8.187 34.363 6.175 22.818-2.014 23.577-14.36 23.51-15.306z" fill="#FFF"/><path d="M11.4 10.464c0-.202-1.645-2.116-1.645-2.116s.47-.134.604-.235c.133-.1-.785-.855-.874-.806-.302.168-1.342.806-1.308 1.007.034.202 2.215 2.72 2.45 2.855.234.133.77-.505.77-.706zm36.542 7.79c4.262 2.62 8.725 2.956 9.262 2.688.537-.27-.906-6.448-.94-6.884-.034-.437 4.16-7.187 4.295-7.724.133-.537-5.303-3.862-5.84-3.896-.537-.034-4.33 6.683-4.396 6.918-.067.235-5.503 1.612-6.208 1.78-.705.168-1.363 1.613-1.342 1.88.034.437.907 2.62 5.168 5.24zm-2.516-5.406s5.906-1.444 6.074-1.78c.168-.336 3.523-5.71 3.825-5.54.302.167 2.852.84 2.65 1.275-.2.437-3.992 6.582-3.925 7.086.067.503 1.04 5.17.67 5.238-.368.067-1.173.1-1.24-.134-.068-.235-1.41-4.567-1.712-4.6-.302-.035-.805-.068-.805.234 0 .302 1.644 3.996 1.41 3.996-.236 0-1.645-.235-1.712-.437-.066-.2-.905-3.56-1.207-3.627-.302-.067-1.074 0-1.074.1 0 .102.838 2.453.502 2.42-.336-.034-3.893-2.89-3.456-4.232zm-29.33 14.138c-.066.134 6.68 23.81 6.78 23.978.1.168.435-.168.435-.168s-6.033-23.988-6.173-24.012c-.2-.033-.973.068-1.04.202zM40.46 44.28c-.27-.033-.236.673.167.874.403.202 5.57 0 5.872-.034.3-.034.3-.47-.236-.672-.537-.2-5.805-.167-5.805-.167zM22.774 25.51c-.034.2 14.094 20.988 14.094 20.988s.234-.168.3-.37c.068-.2-13.355-21.022-13.623-21.257 0 0-.74.437-.772.64zm32.113-3.763c0 .202-.906 19.142-.906 19.142l.604.335s1.14-19.142 1.14-19.276c0-.135-.838-.37-.838-.203zm2.987 25.658s.503-.437.537-.806c.034-.37-22.684-20.923-22.684-20.923l8.154-7.79s-.537-.47-.67-.47c0 0-7.954 7.555-8.122 7.656-.168.1-10.67-10.31-10.84-10.343-.167-.034-.536.504-.637.74-.1.233 34.262 31.935 34.262 31.935zm-6.71-22.165c-.27.235-1.813 4.903-1.947 5.44-.134.537.436.403.537.403.1 0 2.148-5.34 2.148-5.44 0-.1-.556-.564-.74-.403zm-7.753 2.888c-.1.37.27.302.503.336s3.893-7.153 3.993-7.32c.1-.17-.638-.438-.906-.538 0 0-3.49 7.153-3.59 7.522zm8.557 28.848c-.135-.134-1.645.74-2.92 1.108-1.275.37-3.658.84-3.658.84-.134.202.268.537 1.107.672.838.134 5.536-1.78 5.737-2.05.202-.268-.134-.436-.268-.57zm4.965-9.806c-.067-.1-.57-.336-1.443-.705-.873-.37-2.55-.672-2.785-.705 0 0-.302.336-.134.47.168.134 4.027 1.276 4.195 1.276s.235-.236.167-.336zm-15.1 12.727c-.2-.1-.738.134-3.02.202-2.282.066-3.624.033-3.792.033 0 0-1.007.907.94.974 1.946.067 5.973-.403 6.14-.504.168-.1-.067-.605-.268-.706zM29.453 44.65c-.503-.234-4.497.538-4.497.538-.134.134-.067.705.168.74.235.033 4.33-.538 4.43-.572.1-.033.402-.47-.1-.705zm-19.8-21.996c.706.57 2.887-.1 6.075-1.578s4.128-3.123 6.376-6.414c2.248-3.29.302-3.862.168-3.93-.134-.066-5.336-2.182-5.705-2.316-.37-.134-5.665-5.91-5.94-5.877-3.154.368-7.047 5.103-7.18 5.774-.135.672 5.033 5.843 5.234 6.38s.27 7.39.974 7.96zm.806-17.8c.19-.035 4.83 5.408 5 5.475.167.066 5 1.813 5.1 2.182.1.37-3.154 5.508-3.29 5.205-.133-.302-.066-2.855-.167-2.922-.1-.067-.84-.1-.84.034 0 .133.102 3.693.102 3.693s-.906.74-.906.504c0-.235 0-3.358-.135-3.425-.134-.067-.906 0-.906.235s.2 3.56.1 3.694c-.1.135-1.007.807-.973.505.034-.302 0-2.82-.1-2.82-.102 0-.873-.102-.94 0-.068.1.033 3.09-.035 3.257-.067.168-1.208.235-1.208.235s-.268-6.48-.336-6.683c-.067-.2-4.866-5.675-4.8-5.91.07-.236 1.278-2.688 4.33-3.26zM58.746 51.67c-.134 0-.403.537-1.208 1.142-.806.604-2.887 1.746-2.954 1.847 0 0 .134.637.738.503s3.792-2.922 3.893-3.19c.1-.27-.335-.303-.47-.303zm-32.583 8.462c-1.376-.235-2.886-.772-3.02-.806-.134-.034-.503.604-.134.873.37.268 5.705 1.04 6.04 1.04.336 0 .168-.806.168-.806s-1.678-.066-3.054-.302zM10.292 24.3c-.235.1-2.316 31.332-2.316 31.6 0 .27 1.04.505 1.14.303.102-.202 2.25-31.77 2.08-31.937.002 0-.67-.067-.904.034zm5.84 34.288c-.17 0-.873-.134-1.51-.604-.64-.47-1.645-.907-1.645-.907-.168 0-.738.235-.47.638s3.322 1.444 3.557 1.444c.234 0 .234-.572.067-.572zm-2.317-10.445c-1.745.84-2.215 1.68-2.215 1.68-.034.2.57.603.705.637.134.034 1.14-.974 1.78-1.478.637-.504 2.415-1.04 2.415-1.243 0-.202-.302-.605-.302-.605s-.638.17-2.383 1.008z"/></svg>