<svg xmlns="http://www.w3.org/2000/svg" viewBox="0 0 64 64"><path d="M19.045 63c-1.692 0-3.79-.73-4.137-2.782-.068-.41-.068-.41.206-7.54.138-3.577.347-9.005.42-11.746-.814-.337-1.87-.77-3.027-1.25C1.37 35.093 1.37 35.093.83 34.283c-.007-.01-1.42-2.417-.547-4.322.357-.78 1.014-1.354 1.81-1.604 1.65-.697 12.634-5.982 15.7-7.58.23-.716.57-1.788.93-2.924-.87-.18-1.43-.61-1.77-.984-.58-.638-.863-1.5-.775-2.367.075-.75 2.162-7.474 2.615-8.226.517-.86 1.444-1.364 2.42-1.364.21 0 .422.024.634.073.346.08.652.18.92.296.948-2.724 1.2-2.918 1.74-3.336l.11-.11C25.243 1.237 26.535 0 28.39 0c.436 0 .868.07 1.283.208.847.28 1.802.597 12.194 13.296 5.59-1.107 13.493-2.625 14.796-2.625.75 0 1.568.31 2.098.838.39.387.76.755 1.742 4.012.256.85.094 1.77-.438 2.482-2.602 3.478-5.406 7.287-7.035 9.57.327-.117.677-.18 1.04-.18 1.555 0 1.555 0 7.73 8.01.824 1.067.77 2.566-.128 3.572-.217.244-.67.687-1.314.992 4.052 6.2 3.876 6.668 3.4 7.93-.642 1.706-3.396 3.792-4.63 4.036-.18.036-.37.054-.554.054-.585 0-.598 0-10.97-2.935-3.582-1.013-8.197-2.32-10.426-2.922-.935.9-2.44 2.384-4.115 4.047.652.613 1.08 1.464 1.08 2.356 0 1.354-.08 1.427-4.28 5.27-3.947 3.613-4.183 3.83-5.434 3.83-.747 0-1.48-.31-2.085-.766-1.415 1.394-1.53 1.45-1.838 1.604-.435.215-.914.322-1.462.322z" fill="#FFF"/><path d="M54.07 30.41c-.364 0-.52.72-.52.72s4.976 6.448 5.287 6.55c.31.104.725-.36.725-.36s-5.33-6.91-5.493-6.91zM30.75 52.275c-.26.155-6.893 5.724-7.1 5.93-.208.207.57.826.776.826s6.893-6.137 6.893-6.292-.393-.57-.57-.464zM20.23 15.092c.206 0 1.657-6.91 1.657-7.065 0-.155-.673-.31-.673-.31-.155.26-2.177 6.55-2.228 7.066-.053.516 1.036.31 1.243.31zm28.916 13.46c-.103-.31 8.654-12.016 8.654-12.016s-.777-2.58-1.036-2.837c-.26-.26-16.013 2.887-16.013 2.887S29.87 3.23 28.78 2.87c-1.088-.36-2.073.928-2.54 1.29-.465.36-5.907 18.152-6.114 18.513-.207.36-16.828 8.314-17.153 8.355-.415.052.103 1.547.207 1.702.104.155 15.028 6.24 15.184 6.343.155.103-.725 20.37-.674 20.68.052.31 1.348.516 1.555.413.207-.103 16.79-16.864 17.153-16.916.363-.052 21.92 6.19 22.18 6.137.26-.05 2.228-1.444 2.54-2.27.31-.824-11.868-18.255-11.972-18.564zm7.825 17.793l-2.435-.825-.933-4.074-1.296-.36s1.4 4.125.985 4.125c-.414 0-2.124-.205-2.227-.515-.104-.31-1.088-4.126-1.296-4.23-.207-.102-1.088-.102-1.088-.102s.984 3.92.776 3.92c-.207 0-1.14-.053-1.192-.26-.052-.205-1.036-4.383-1.192-4.383-.155 0-1.347-.258-1.347 0s.726 4.074.57 4.074-10.52-2.785-10.883-2.785c-.363 0-15.236 15.264-15.236 15.006 0-.258.674-17.844.466-18.36-.207-.516-14.096-5.982-14.2-6.19-.258-.515 15.807-6.755 15.962-7.22.155-.463 5.856-18.307 6.167-17.946.312.36 10.314 12.43 10.832 12.532.518.103 14.977-3.146 15.288-2.733.31.412-8.603 12.22-8.5 12.48.105.257 11.298 16.296 11.35 16.657.053.363-.57 1.188-.57 1.188zm-28.967-34.09c-.104.156-2.436 7.737-2.384 8.046.05.31 1.554.362 1.554.362s2.177-7.84 2.177-7.994c0-.154-1.22-.604-1.347-.412z"/></svg>