<svg xmlns="http://www.w3.org/2000/svg" viewBox="0 0 64 64"><path d="M7.884 64c-2.29 0-4.22-1.703-4.686-4.14-.24-1.25.11-2.562.958-3.598.948-1.157 2.37-1.82 3.9-1.82.79 0 1.57.176 2.32.523 1.647.76 2.605 2.327 2.498 4.087-.123 2.043-1.7 4.12-3.586 4.726-.46.148-.93.222-1.403.222zm43.992-.44c-1.85 0-2.674-1.445-3.922-3.632l-.1-.172c-.643.088-1.406.196-2.098.297-.13.02-.262.028-.39.028-.898 0-1.748-.444-2.258-1.205-.586-.87-.626-2.003-.1-2.912.527-.918 1.068-1.915 1.397-2.565l-.03-.077c-.75-1.918-1.204-3.076-.796-4.31.39-1.18 1.462-1.94 2.727-1.94.76 0 1.46.26 2.582.72 1.474-1.675 2.568-2.672 4.066-2.672.06 0 .142.002.203.006 2.757.184 3.063 3.098 3.267 5.267 1.4.99 3.28 2.622 3.28 4.226 0 1.986-1.5 2.582-3.576 3.407-.22.087-.5.2-.77.31-.404 2.766-.934 5.226-3.484 5.226zM22.34 61.982c-2.633 0-4.854-1.982-5.397-4.82-.27-1.408.128-2.892 1.094-4.07 1.1-1.342 2.755-2.112 4.54-2.112.926 0 1.848.21 2.736.62 1.89.874 2.945 2.592 2.823 4.595-.142 2.355-2.02 4.838-4.188 5.534-.526.168-1.066.254-1.606.254zm11.63-1.75c-1.737 0-3.09-.718-3.713-1.97-1.142-2.3-4.182-7.874-5.616-9.873-1.446.267-4.152.93-5.755 1.324-3.16.775-3.894.94-4.498.94-.065 0-.15-.002-.216-.006-1.3-.093-2.53-.892-3.205-2.084-.61-1.076-.662-2.344-.14-3.392l.31-.612c5.02-9.886 6.544-13.226 7.004-14.347-.103-.36-.245-.85-.41-1.418-2.22-7.71-2.55-9.366-2.412-10.426.012-.093.03-.184.05-.274.43-1.844 2.26-3.83 5.256-3.83.122-.628.41-1.3.792-2.004-1.897-1.524-2.365-2.316-2.365-3.47 0-2.657 2.574-2.984 5.06-3.3l.124-.015C27.194 0 28.914 0 29.59 0c2.23 0 2.986 2.06 3.675 4.122 4.213.194 4.8 1.078 5.202 1.685 1.414 2.145-.38 3.732-2.12 5.266-.31.274-.744.657-1.09.98.046.786.084 1.986.107 3.858 7.444-5.072 7.656-5.073 8.693-5.073.07 0 .146.003.215.008 1.236.096 2.454.733 3.18 1.662.58.747.836 1.65.722 2.553-.063 1.026-.16 9.118-.218 14.885 8.326 6.16 8.523 6.476 8.838 6.985.57.92 1.448 5.217-.676 6.822-.686.518-.713.538-7.438 1.687-2.085.355-4.996.853-6.532 1.162-.484 1.233-1.268 3.385-1.884 5.074-2.446 6.708-2.578 6.956-3.254 7.56-.97.867-2.32.997-3.04.997zM10.12 37.686c-2.634 0-4.855-1.983-5.4-4.82-.27-1.41.13-2.893 1.097-4.07 1.1-1.343 2.754-2.112 4.537-2.112.928 0 1.85.208 2.737.62 1.89.872 2.946 2.59 2.825 4.592-.142 2.355-2.02 4.84-4.19 5.535-.523.17-1.064.256-1.604.256zm45.076-6.554c-2.635 0-4.856-1.982-5.4-4.82-.27-1.41.13-2.893 1.096-4.07 1.1-1.342 2.754-2.112 4.537-2.112.927 0 1.848.21 2.736.62 1.89.873 2.945 2.59 2.824 4.594-.142 2.355-2.022 4.838-4.19 5.534-.525.168-1.065.254-1.604.254zM8.028 19.566c-2.418 0-4.453-1.805-4.95-4.39-.252-1.314.116-2.69 1.01-3.777C5.093 10.174 6.6 9.473 8.223 9.473c.84 0 1.673.188 2.474.558 1.752.81 2.73 2.408 2.62 4.275-.132 2.174-1.806 4.38-3.81 5.025-.483.155-.98.234-1.48.234zm45.126-4.88c-1.63-.002-3.21-.563-4.226-1.505-1.115-1.032-1.715-2.436-1.69-3.954.03-1.656.818-3.272 2.163-4.432.85-.734 1.966-1.138 3.14-1.138 2.574 0 5.485 2 5.807 5.704.124 1.42-.29 2.733-1.17 3.697-.953 1.05-2.382 1.628-4.023 1.628z" fill="#FFF"/><path d="M22.278 22.958c-.1.353.7 2.823 1.052 3.277.35.454 1.252.05 1.402-.302.15-.353-1.202-3.277-1.402-3.377-.2-.102-1.052.402-1.052.402zm2.754-11.393s-1.94 3.04-1.703 3.226c.95.757 4.206-1.058 4.306-1.31.1-.252 5.008 2.924 5.008 2.924s-.05-4.688-.2-5.192c-.15-.504 3.956-3.58 3.756-3.882-.2-.302-4.407-.504-4.758-.504-.35 0-1.252-4.083-1.853-4.083-.602 0-3.457 4.99-3.557 5.192-.1.202-4.257.454-4.257.857 0 .404 3.256 2.773 3.256 2.773zm2.354-2.67c.45-.505 1.553-3.933 1.903-3.832.35.1.75 2.974.9 3.025s2.955.252 2.955.252-2.254 2.57-2.254 2.722c0 .15.552 2.823.552 2.823s-2.955-1.916-3.255-1.916c-.3 0-2.103.856-2.103.856l.35-1.714-1.752-1.815c.3 0 2.253.1 2.704-.403zm-18.71 7.824c1.355-.436 3.058-3.19.883-4.195-2.176-1.005-4.09.65-3.807 2.13.293 1.524 1.57 2.5 2.924 2.064zm.18-3.296c1.138.527.246 1.97-.463 2.197-.71.23-1.378-.282-1.53-1.08-.15-.776.853-1.643 1.992-1.116zM55.63 9.6c-.25-2.874-3.096-3.898-4.457-2.723-1.402 1.21-1.653 3.125-.4 4.285 1.252 1.16 5.108 1.31 4.857-1.563zm-3.68-1.63c.712-.616 2.203-.08 2.334 1.425.13 1.505-1.89 1.426-2.545.82-.655-.61-.524-1.612.21-2.246zm5.077 15.272c-2.605-1.204-4.898.778-4.558 2.55.35 1.825 1.88 2.993 3.5 2.472 1.62-.52 3.66-3.818 1.057-5.022zm-1.397 3.707c-.85.272-1.65-.34-1.834-1.296-.18-.928 1.022-1.966 2.386-1.336 1.364.63.296 2.358-.553 2.63zM53.93 51.993c-.25-.1-.2-4.083-.952-4.134-.75-.05-2.905 2.873-3.255 3.075-.35.202-3.422-1.464-3.556-1.06-.15.455 1.102 3.177 1.152 3.58.05.403-1.954 3.882-1.954 3.882s3.456-.504 3.806-.504c.35 0 2.204 3.982 2.704 3.982s.9-3.932 1.002-4.285c.1-.353 4.107-1.663 4.107-1.916 0-.25-2.805-2.52-3.055-2.62zm-2.254 3.58c-.15.302-.4 2.066-.4 2.066s-1.303-2.62-1.504-2.57c-.2.05-2.404.806-2.254.604.15-.202 1.352-2.268 1.352-2.268s-.8-1.563-.85-1.764c-.04-.155 1.802 1.462 2.253 1.008.45-.454 1.903-2.52 2.053-2.52s.15 2.873.45 3.025c.302.15 1.804 1.008 1.804 1.008s-2.754 1.107-2.904 1.41zm2.805-17.19c-.25-.404-9.264-7.058-9.264-7.058s.15-15.98.25-16.585c.1-.604-.75-1.108-1.402-1.158-.65-.05-12.72 8.52-13.02 8.52-.3 0-8.214-5.092-10.418-5.092-2.204 0-2.604 1.714-2.604 1.714-.15 1.16 2.804 10.788 2.955 11.544.15.756-7.412 15.526-7.713 16.13-.3.606.4 1.463 1.102 1.513.7.05 10.016-2.57 11.27-2.368 1.25.202 6.76 10.89 7.06 11.493.3.605 2.054.555 2.505.15.452-.402 4.56-12.5 5.01-12.904.45-.402 13.872-2.42 14.273-2.72.398-.303.248-2.774-.002-3.177zm-3.355 1.512c-.5 0-1.052-1.412-1.202-1.412-.15 0-1.052 0-1.002.15.05.152.802 1.614.802 1.614s-.7.202-.85.15c-.15-.05-1.954-3.78-2.205-3.88s-.9.302-.9.302l1.852 3.73s-1.153.303-1.203.15c-.05-.15-1.603-2.72-1.853-2.772-.25-.05-.7.807-.7.807s1.602 2.32 1.45 2.32c-.15 0-1.05.3-1.2.1-.15-.202-1.103-2.117-1.303-2.168-.2-.05-1.25.353-1.2.504.05.152 1.35 2.118 1.2 2.118-.15 0-1.45.252-1.502.05-.05-.202-.952-2.016-.952-2.016s-.85.05-.9.454c-.05.403.4 1.563.4 1.563s-2.053 1.31-2.104 1.562c-.05.252-3.806 10.485-3.806 10.485s-2.604-4.537-4.658-7.56c-2.053-3.026-2.554-3.278-3.055-3.378-.5-.102-10.267 2.62-10.067 1.965.2-.655 7.613-14.216 7.562-14.518-.05-.303-3.756-10.536-3.456-10.99.2-.3 9.616 5.445 10.317 5.294.7-.15 11.97-7.258 12.12-7.258.15 0-.302 14.92-.2 15.325.1.403 9.865 7.057 9.865 7.057s-.75.252-1.25.252zm-26.95 14.197c-2.604-1.204-4.896.778-4.557 2.55.35 1.825 1.88 2.993 3.5 2.472 1.62-.52 3.66-3.818 1.057-5.022zM22.778 57.8c-.85.273-1.65-.34-1.834-1.295-.178-.928 1.023-1.966 2.387-1.336s.297 2.357-.552 2.63zm-13.54-.342c-1.923-.888-3.615.574-3.364 1.882.258 1.347 1.387 2.21 2.583 1.825 1.197-.385 2.702-2.82.78-3.707zm-1.03 2.736c-.628.2-1.22-.25-1.354-.956-.13-.685.755-1.45 1.762-.986 1.006.465.217 1.74-.41 1.942zm3.747-30.4c-2.604-1.203-4.897.78-4.557 2.55.35 1.826 1.88 2.994 3.5 2.473 1.62-.52 3.66-3.818 1.057-5.022zm-1.397 3.71c-.85.272-1.65-.34-1.834-1.296-.178-.928 1.023-1.966 2.387-1.336 1.366.63.297 2.358-.552 2.63z"/></svg>