<svg xmlns="http://www.w3.org/2000/svg" viewBox="0 0 64 64"><path d="M38.466 63c-2.678 0-26.265-.016-29.58-.56C4.932 61.79.2 59.337.108 51.325-.41 8.115 1.047 5.98 1.83 4.833 4.13 1.463 8.75 1 13.4 1c1.102 0 2.243.026 3.39.053 1.106.026 2.216.052 3.3.052.425 0 .844-.004 1.258-.014 1.316-.03 3.306-.044 5.658-.044 9.163 0 24.145.198 25.817.245l.17.006c9.043.213 10.622 7.017 10.76 11.054.18 5.337.47 40.174-.023 42.433-.016.083-.027.203-.042.334-.578 4.802-3.463 7.39-8.57 7.69-2.052.12-8.276.193-16.65.193z" fill="#FFF"/><path d="M60.12 12.474c-.257-7.6-5.532-7.478-7.4-7.53-1.866-.052-24.812-.355-31.29-.2C14.955 4.9 6.996 3.72 4.825 6.902c-1.53 2.242-1.146 39.272-1.086 44.38.06 5.108 2.277 6.984 5.73 7.55s40.02.645 45.433.325c5.415-.32 4.975-3.758 5.28-5.16.306-1.402.2-33.924-.06-41.523zM56.63 54.57c-.328-.21-5.268-9.822-5.802-9.837-.533-.015-1.687.692-1.426.9.26.21 6.056 10.315 5.72 10.44-.338.125-2.537-.003-2.735-.076-.198-.073-4.396-7.58-4.663-7.588-.267-.008-1.615.49-1.357.835.257.343 4.48 6.978 4.016 6.83-.462-.146-3.053-.554-3.053-.554s-2.405-4.77-2.67-4.776c-.268-.007-1.54.16-1.353.634.187.476 2.816 4.378 2.214 4.43-.602.05-3.132-.155-3.328-.295-.196-.14-1.715-3.138-1.915-3.144-.2-.007-1.193-.303-1.27.03-.075.335 2.315 3.223 1.174 3.46-1.142.237-17.896.442-23.5.42-5.606-.022-7.27-.203-8.3-1.508-1.032-1.305-.94-4.595-1.06-12.392-.12-7.798-.727-31.867.462-33.85 1.025-1.71 46.02-1.674 47.838.19 1.817 1.866.8 29.115.61 28.774-.19-.34-1.78-3.14-1.98-3.146-.2-.006-1.23 1.04-.975 1.45.256.41 3.334 4.93 3.39 5.336.056.405.128 5.043-.068 4.903s-3.314-5.67-3.58-5.676c-.268-.006-1.17 1.245-.98 1.586.192.34 4.612 7.05 4.728 7.657.117.607.19 5.178-.137 4.967zM10.684 12.172c-.28.53-.295 8.323-.24 8.728.056.405 1.528.244 1.935-.013.406-.257.12-6.85.267-7.316.146-.465 2.674-.193 3.145-.314.47-.12.304-1.335-.024-1.546-.328-.212-4.68-.297-5.084.462zm9.436 9.27c-1 1.712-2.2 19.744.2 21.96 2.4 2.217 22.412 1.31 23.913.102 1.5-1.21 1.3-19.645-.1-21.86s-22.435-2.905-24.013-.203zm20.71 19.34c-1.6.605-17.208.706-17.608 0-.4-.704-.9-16.32-.2-17.226.566-.733 17.01-.705 18.01.403s1.4 16.22-.2 16.823z"/></svg>