<svg xmlns="http://www.w3.org/2000/svg" viewBox="0 0 64 64"><path d="M54.9 62c-.988 0-2.01-.05-3.092-.105l-1.13-.054c-1.19-.052-2.378-.142-3.68-.242-2.8-.214-5.975-.456-10.86-.456-2.504 0-5.156.063-8.106.193l-3.13.14c-5.32.238-9.525.426-12.746.426-4.634 0-6.88-.392-8.29-1.448-2.64-1.98-4.692-6.087-3.536-9.04.58-1.486 2.042-3.293 5.706-3.468.04-.002.11-.003.152-.003 1.713 0 2.777 1.262 3.554 2.183.11.13.255.302.38.44.12.002.63.002.748 0-.992-5.75-3.373-19.273-4.555-24.43-.52-2.263-1.06-4.33-1.534-6.152-1.217-4.67-1.72-6.602-1.134-8.12.887-2.292 8.16-8.044 23.99-10.204C30.836 1.222 33.84 1 36.56 1 48.774 1 53.493 5.312 55.3 8.93c1.953 3.906 1.093 11.943-.138 21.27-.297 2.25-.553 4.193-.638 5.45-.27 3.954-.48 9.655-.525 12.882.946-.607 2.37-1.282 4.182-1.313h.002c1.805 0 3.42.907 4.51 2.49 1.454 2.11 1.71 4.977.685 7.666C61.616 62 56.91 62 54.9 62z" fill="#FFF"/><path d="M58.226 49.84c-2.165.035-3.536 1.48-3.753 1.587-.216.108-2.706.036-2.995-.036-.29-.07.072-10.61.433-15.916.362-5.306 3.393-20.68 1.047-25.374s-9.887-7.904-24.97-5.847C12.908 6.31 6.52 11.69 6.088 12.808c-.433 1.12 1.263 6.136 2.778 12.74 1.516 6.606 5.016 27.035 5.052 27.324.036.29-3.392.36-4.51.29-1.12-.073-2.236-2.648-3.247-2.6-.758.036-2.742.144-3.392 1.805-.65 1.66.794 4.584 2.67 5.992 1.876 1.407 9.345.937 22.48.36 13.133-.578 18.004.29 22.875.505 4.87.217 8.804.722 10.14-2.78 1.335-3.502-.542-6.642-2.707-6.606zm-44.49-10.83c-.107 0-1.262-6.28-2.02-10.25-.758-3.97-2.742-11.478-3.103-13.318-.36-1.84.65-3.32 3.21-4.367 2.563-1.047 14.614-4.764 23.49-5.27 8.877-.505 13.676 2.78 15.01 4.548 1.336 1.77.65 3.5.65 3.5s-3.355-3.933-3.57-4.113c-.218-.18-.687.578-.614 1.083.07.505 3.968 4.006 4.112 4.26.144.252 0 3.21-.072 3.464-.072.253-4.51-5.342-4.727-5.378-.217-.037-.36.865-.36 1.118 0 .253 4.834 5.234 4.906 5.378.07.144-.145 2.49-.29 2.67-.144.182-4.258-5.34-4.69-5.63-.434-.29-.542.902-.506 1.12.036.216 4.943 5.52 4.943 5.52l-.144 3.105s-4.222-4.908-4.402-4.98c-.18-.072-.36 1.047-.324 1.3.036.252 4.583 4.872 4.763 4.98.18.108-.11 2.6-.18 2.815-.073.217-3.97-4.692-4.26-4.98-.288-.29-.612 1.01-.612 1.19 0 .18 4.655 5.09 4.655 5.09s-.072 2.85-.144 3.03c-.073.18-3.898-4.51-4.078-4.547-.18-.036-.577.974-.577 1.155 0 .18 4.51 5.09 4.51 5.09v1.66c0 .107-1.407 0-1.515 0s-2.345-3.285-2.634-3.574c-.29-.29-1.227.468-1.227.65 0 .18 2.453 3.03 2.453 3.03s-19.665.542-19.954.542c-.29 0-.47-2.743-.434-2.996.036-.253-8.263.18-8.624.36-.36.18-.036 2.24-.036 2.24s-3.5.505-3.61.505zm31.645 9.566c.217.29 3.393 2.67 3.068 2.85-.325.18-2.634.18-2.706 0-.072-.18-2.237-2.092-2.454-2.092-.217 0-.974.253-.83.686.144.433 2.418 1.12 1.624 1.408-.794.29-13.062.433-20.278.866-7.216.433-7.613.686-7.722.325-.108-.362-.65-3.863-.505-4.043.182-.227 3.356-.577 3.356-.577s.47 2.202.794 2.274c.325.072 7.108.108 7.108-.36 0-.47.18-2.42.36-2.564.18-.144 8.192-.325 14.11-.578 5.917-.253 7.793-.29 7.865-.036.072.253.144 3.5-.036 3.465-.18-.035-2.67-2.814-2.995-2.778-.326.035-.975.865-.76 1.154zM18.428 37.712c.174-.348 6.026-.758 6.206-.47.18.29 1.263 11.01.974 11.226-.29.217-4.835.938-5.052.433-.215-.504-2.272-10.9-2.128-11.188zM59.31 54.856c-.506 1.227-2.346 2.166-3.32 2.202-.975.036-14.795-.65-26.846-.47-12.052.182-17.753.723-20.71.47-2.96-.253-4.006-2.202-3.97-2.454.036-.253.54-1.408.938-1.335.227.04 2.13 1.948 3.717 1.912 1.587-.036 11.545-.794 23.633-1.335 12.088-.54 21.397-.072 22.48-.072 1.082 0 1.262-.108 1.587-.397s.902-1.047 1.588-.902c.684.143 1.406 1.153.9 2.38zm-48.1-38.872c-.18.325 1.913 8.3 1.913 8.3l1.12-.107s-1.156-8.013-1.372-8.518c-.216-.506-1.587.194-1.66.324z"/></svg>