<svg xmlns="http://www.w3.org/2000/svg" viewBox="0 0 64 64"><path d="M33.11 64C20.855 63.905.088 57.042 0 31.922-.082 8.434 19.428.86 30.97.087 31.83.03 32.706 0 33.57 0c5.448 0 13.307 1.13 19.798 6.522 6.946 5.77 10.522 14.898 10.63 27.135.07 7.887-2.78 14.977-8.238 20.507C48.592 61.424 39.17 64 33.278 64h-.167z" fill="#FFF"/><path d="M39.482 33.216c-.21-.252.502-.504.67-.504.166 0 1.21 2.938 1.21 2.938s1.673-4.953-.417-8.395c-2.09-3.442-7.23-4.622-8.947-4.533-8.11.42-10.953 8.814-8.78 13.64 2.175 4.828 5.394 4.954 5.52 4.954.124 0-.252-1.51-.252-1.51s.544 0 .878.04c.334.043.418 1.47.502 1.764.084.294 1.63.294 1.63.294s-.46-2.015-.543-2.267c-.084-.252.543-.336.752-.294.21.042.71 2.31.753 2.56.042.252 1.463.042 1.59-.042.124-.083-.837-3.147-.837-3.357s.712-.378.837-.336c.125.042 1.045 3.358 1.045 3.358s1.42-.336 1.63-.462c.21-.126-1.045-3.484-1.13-3.694-.083-.21.503-.38.712-.337.21.042 1.212 3.19 1.338 3.316.125.125.962-.673 1.087-.757.124-.084-1.38-4.113-1.422-4.45-.042-.335.25-.545.585-.545.334 0 1.547 4.07 1.63 4.197.084.126 1.212-1.89 1.212-2.015.002-.123-1.043-3.312-1.253-3.564zm-7.438-.05c-.426-.003-1.207-.224-1.21-1.17-.003-.843.69-1.13 1.132-1.158.456-.03 1.19.14 1.2 1.228.006.747-.696 1.103-1.122 1.1zm-.923-30.8C19.835 3.12 2.2 10.4 2.276 31.916c.084 24.09 19.983 29.716 30.853 29.8 10.87.084 28.763-8.982 28.595-28.038C61.48 5.94 42.737 1.588 31.12 2.366zm17.567 36.702c1.642-4.616 1.8-10.32 1.86-10.578.062-.258.788-.113.928.042.084.094.63 5.59-1.805 10.742-2.433 5.15-6.48 7.752-6.814 7.782-.333.03-.582-.874-.582-.874s4.77-2.498 6.413-7.114zM9.34 25.912S10.134 19.7 15.904 15c5.77-4.702 9.365-5.122 9.49-5.122s.418.588.21.797c-.21.21-5.812 1.68-9.407 5.12s-5.77 10.158-5.853 10.41-.92-.04-1.004-.293zm6.522-1.427c-2.05 4.45-2.717 10.115-2.8 10.367-.085.252-.795.042-.92-.126-.076-.1-.126-5.624 2.758-10.535s7.15-7.134 7.483-7.134c.334 0 .502.923.502.923s-4.974 2.056-7.023 6.505zM32.45 43.828c-4.328-.033-12.25-2.272-12.282-11.862-.03-8.563 6.99-11.46 11.482-11.762 4.623-.31 12.084 1.423 12.18 12.464.068 7.585-7.055 11.193-11.38 11.16zm17.045 4.69c-5.325 5.204-8.868 5.946-8.993 5.958-.125.01-.47-.547-.28-.775.19-.227 5.637-2.196 8.91-5.948C52.405 44 53.968 37.115 54.03 36.857c.06-.258.92-.04 1.025.202 0-.002-.235 6.257-5.56 11.46z"/></svg>