<svg xmlns="http://www.w3.org/2000/svg" viewBox="0 0 64 64"><path d="M24.893 64c-2.806 0-4.833 0-4.833-2.47 0-.024.16-2.508 1.172-3.508.324-.32.324-.32 2.69-1.516.933-.472 2.422-1.224 3.407-1.744 0-2.046-.06-6.41-.14-10.73-2.71-.706-7.39-2.5-10.593-6.866-4.51-6.146-3.864-11.773-2.907-16.564.035-.175 4.016-18.063 5.17-19.37C19.655.337 19.95 0 34.55 0c9.267 0 9.536.286 10.332 1.135 1.452 1.55 7.205 20.644 7.12 26.19-.112 7.15-4.777 15.045-13.277 16.822.018 4.087.053 8.185.094 10.343 3.1.884 8.197 2.586 8.86 4.286.012.028.874 2.506-.148 3.978-.46.66-1.246 1.074-2.057 1.074l-.597.007c-12.252.136-17.63.165-19.983.165z" fill="#FFF"/><path d="M36.436 56.3c-.136 0-.18-14.26-.18-14.26 9.172-.672 13.193-8.94 13.284-14.753S43.666 3.417 43.078 2.79c-.587-.625-22.05-.312-22.367.046-.315.358-3.795 14.17-4.608 18.238-.813 4.068-1.582 9.12 2.485 14.662s11.025 6.303 11.025 6.303.27 13.857.136 14.125c-.136.268-6.642 3.442-6.778 3.576-.136.135-.452 1.655-.452 1.79 0 .133 22.82-.135 22.954-.135.136 0 .136-1.162-.09-1.743-.225-.58-8.81-3.353-8.946-3.353zm-8.766 3.04c-.168-.277 4.067-2.057 4.067-2.46 0-.402-.36-15.422-.407-16.27-.045-.85-3.253.044-8.18-3.8-4.924-3.845-5.42-7.287-5.376-10.953.045-3.666 4.112-20.92 4.52-21.055C22.7 4.67 41 4.177 41.36 4.624c.362.447.453 2.28.453 2.28s-2.53-1.922-2.847-1.743c-.316.18-.768.984-.36 1.12.406.133 3.795 2.234 3.93 2.547.136.313.86 1.877.587 1.922-.27.044-3.796-2.19-4.022-2.013-.225.18-.044 1.252-.044 1.252s4.61 2.502 4.654 2.726c.045.224.768 1.922.497 1.788-.27-.134-3.344-1.922-3.434-1.743-.09.18-.136 1.163.09 1.253.226.09 3.525 1.967 3.976 2.414.45.447 1.038 1.788.812 1.788-.226 0-3.208-1.028-3.208-1.028s-.18.85.045 1.028c.225.18 3.343 1.296 3.614 1.7.27.4 1.898 8.448.497 11.89-1.4 3.442-4.292 6.526-7.86 7.108s-4.34 1.073-4.655 1.7c-.316.625-.09 16.315.18 16.405.272.09 5.468 1.922 5.243 2.056-.225.13-11.702.49-11.838.265zm14.653-24.345c3.55-3.908 4.326-9.598 4.195-11.12-.214-2.464-2.057-2.554-3.84-2.64l-.658-.034c-.25-.013-.478-.02-.69-.02-1.29 0-2.058.245-2.736.46-.405.13-.787.252-1.31.334-.166.026-.33.037-.495.037-.776 0-1.566-.25-2.263-.47-.412-.13-.802-.255-1.17-.322-.146-.026-.298-.04-.455-.04-.742 0-1.485.293-2.272.6-.623.246-1.267.5-1.89.6-.1.015-.193.022-.283.022-.423 0-.832-.17-1.352-.383-.683-.28-1.534-.63-2.677-.683-.094-.004-.188-.006-.282-.006-2.188 0-4.337 1.22-4.598 2.61-.518 2.76.202 7.25 3.008 10.588 1.704 2.027 4.882 4.444 10.35 4.444l.395-.004c3.664-.078 6.7-1.414 9.023-3.97zm-9.05 2.753c-10.71.223-13.33-9.253-12.516-13.59.11-.59 1.627-1.698 3.615-1.608s2.892 1.296 4.564 1.028c1.672-.268 3.208-1.34 4.202-1.162.994.18 2.62 1.028 4.338.76 1.717-.268 2.124-.894 4.473-.76 2.35.134 3.207 0 3.343 1.565.135 1.564-1.31 13.545-12.02 13.768zM23.016 12.223c.27-.045 1.04-5.32 1.04-5.32s-.932-.355-.995-.045c-.09.447-1.174 4.873-1.174 5.23s.86.18 1.13.135z"/></svg>